<?xml version="1.0" standalone="no"?>
<!DOCTYPE svg PUBLIC "-//W3C//DTD SVG 1.1//EN" "http://www.w3.org/Graphics/SVG/1.1/DTD/svg11.dtd" >
<svg>
<metadata>
Created by FontForge 20120731 at Wed Oct 29 02:36:00 2014
 By Orthosie Webhosting
Copyright (c) 2014 Indian Type Foundry (info@indiantypefoundry.com)
</metadata>
<defs>
<font id="KhandMedium" horiz-adv-x="213" >
  <font-face 
    font-family="KhandMedium"
    font-weight="500"
    font-stretch="normal"
    units-per-em="1000"
    panose-1="2 0 0 0 0 0 0 0 0 0"
    ascent="800"
    descent="-200"
    x-height="575"
    cap-height="678"
    bbox="-435 -419 1793 954"
    underline-thickness="50"
    underline-position="-50"
    unicode-range="U+000D-FB02"
  />
<missing-glyph horiz-adv-x="750" 
d="M234 651v-601h282v601h-282zM180 0v701h390v-701h-390z" />
    <glyph glyph-name="fi" unicode="fi" horiz-adv-x="480" 
d="M418 575v-575h-94v498h-148v-498h-94v498h-57v77h57v21q0 148 185 148q67 0 127 -14v-77q-56 14 -114.5 14t-81 -16.5t-22.5 -53.5v-22h242z" />
    <glyph glyph-name="fl" unicode="fl" horiz-adv-x="480" 
d="M418 728v-728h-93v664q-38 4 -57 4q-50 0 -71 -17t-21 -54v-22h86v-77h-86v-498h-94v498h-57v77h57v21q0 148 179 148q57 0 121 -16h36z" />
    <glyph glyph-name=".notdef" horiz-adv-x="750" 
d="M234 651v-601h282v601h-282zM180 0v701h390v-701h-390z" />
    <glyph glyph-name=".null" horiz-adv-x="0" 
 />
    <glyph glyph-name="nonmarkingreturn" horiz-adv-x="333" 
 />
    <glyph glyph-name="NULL" horiz-adv-x="0" 
 />
    <glyph glyph-name="NULL" horiz-adv-x="0" 
 />
    <glyph glyph-name="CR" unicode="&#xd;" horiz-adv-x="0" 
 />
    <glyph glyph-name="space" unicode=" " horiz-adv-x="188" 
 />
    <glyph glyph-name="exclam" unicode="!" horiz-adv-x="272" 
d="M81 48q0 55 55 55t55 -55t-55 -55t-55 55zM85 678h101l-12 -491h-77z" />
    <glyph glyph-name="quotedbl" unicode="&#x22;" horiz-adv-x="389" 
d="M82 754h82v-225h-82v225zM222 754h83v-225h-83v225z" />
    <glyph glyph-name="numbersign" unicode="#" horiz-adv-x="560" 
d="M528 421h-85l-26 -176h75v-73h-85l-25 -172h-82l25 172h-129l-25 -172h-82l25 172h-77v73h87l26 176h-77v72h87l25 173h83l-25 -173h128l25 173h82l-25 -173h75v-72zM335 245l26 176h-129l-25 -176h128z" />
    <glyph glyph-name="dollar" unicode="$" horiz-adv-x="403" 
d="M375 203v-56q0 -125 -140 -147v-68h-88v64q-70 3 -115 20v90q66 -24 139 -24q109 0 109 74v34q0 30 -11 46.5t-41 32.5l-113 62q-89 48 -89 143v60q0 123 130 145v60h88v-57q60 -3 101 -17v-90q-54 21 -131 21q-93 0 -93 -69v-39q0 -32 12.5 -50.5t44.5 -36.5l116 -65
q81 -44 81 -133z" />
    <glyph glyph-name="percent" unicode="%" horiz-adv-x="612" 
d="M336 143q0 151 120.5 151t120.5 -151q0 -71 -30 -111t-91 -40q-120 0 -120 151zM506 143q0 86 -50.5 86t-50.5 -86t50.5 -86t50.5 86zM35 535q0 71 30 111t90 40q121 0 121 -151t-121 -151q-60 0 -90 40t-30 111zM155 448q50 0 50 86.5t-50 86.5t-50 -86.5t50 -86.5z
M415 678h67l-285 -678h-67z" />
    <glyph glyph-name="ampersand" unicode="&#x26;" horiz-adv-x="471" 
d="M458 390v-81h-44v-153q0 -75 -45 -119.5t-134 -44.5t-135.5 45t-46.5 119v76q0 93 76 120q-75 27 -75 120v57q0 72 49.5 113t138 41t138.5 -16v-90q-51 19 -117.5 19t-90.5 -19.5t-24 -55.5v-48q0 -83 77 -83h98v61h91v-61h44zM323 158v151h-96q-80 0 -80 -82v-69
q0 -83 88 -83t88 83z" />
    <glyph glyph-name="quotesingle" unicode="'" horiz-adv-x="250" 
d="M82 754h85v-225h-85v225z" />
    <glyph glyph-name="parenleft" unicode="(" horiz-adv-x="305" 
d="M176.5 576.5q-27.5 -125.5 -27.5 -248t27.5 -248.5t71.5 -226h-82q-44 93 -71.5 221.5t-27.5 253t27.5 252t71.5 221.5h82q-44 -100 -71.5 -225.5z" />
    <glyph glyph-name="parenright" unicode=")" horiz-adv-x="305" 
d="M210.5 580.5q27.5 -127.5 27.5 -252t-27.5 -253t-71.5 -221.5h-83q44 100 71.5 226t27.5 248.5t-27.5 248t-71.5 225.5h83q44 -94 71.5 -221.5z" />
    <glyph glyph-name="asterisk" unicode="*" horiz-adv-x="513" 
d="M215 703v97h84v-97q0 -35 -8 -59q22 15 54 26l93 30l26 -80l-92 -30q-33 -11 -60 -11q20 -14 42 -43l57 -79l-68 -50l-58 79q-20 29 -28 52q-8 -23 -28 -52l-57 -79l-68 50l57 79q22 29 42 43q-27 0 -60 11l-92 30l25 80l93 -30q32 -11 54 -26q-8 24 -8 59z" />
    <glyph glyph-name="plus" unicode="+" horiz-adv-x="459" 
d="M416 367v-80h-143v-147h-87v147h-143v80h143v147h87v-147h143z" />
    <glyph glyph-name="comma" unicode="," horiz-adv-x="167" 
d="M98 102q44 0 44 -39q0 -51 -80 -191h-53l42 230h47z" />
    <glyph glyph-name="hyphen" unicode="-" horiz-adv-x="253" 
d="M40 367h178v-80h-178v80z" />
    <glyph glyph-name="period" unicode="." horiz-adv-x="179" 
d="M34 48q0 55 55 55t55 -55t-55 -55t-55 55z" />
    <glyph glyph-name="slash" unicode="/" horiz-adv-x="401" 
d="M297 803h84l-264 -949h-83z" />
    <glyph glyph-name="zero" unicode="0" horiz-adv-x="453" 
d="M307 521q0 82 -81 82q-44 0 -62 -21t-18 -61v-364q0 -40 18 -61t62 -21q81 0 81 82v364zM52 523q0 75 43 120t131.5 45t131.5 -45t43 -120v-369q0 -75 -43 -119.5t-131.5 -44.5t-131.5 44.5t-43 119.5v369z" />
    <glyph glyph-name="one" unicode="1" horiz-adv-x="290" 
d="M228 678v-678h-94v573l-122 -88v105l121 88h95z" />
    <glyph glyph-name="two" unicode="2" horiz-adv-x="413" 
d="M181 683q188 0 188 -150v-58q0 -53 -17.5 -88.5t-58.5 -64.5l-81 -61q-46 -33 -61 -55t-15 -63v-58h232v-85h-327v150q0 61 25 98t75 72l85 66q29 19 39 41t10 60v38q0 36 -20 53.5t-82.5 17.5t-120.5 -23v91q55 19 129 19z" />
    <glyph glyph-name="three" unicode="3" horiz-adv-x="401" 
d="M156 683q190 0 190 -151v-69q0 -95 -72 -120q75 -20 75 -114v-83q0 -72 -47.5 -111.5t-136 -39.5t-139.5 19v90q61 -23 123 -23t84 18.5t22 54.5v64q0 39 -19 58.5t-63 19.5h-71v87h70q43 0 61 21t18 61v60q0 35 -21 53.5t-83.5 18.5t-107.5 -17v89q42 14 117 14z" />
    <glyph glyph-name="four" unicode="4" horiz-adv-x="422" 
d="M417 206v-83h-67v-123h-90v123h-250v87l207 468h133v-472h67zM262 206v383l-168 -383h168z" />
    <glyph glyph-name="five" unicode="5" horiz-adv-x="425" 
d="M57 678h304v-87h-211v-185q35 4 74 4q77 0 116 -39t39 -112v-113q0 -72 -47.5 -111.5t-133 -39.5t-146.5 21v90q73 -25 130 -25t79.5 18.5t22.5 53.5v96q0 40 -18 58t-64 18q-22 0 -145 -11v364z" />
    <glyph glyph-name="six" unicode="6" horiz-adv-x="442" 
d="M307 276q0 72 -76 72q-51 0 -85 -19v-173q0 -83 80.5 -83t80.5 83v120zM52 516q0 75 46.5 121t135.5 46t140 -19v-89q-53 21 -129 21q-99 0 -99 -87v-97q39 18 106.5 18t108 -38t40.5 -110v-128q0 -75 -43 -119.5t-131.5 -44.5t-131.5 44.5t-43 119.5v362z" />
    <glyph glyph-name="seven" unicode="7" horiz-adv-x="346" 
d="M5 678h320v-75l-73 -225q-48 -150 -48 -278v-100h-96v106q0 130 50 283l64 203h-217v86z" />
    <glyph glyph-name="eight" unicode="8" horiz-adv-x="461" 
d="M408 527v-67q0 -88 -63 -122q64 -35 64 -123v-65q0 -74 -44.5 -117t-134 -43t-134 43t-44.5 117v65q0 88 64 123q-63 34 -63 122v67q0 74 44 117.5t133.5 43.5t133.5 -43t44 -118zM147 527v-69q0 -82 83.5 -82t83.5 82v69q0 79 -83.5 79t-83.5 -79zM316 151v66
q0 83 -85.5 83t-85.5 -83v-66q0 -79 85.5 -79t85.5 79z" />
    <glyph glyph-name="nine" unicode="9" horiz-adv-x="442" 
d="M296 522q0 83 -80.5 83t-80.5 -83v-124q0 -76 77 -76q56 0 84 19v181zM41 523q0 75 43 120t132 45t131.5 -44.5t42.5 -120.5v-371q0 -72 -48 -114.5t-137.5 -42.5t-142.5 20v90q61 -24 134 -24q100 0 100 79v97q-36 -18 -105.5 -18t-109.5 39.5t-40 111.5v133z" />
    <glyph glyph-name="colon" unicode=":" horiz-adv-x="218" 
d="M34 48q0 55 55 55t55 -55t-55 -55t-55 55zM89 343q-55 0 -55 55.5t55 55.5t55 -55.5t-55 -55.5z" />
    <glyph glyph-name="semicolon" unicode=";" horiz-adv-x="218" 
d="M89 343q-55 0 -55 55.5t55 55.5t55 -55.5t-55 -55.5zM98 102q44 0 44 -39q0 -51 -80 -191h-53l42 230h47z" />
    <glyph glyph-name="less" unicode="&#x3c;" horiz-adv-x="475" 
d="M418 515v-85l-296 -103l296 -104v-85l-378 142v92z" />
    <glyph glyph-name="equal" unicode="=" horiz-adv-x="455" 
d="M37 273h378v-79h-378v79zM37 459h378v-79h-378v79z" />
    <glyph glyph-name="greater" unicode="&#x3e;" horiz-adv-x="473" 
d="M51 515l379 -143v-92l-379 -142v85l297 104l-297 103v85z" />
    <glyph glyph-name="question" unicode="?" horiz-adv-x="392" 
d="M93 48q0 55 55 55t55 -55t-55 -55t-55 55zM156 688q189 0 189 -149v-94q0 -73 -35 -114t-118 -42l-5 -102h-79l-5 176h56q50 0 72 20.5t22 62.5v86q0 36 -20.5 52.5t-83 16.5t-117.5 -19v90q55 16 124 16z" />
    <glyph glyph-name="at" unicode="@" horiz-adv-x="874" 
d="M530 -121h-88q-204 0 -288.5 101.5t-84.5 296t85.5 296.5t287.5 102q212 0 294 -105q42 -53 60 -122t18 -164q0 -140 -44 -201t-129 -61t-118 53q-39 -27 -103 -27q-125 0 -125 114v18q0 50 25.5 77.5t78.5 45.5l102 34v56q0 29 -13.5 43.5t-54.5 14.5t-117 -18v68
q60 16 122 16q138 0 138 -121v-228q0 -40 16.5 -57t57 -17t62 41.5t21.5 135t-12 147.5t-43 98q-59 85 -236 85q-176 0 -237 -89q-31 -45 -43 -100.5t-12 -134.5t12.5 -134.5t43.5 -100.5q62 -88 236 -88h88v-75zM372 182v-21q0 -48 55 -48q40 0 74 22v133l-73 -23
q-31 -10 -43.5 -22t-12.5 -41z" />
    <glyph glyph-name="A" unicode="A" horiz-adv-x="453" 
d="M347 0l-37 180h-168l-37 -180h-92l148 678h132l146 -678h-92zM158 261h135l-68 329z" />
    <glyph glyph-name="B" unicode="B" horiz-adv-x="475" 
d="M417 524v-59q0 -95 -72 -122q78 -26 78 -126v-63q0 -75 -41.5 -114.5t-122.5 -39.5h-197v678h191q81 0 122.5 -39.5t41.5 -114.5zM242 597h-86v-214h86q82 0 82 78v59q0 77 -82 77zM330 158v64q0 77 -82 77h-92v-218h92q82 0 82 77z" />
    <glyph glyph-name="C" unicode="C" horiz-adv-x="399" 
d="M52 533q0 71 48 110.5t145 39.5q64 0 118 -15v-87q-59 17 -116 17t-78.5 -18t-21.5 -54v-375q0 -35 22 -53t81 -18t116 16v-85q-52 -16 -122 -16q-192 0 -192 150v388z" />
    <glyph glyph-name="D" unicode="D" horiz-adv-x="473" 
d="M328 523q0 76 -79 76h-93v-517h93q79 0 79 79v362zM62 678h196q80 0 122 -40t42 -112v-370q0 -73 -39.5 -114.5t-120.5 -41.5h-200v678z" />
    <glyph glyph-name="E" unicode="E" horiz-adv-x="404" 
d="M62 678h309v-83h-215v-211h187v-83h-187v-219h215v-82h-309v678z" />
    <glyph glyph-name="F" unicode="F" horiz-adv-x="380" 
d="M62 678h300v-83h-205v-228h194v-84h-194v-283h-95v678z" />
    <glyph glyph-name="G" unicode="G" horiz-adv-x="454" 
d="M52 528q0 73 49.5 114t150.5 41q68 0 127 -17v-90q-60 20 -126 20q-106 0 -106 -76v-368q0 -72 88 -72q49 0 74 17v245h93v-307q-73 -40 -163.5 -40t-138.5 37.5t-48 112.5v383z" />
    <glyph glyph-name="H" unicode="H" horiz-adv-x="506" 
d="M348 678h96v-678h-96v291h-191v-291h-95v678h95v-303h191v303z" />
    <glyph glyph-name="I" unicode="I" horiz-adv-x="218" 
d="M62 678h95v-678h-95v678z" />
    <glyph glyph-name="J" unicode="J" horiz-adv-x="221" 
d="M64 678h95v-477q0 -129 -34 -246l-31 -104h-98l30 105q38 131 38 244v478z" />
    <glyph glyph-name="K" unicode="K" horiz-adv-x="448" 
d="M62 678h94v-678h-94v678zM325 678h101l-137 -335l146 -343h-105l-141 341z" />
    <glyph glyph-name="L" unicode="L" horiz-adv-x="360" 
d="M62 678h95v-597h198v-81h-293v678z" />
    <glyph glyph-name="M" unicode="M" horiz-adv-x="622" 
d="M560 678v-678h-90v321q0 103 10 201l-126 -344h-87l-126 344q10 -93 10 -200v-322h-89v678h105l144 -402l144 402h105z" />
    <glyph glyph-name="N" unicode="N" horiz-adv-x="509" 
d="M354 678h93v-678h-100q-157 401 -205 532q0 -11 4 -46q8 -87 8 -193v-293h-92v678h101q139 -352 169 -436t34 -95q0 9 -5.5 88.5t-6.5 153.5v289z" />
    <glyph glyph-name="O" unicode="O" horiz-adv-x="466" 
d="M320 520q0 82 -87 82t-87 -82v-362q0 -83 87 -83t87 83v362zM52 523q0 75 45.5 120t135 45t135.5 -45.5t46 -119.5v-369q0 -74 -46 -119t-135 -45t-135 45t-46 119v369z" />
    <glyph glyph-name="P" unicode="P" horiz-adv-x="448" 
d="M315 518q0 77 -80 77h-79v-291h79q80 0 80 78v136zM62 678h182q80 0 122.5 -40t42.5 -112v-152q0 -72 -42.5 -112t-122.5 -40h-88v-222h-94v678z" />
    <glyph glyph-name="Q" unicode="Q" horiz-adv-x="466" 
d="M233 -10q-89 0 -135 45t-46 119v369q0 75 45.5 120t135 45t135.5 -45.5t46 -119.5v-369q0 -89 -62 -132l111 -119h-115l-82 89q-20 -2 -33 -2zM146 520v-362q0 -83 87 -83t87 83v362q0 82 -87 82t-87 -82z" />
    <glyph glyph-name="R" unicode="R" horiz-adv-x="464" 
d="M156 264v-264h-94v678h182q80 0 122.5 -40t42.5 -111v-108q0 -111 -85 -143l108 -276h-104l-97 264h-75zM156 596v-253h80q42 0 60.5 19t18.5 58v101q0 75 -79 75h-80z" />
    <glyph glyph-name="S" unicode="S" horiz-adv-x="403" 
d="M26 534q0 71 46.5 110t132.5 39t140 -18v-90q-54 21 -131 21q-93 0 -93 -69v-39q0 -32 12.5 -50.5t44.5 -36.5l116 -65q81 -44 81 -133v-56q0 -73 -51 -112.5t-143.5 -39.5t-148.5 21v90q66 -24 139 -24q109 0 109 74v34q0 30 -11 46.5t-41 32.5l-113 62q-89 48 -89 143
v60z" />
    <glyph glyph-name="T" unicode="T" horiz-adv-x="368" 
d="M361 678v-83h-129v-595h-95v595h-129v83h353z" />
    <glyph glyph-name="U" unicode="U" horiz-adv-x="474" 
d="M323 678h94v-524q0 -74 -45.5 -119t-134.5 -45t-134.5 45t-45.5 119v524h94v-520q0 -83 86 -83t86 83v520z" />
    <glyph glyph-name="V" unicode="V" horiz-adv-x="439" 
d="M330 678h98l-142 -678h-132l-143 678h96q74 -369 91.5 -469.5t21.5 -121.5q9 41 25 138.5t22 130.5z" />
    <glyph glyph-name="W" unicode="W" horiz-adv-x="604" 
d="M502 678h86l-105 -678h-100q-68 417 -80 533q-9 -110 -27 -215l-52 -318h-104l-104 678h87l55 -350l23 -182q11 92 24 182l54 350h88l53 -350l24 -179q11 104 22 179z" />
    <glyph glyph-name="X" unicode="X" horiz-adv-x="414" 
d="M302 678h102l-148 -340l148 -338h-103l-93 235l-95 -235h-102l146 338l-146 340h102l95 -237z" />
    <glyph glyph-name="Y" unicode="Y" horiz-adv-x="430" 
d="M263 0h-95v223l-165 455h97l57 -160q31 -90 60 -191q28 98 59 191l57 160h95l-165 -455v-223z" />
    <glyph glyph-name="Z" unicode="Z" horiz-adv-x="395" 
d="M31 678h336v-79l-243 -518h242v-81h-340v81l240 516h-235v81z" />
    <glyph glyph-name="bracketleft" unicode="[" horiz-adv-x="319" 
d="M162 -73h122v-75h-200v958h200v-74h-122v-809z" />
    <glyph glyph-name="backslash" unicode="\" horiz-adv-x="420" 
d="M35 810h85l270 -958h-86z" />
    <glyph glyph-name="bracketright" unicode="]" horiz-adv-x="319" 
d="M34 810h201v-958h-201v75h122v809h-122v74z" />
    <glyph glyph-name="asciicircum" unicode="^" horiz-adv-x="354" 
d="M348 385h-92l-81 245l-81 -245h-92l116 300h115z" />
    <glyph glyph-name="underscore" unicode="_" horiz-adv-x="502" 
d="M4 -8h494l-1 -76h-493v76z" />
    <glyph glyph-name="grave" unicode="`" horiz-adv-x="350" 
d="M115 728h80l40 -109h-56z" />
    <glyph glyph-name="a" unicode="a" horiz-adv-x="429" 
d="M121 165v-30q0 -33 15.5 -49t61 -16t83.5 31v167l-95 -26q-39 -11 -52 -27.5t-13 -49.5zM56 561q57 19 145 19q171 0 171 -155v-425h-90v41q-44 -44 -116 -44q-138 0 -138 139v33q0 56 29 90.5t93 52.5l131 36v77q0 37 -20 53.5t-84.5 16.5t-120.5 -20v86z" />
    <glyph glyph-name="b" unicode="b" horiz-adv-x="452" 
d="M305 431q0 59 -61 59q-36 0 -88 -20v-384h71q78 0 78 72v273zM62 728h94v-172q54 22 113.5 22t95 -33.5t35.5 -97.5v-299q0 -72 -41 -110t-109 -38h-188v728z" />
    <glyph glyph-name="c" unicode="c" horiz-adv-x="372" 
d="M52 428q0 152 176 152q63 0 112 -14v-87q-50 14 -101.5 14t-72 -17t-20.5 -54v-270q0 -37 20.5 -54t73.5 -17t101 16v-88q-58 -14 -113 -14q-176 0 -176 152v281z" />
    <glyph glyph-name="d" unicode="d" horiz-adv-x="451" 
d="M295 490h-68q-81 0 -81 -76v-265q0 -67 66 -67q53 0 83 28v380zM295 728h95v-728h-93v36q-41 -39 -108 -39t-102 36.5t-35 104.5v279q0 74 43 116t120 42h80v153z" />
    <glyph glyph-name="e" unicode="e" horiz-adv-x="435" 
d="M52 152v276q0 72 42 114.5t128 42.5t127 -42.5t41 -114.5v-183h-246v-88q0 -40 24.5 -59t86 -19t119.5 18v-86q-60 -16 -128 -16q-194 0 -194 157zM144 321h157v106q0 78 -78.5 78t-78.5 -78v-106z" />
    <glyph glyph-name="f" unicode="f" horiz-adv-x="279" 
d="M82 601q0 146 150 146q27 0 47 -4v-77q-15 3 -36 3q-67 0 -67 -67v-27h99v-77h-99v-498h-94v498h-57v77h57v26z" />
    <glyph glyph-name="g" unicode="g" horiz-adv-x="449" 
d="M433 538h-34q-23 0 -39 -9q28 -35 28 -93v-82q0 -70 -42.5 -109t-128.5 -40q-47 0 -47 -44q0 -21 12.5 -30t44.5 -9h58q142 0 142 -119v-17q0 -135 -191 -135h-39q-109 0 -165 35v88q66 -43 163 -43h32q60 0 85 14t25 42v9q0 24 -12.5 35.5t-48.5 11.5h-61
q-129 0 -129 87v16q0 56 53 68q-101 29 -101 140v82q0 71 43.5 110t121.5 39t120 -24q21 64 95 64h15v-87zM294 355v80q0 37 -19 54.5t-62 17.5t-62 -17.5t-19 -54.5v-80q0 -37 19 -54.5t62 -17.5t62 17.5t19 54.5z" />
    <glyph glyph-name="h" unicode="h" horiz-adv-x="455" 
d="M62 728h94v-172q51 22 109.5 22t95.5 -33t37 -98v-447h-96v431q0 59 -59 59q-45 0 -87 -21v-469h-94v728z" />
    <glyph glyph-name="i" unicode="i" horiz-adv-x="218" 
d="M109 625q-55 0 -55 55.5t55 55.5t55 -55.5t-55 -55.5zM62 568h94v-568h-94v568z" />
    <glyph glyph-name="j" unicode="j" horiz-adv-x="218" 
d="M109 625q-55 0 -55 55.5t55 55.5t55 -55.5t-55 -55.5zM62 568h94v-565q0 -72 -37.5 -113t-110.5 -41q-20 0 -31 3v85q16 -2 25 -2q31 0 45.5 16.5t14.5 51.5v565z" />
    <glyph glyph-name="k" unicode="k" horiz-adv-x="412" 
d="M62 728h92v-728h-92v728zM290 575h97l-113 -275l124 -300h-101l-120 302z" />
    <glyph glyph-name="l" unicode="l" horiz-adv-x="218" 
d="M62 728h94v-728h-94v728z" />
    <glyph glyph-name="m" unicode="m" horiz-adv-x="696" 
d="M367 538q68 39 134.5 39t102 -33t35.5 -97v-447h-95v431q0 59 -60 59q-48 0 -91 -27q5 -11 5 -31v-432h-96v431q0 59 -59 59q-43 0 -87 -22v-468h-94v575h90v-26q64 28 122 28t93 -39z" />
    <glyph glyph-name="n" unicode="n" horiz-adv-x="455" 
d="M152 549q64 28 119.5 28t91 -33.5t35.5 -96.5v-447h-96v431q0 59 -59 59q-43 0 -87 -22v-468h-94v575h90v-26z" />
    <glyph glyph-name="o" unicode="o" horiz-adv-x="444" 
d="M299 426q0 77 -77 77t-77 -77v-277q0 -77 77 -77t77 77v277zM52 428q0 72 42 114.5t128 42.5t128.5 -42.5t42.5 -114.5v-281q0 -72 -42.5 -114.5t-128.5 -42.5t-128 42.5t-42 114.5v281z" />
    <glyph glyph-name="p" unicode="p" horiz-adv-x="452" 
d="M305 431q0 59 -61 59q-44 0 -88 -22v-382h72q77 0 77 73v272zM152 548q58 29 117.5 29t95 -33t35.5 -97v-298q0 -72 -40.5 -110.5t-108.5 -38.5h-95v-149h-94v724h90v-27z" />
    <glyph glyph-name="q" unicode="q" horiz-adv-x="451" 
d="M295 490h-66q-83 0 -83 -79v-259q0 -69 67 -69q51 0 82 27v380zM218 575h172v-724h-94v172q-39 -25 -103 -25q-141 0 -141 147v268q0 75 43.5 118.5t122.5 43.5z" />
    <glyph glyph-name="r" unicode="r" horiz-adv-x="294" 
d="M266 578h23v-89h-30q-47 0 -103 -38v-451h-94v575h90v-42q3 2 11.5 8t11 7.5t10 6.5t10.5 6t9.5 4.5t10.5 4.5t10.5 3.5t12.5 2.5q18 2 28 2z" />
    <glyph glyph-name="s" unicode="s" horiz-adv-x="369" 
d="M26 435q0 73 42.5 109t138.5 36q64 0 114 -16v-86q-48 18 -106 18t-77 -15.5t-19 -50.5v-20q0 -27 11 -41t42 -30l85 -46q86 -46 86 -124v-26q0 -148 -192 -148q-65 0 -123 15v87q51 -17 112.5 -17t85 16t23.5 49v17q0 24 -12.5 38.5t-49.5 33.5l-81 42q-80 41 -80 127
v32z" />
    <glyph glyph-name="t" unicode="t" horiz-adv-x="299" 
d="M159 678v-103h116v-81h-116v-357q0 -58 60 -58q29 0 65 12v-85q-1 0 -9.5 -2t-17.5 -4q-27 -6 -52 -6q-140 0 -140 136v364h-60v81h63l28 103h63z" />
    <glyph glyph-name="u" unicode="u" horiz-adv-x="456" 
d="M218 83q42 0 82 25v467h95v-575h-90v27q-52 -29 -115 -29t-98 36t-35 104v437h95v-424q0 -68 66 -68z" />
    <glyph glyph-name="v" unicode="v" horiz-adv-x="401" 
d="M293 575h95l-125 -575h-123l-127 575h96q70 -341 93 -505q18 130 44 266z" />
    <glyph glyph-name="w" unicode="w" horiz-adv-x="606" 
d="M496 575h96l-99 -575h-119q-62 378 -70 449q-10 -84 -71 -449h-118l-102 575h98l66 -467l79 467h95l79 -468z" />
    <glyph glyph-name="x" unicode="x" horiz-adv-x="376" 
d="M267 575h101l-132 -287l132 -288h-101l-79 198l-79 -198h-101l130 288l-130 287h101l79 -194z" />
    <glyph glyph-name="y" unicode="y" horiz-adv-x="405" 
d="M297 575h93l-151 -724h-91l30 149h-40l-122 575h94q77 -377 93 -505q16 119 42 250z" />
    <glyph glyph-name="z" unicode="z" horiz-adv-x="333" 
d="M25 575h287v-65l-193 -429h194v-81h-293v66l191 428h-186v81z" />
    <glyph glyph-name="braceleft" unicode="{" horiz-adv-x="369" 
d="M217 664v-201q0 -61 -19 -93.5t-69 -40.5q51 -7 69.5 -38.5t18.5 -92.5v-206q0 -58 69 -58h24v-80h-29q-70 0 -108 38t-38 104v225q0 32 -19 49.5t-55 17.5h-4v81h4q36 0 55 17.5t19 49.5v225q0 65 38.5 103.5t107.5 38.5h29v-81h-24q-69 0 -69 -58z" />
    <glyph glyph-name="bar" unicode="|" horiz-adv-x="212" 
d="M72 826h68v-988h-68v988z" />
    <glyph glyph-name="braceright" unicode="}" horiz-adv-x="368" 
d="M306 369h3v-81h-3q-36 0 -55 -17.5t-19 -49.5v-225q0 -66 -38.5 -104t-108.5 -38h-29v80h24q69 0 69 58v206q0 61 19 92.5t69 38.5q-50 8 -69 40.5t-19 93.5v201q0 58 -69 58h-24v81h29q70 0 108.5 -38.5t38.5 -103.5v-225q0 -32 19 -49.5t55 -17.5z" />
    <glyph glyph-name="asciitilde" unicode="~" horiz-adv-x="485" 
d="M460 370q0 -47 -25 -74q-46 -50 -143 -16l-104 41q-37 18 -62.5 7t-18.5 -52h-80q-3 19 -3 38q0 47 26 74q45 50 142 16l104 -41q39 -18 63 -7t17 52h80q4 -17 4 -38z" />
    <glyph glyph-name="uni00A0" unicode="&#xa0;" horiz-adv-x="188" 
 />
    <glyph glyph-name="exclamdown" unicode="&#xa1;" horiz-adv-x="272" 
d="M186 -103h-101l12 491h77zM81 527q0 55 55 55t55 -55t-55 -55t-55 55z" />
    <glyph glyph-name="cent" unicode="&#xa2;" horiz-adv-x="394" 
d="M273 -74h-87v72q-128 19 -128 149v281q0 132 130 149v77h87v-75q42 -4 71 -13v-87q-50 14 -101.5 14t-72 -17t-20.5 -54v-270q0 -37 20.5 -54t73.5 -17t101 16v-88q-41 -10 -74 -13v-70z" />
    <glyph glyph-name="sterling" unicode="&#xa3;" horiz-adv-x="477" 
d="M433 84v-84h-385v83q9 0 23 6.5t19 10.5t11 11.5t9 16.5q9 20 9 49v131h-62v80h62v123q0 81 46.5 125.5t139.5 44.5q64 0 120 -18v-89q-54 19 -112 19t-79 -22t-21 -66v-117h161v-80h-161v-119q0 -34 -9 -58t-16.5 -31t-20.5 -16h266z" />
    <glyph glyph-name="currency" unicode="&#xa4;" horiz-adv-x="460" 
d="M401 384v-90q0 -46 -15 -80l46 -45l-57 -57l-44 44q-37 -21 -99 -21t-101 21l-44 -44l-57 57l46 45q-15 34 -15 80v90q0 46 15 80l-45 45l57 57l44 -44q38 21 99.5 21t100.5 -21l44 44l57 -57l-47 -46q15 -33 15 -79zM152 382v-86q0 -40 17.5 -59.5t61.5 -19.5t61.5 19.5
t17.5 59.5v86q0 40 -17.5 59t-61.5 19t-61.5 -19t-17.5 -59z" />
    <glyph glyph-name="yen" unicode="&#xa5;" horiz-adv-x="499" 
d="M465 423v-74h-114l-34 -87h148v-74h-164v-188h-92v188h-167v74h150l-34 87h-116v74h89l-91 243h95l90 -249l31 -92l31 92l89 249h93l-91 -243h87z" />
    <glyph glyph-name="brokenbar" unicode="&#xa6;" 
d="M72 220h68v-382h-68v382zM72 826h68v-381h-68v381z" />
    <glyph glyph-name="section" unicode="&#xa7;" horiz-adv-x="376" 
d="M129 268v-17q0 -27 11.5 -41.5t43.5 -30.5l84 -45q43 -23 65 -51.5t22 -73.5v-11q0 -147 -192 -147q-75 0 -123 14v86q48 -16 111.5 -16t86.5 15.5t23 45t-12 44t-50 35.5l-81 42q-80 41 -80 127v24h91zM31 535q0 73 42.5 109.5t137.5 36.5q67 0 114 -15v-86
q-48 16 -106 16t-77 -15t-19 -48t10.5 -46t42.5 -29l85 -45q87 -44 87 -124v-25h-92v18q0 23 -13 37.5t-51 34.5l-81 42q-80 42 -80 127v12z" />
    <glyph glyph-name="dieresis" unicode="&#xa8;" horiz-adv-x="350" 
d="M248 630q-44 0 -44 42.5t44 42.5t44 -42.5t-44 -42.5zM102 630q-44 0 -44 42.5t44 42.5t44 -42.5t-44 -42.5z" />
    <glyph glyph-name="copyright" unicode="&#xa9;" horiz-adv-x="693" 
d="M572 243q4 35 4 85.5t-3.5 85t-17 70t-37.5 56.5q-54 46 -171 46q-150 0 -193 -74q-23 -39 -30 -79.5t-7 -98.5t4 -92.5t18 -69.5t39 -56q55 -46 169 -46q113 0 167 47q46 39 58 126zM226 385q0 60 31 91t102 31q43 0 75 -8v-66q-40 10 -77 10t-48.5 -14.5t-11.5 -45.5
v-110q0 -20 3 -31t17.5 -19.5t48 -8.5t68.5 9v-66q-48 -8 -75 -8q-71 0 -102 31.5t-31 91.5v113zM43 327q0 76 13.5 132.5t45.5 102.5q67 94 245 94q180 0 245 -93q32 -46 44.5 -102t12.5 -132.5t-14 -132.5t-47 -102q-66 -94 -241 -94q-178 0 -243 93q-61 86 -61 234z" />
    <glyph glyph-name="ordfeminine" unicode="&#xaa;" horiz-adv-x="336" 
d="M99 429v-30q0 -30 13 -43.5t55.5 -13.5t66.5 27v134l-74 -15q-32 -8 -46.5 -21.5t-14.5 -37.5zM168 745q131 0 131 -107v-351h-65v36q-29 -35 -90 -35q-110 0 -110 110v35q0 45 28.5 70t85.5 40l86 18v78q-2 46 -68 46q-54 0 -113 -17v60q54 17 115 17z" />
    <glyph glyph-name="guillemotleft" unicode="&#xab;" horiz-adv-x="516" 
d="M182 505h95l-122 -183l122 -183h-95l-121 183zM376 505h96l-122 -183l122 -183h-96l-121 183z" />
    <glyph glyph-name="logicalnot" unicode="&#xac;" horiz-adv-x="478" 
d="M61 375h355v-188h-96v104h-259v84z" />
    <glyph glyph-name="uni00AD" unicode="&#xad;" horiz-adv-x="253" 
d="M40 367h178v-80h-178v80z" />
    <glyph glyph-name="registered" unicode="&#xae;" horiz-adv-x="539" 
d="M124 689.5q46 55.5 164.5 55.5t163.5 -55t45 -168t-45.5 -168t-164.5 -55t-164 54.5t-45 167.5t46 168.5zM202.5 356q31.5 -10 84 -10t84.5 10t48 34.5t21 53t5 78t-5 78.5t-21 53.5t-47.5 34.5t-84.5 10t-85 -10t-47.5 -35t-20 -53.5t-4.5 -78t4.5 -78t20.5 -53
t47.5 -34.5zM209 656h75q93 0 93 -82q0 -54 -34 -74l45 -109h-54l-36 97q-5 -1 -15 -1h-24v-96h-50v265zM259 529h20q28 0 39 9t11 35.5t-10 33.5t-34 7h-26v-85z" />
    <glyph glyph-name="macron" unicode="&#xaf;" horiz-adv-x="350" 
d="M57 701h235v-56h-235v56z" />
    <glyph glyph-name="degree" unicode="&#xb0;" horiz-adv-x="391" 
d="M268 657q0 41 -15 62t-56 21t-56 -21t-15 -62t15 -62t56 -21t56 21t15 62zM84.5 544q-35.5 42 -35.5 113.5t35.5 113.5t112.5 42t112.5 -42t35.5 -113.5t-35.5 -113.5t-112.5 -42t-112.5 42z" />
    <glyph glyph-name="plusminus" unicode="&#xb1;" horiz-adv-x="455" 
d="M273 367h143v-80h-143v-125h-87v125h-143v80h143v125h87v-125zM43 30v79h373v-79h-373z" />
    <glyph glyph-name="twosuperior" unicode="&#xb2;" horiz-adv-x="294" 
d="M145 745q122 0 122 -106v-31q0 -36 -12.5 -59.5t-42.5 -44.5l-65 -46q-36 -25 -44 -37.5t-8 -41.5v-30h173v-60h-237v92q0 43 15 67.5t54 50.5l70 47q21 15 27 29.5t6 40.5v22q0 24 -13 35.5t-56.5 11.5t-91.5 -11v60q36 11 103 11z" />
    <glyph glyph-name="threesuperior" unicode="&#xb3;" horiz-adv-x="301" 
d="M135 745q120 0 123 -103v-45q0 -59 -41 -79q41 -19 41 -79v-49q0 -105 -124 -105q-64 0 -104 11v60q51 -12 93.5 -12t56 11.5t13.5 35.5v48q0 24 -10 36t-42 13h-46v59h46q31 0 41.5 13t10.5 37v41q0 24 -13 35.5t-56.5 11.5t-86.5 -10v60q40 10 98 10z" />
    <glyph glyph-name="acute" unicode="&#xb4;" horiz-adv-x="350" 
d="M155 728h80l-64 -109h-56z" />
    <glyph glyph-name="uni00B5" unicode="&#xb5;" horiz-adv-x="458" 
d="M154 98q24 -14 49 -14t36 2t19.5 4.5t17 6t26.5 13.5v465h94v-575h-89v27q-44 -25 -85.5 -26t-67.5 7v-158h-95v725h95v-477z" />
    <glyph glyph-name="paragraph" unicode="&#xb6;" horiz-adv-x="421" 
d="M228 678h126v-677h-95v375h-31q-81 0 -123.5 40t-42.5 111t43 111t123 40z" />
    <glyph glyph-name="periodcentered" unicode="&#xb7;" horiz-adv-x="236" 
d="M67 344.5q0 51.5 51.5 51.5t51.5 -51.5t-51.5 -51.5t-51.5 51.5z" />
    <glyph glyph-name="cedilla" unicode="&#xb8;" horiz-adv-x="350" 
d="M227 -58.5q19 -16.5 19 -51t-25.5 -54.5t-60 -20t-57.5 6v48q16 -7 40 -7q46 0 46 33q0 31 -47 33h-13l17 77h45l-10 -46q27 -2 46 -18.5z" />
    <glyph glyph-name="onesuperior" unicode="&#xb9;" horiz-adv-x="220" 
d="M172 739v-450h-63v383l-91 -69v73l84 63h70z" />
    <glyph glyph-name="ordmasculine" unicode="&#xba;" horiz-adv-x="331" 
d="M172 685q-62 0 -62 -44v-249q0 -24 14 -35.5t48 -11.5t48 11.5t14 35.5v249q-1 22 -15 33t-47 11zM45 637q0 108 126.5 108t126.5 -108v-244q0 -108 -126.5 -108t-126.5 108v244z" />
    <glyph glyph-name="guillemotright" unicode="&#xbb;" horiz-adv-x="514" 
d="M37 505h96l121 -183l-121 -183h-96l122 183zM232 505h96l121 -183l-121 -183h-96l122 183z" />
    <glyph glyph-name="onequarter" unicode="&#xbc;" horiz-adv-x="799" 
d="M504 678h65l-354 -678h-65zM634 149v249l-116 -249h116zM697 451v-302h47v-57h-47v-92h-63v92h-177v60l141 299h99zM194 678v-451h-63v383l-91 -69v74l84 63h70z" />
    <glyph glyph-name="onehalf" unicode="&#xbd;" horiz-adv-x="797" 
d="M504 678h65l-354 -678h-65zM194 678v-450h-63v383l-91 -69v73l84 63h70zM611 456q122 0 122 -106v-31q0 -36 -12.5 -59.5t-42.5 -44.5l-65 -46q-36 -25 -44 -37.5t-8 -41.5v-30h173v-60h-237v92q0 43 15 67.5t54 50.5l70 47q21 15 27 29.5t6 40.5v22q0 24 -13 35.5
t-56.5 11.5t-91.5 -11v60q36 11 103 11z" />
    <glyph glyph-name="threequarters" unicode="&#xbe;" horiz-adv-x="834" 
d="M145 683q120 0 123 -102v-45q0 -60 -41 -79q41 -19 41 -79v-49q0 -51 -31.5 -78.5t-92 -27.5t-104.5 12v60q55 -13 95.5 -13t54 12t13.5 36v48q0 24 -10 36t-42 13h-47v59h47q31 0 41.5 13t10.5 37v40q0 25 -13 36.5t-56.5 11.5t-86.5 -10v60q36 9 98 9zM549 678h65
l-353 -678h-66zM668 149v249l-116 -249h116zM731 451v-302h47v-57h-47v-92h-63v92h-177v60l141 299h99z" />
    <glyph glyph-name="questiondown" unicode="&#xbf;" horiz-adv-x="392" 
d="M284 527q0 -55 -55 -55t-55 55t55 55t55 -55zM221 -113q-189 0 -189 149v94q0 73 35 114t118 42l5 102h79l5 -176h-56q-50 0 -72 -20.5t-22 -62.5v-86q0 -36 20.5 -52.5t83 -16.5t117.5 19v-90q-55 -16 -124 -16z" />
    <glyph glyph-name="Agrave" unicode="&#xc0;" horiz-adv-x="453" 
d="M347 0l-37 180h-168l-37 -180h-92l148 678h132l146 -678h-92zM158 261h135l-68 329zM250 719h-56l-64 109h80z" />
    <glyph glyph-name="Aacute" unicode="&#xc1;" horiz-adv-x="453" 
d="M347 0l-37 180h-168l-37 -180h-92l148 678h132l146 -678h-92zM158 261h135l-68 329zM316 828l-64 -109h-56l40 109h80z" />
    <glyph glyph-name="Acircumflex" unicode="&#xc2;" horiz-adv-x="453" 
d="M347 0l-37 180h-168l-37 -180h-92l148 678h132l146 -678h-92zM158 261h135l-68 329zM229 779l-38 -60h-52l53 109h73l53 -109h-52z" />
    <glyph glyph-name="Atilde" unicode="&#xc3;" horiz-adv-x="453" 
d="M347 0l-37 180h-168l-37 -180h-92l148 678h132l146 -678h-92zM158 261h135l-68 329zM156 734v-9h-59v10q2 84 74 84q28 0 62 -20t44 -20q22 0 22 33v9h59v-11q-2 -83 -73 -83q-26 0 -60 20t-47 20q-22 0 -22 -33z" />
    <glyph glyph-name="Adieresis" unicode="&#xc4;" horiz-adv-x="453" 
d="M347 0l-37 180h-168l-37 -180h-92l148 678h132l146 -678h-92zM158 261h135l-68 329zM152 730q-44 0 -44 42.5t44 42.5t44 -42.5t-44 -42.5zM298 730q-44 0 -44 42.5t44 42.5t44 -42.5t-44 -42.5z" />
    <glyph glyph-name="Aring" unicode="&#xc5;" horiz-adv-x="453" 
d="M347 0l-37 180h-168l-37 -180h-92l148 678h132l146 -678h-92zM158 261h135l-68 329zM281 719.5q-20 -21.5 -55.5 -21.5t-56 21.5t-20.5 54t20 53t56 20.5t56 -20.5t20 -53t-20 -54zM225 806q-15 0 -24 -9t-9 -24t9 -24.5t24 -9.5t24 9.5t9 24.5t-9 24t-24 9z" />
    <glyph glyph-name="AE" unicode="&#xc6;" horiz-adv-x="679" 
d="M659 595h-215v-211h187v-83h-187v-219h215v-82h-305v180h-179l-75 -180h-94l292 678h361v-83zM354 261v352l-146 -352h146z" />
    <glyph glyph-name="Ccedilla" unicode="&#xc7;" horiz-adv-x="399" 
d="M285 -58.5q19 -16.5 19 -51t-25.5 -54.5t-60 -20t-57.5 6v48q16 -7 40 -7q46 0 46 33q0 31 -47 33h-13l15 68q-150 16 -150 148v388q0 71 48 110.5t145 39.5q64 0 118 -15v-87q-59 17 -116 17t-78.5 -18t-21.5 -54v-375q0 -35 22 -53t81 -18t116 16v-85q-50 -16 -119 -16
l-8 -35q27 -2 46 -18.5z" />
    <glyph glyph-name="Egrave" unicode="&#xc8;" horiz-adv-x="404" 
d="M126 828h80l40 -109h-56zM62 678h309v-83h-215v-211h187v-83h-187v-219h215v-82h-309v678z" />
    <glyph glyph-name="Eacute" unicode="&#xc9;" horiz-adv-x="404" 
d="M62 678h309v-83h-215v-211h187v-83h-187v-219h215v-82h-309v678zM228 828h80l-64 -109h-56z" />
    <glyph glyph-name="Ecircumflex" unicode="&#xca;" horiz-adv-x="404" 
d="M371 595h-215v-211h187v-83h-187v-219h215v-82h-309v678h309v-83zM211 779l-38 -60h-52l53 109h73l53 -109h-52z" />
    <glyph glyph-name="Edieresis" unicode="&#xcb;" horiz-adv-x="404" 
d="M62 678h309v-83h-215v-211h187v-83h-187v-219h215v-82h-309v678zM291 730q-44 0 -44 42.5t44 42.5t44 -42.5t-44 -42.5zM145 730q-44 0 -44 42.5t44 42.5t44 -42.5t-44 -42.5z" />
    <glyph glyph-name="Igrave" unicode="&#xcc;" horiz-adv-x="404" 
d="M125 828h80l40 -109h-56zM62 678h309v-83h-215v-211h187v-83h-187v-219h215v-82h-309v678z" />
    <glyph glyph-name="Iacute" unicode="&#xcd;" horiz-adv-x="404" 
d="M62 678h309v-83h-215v-211h187v-83h-187v-219h215v-82h-309v678zM228 828h80l-64 -109h-56z" />
    <glyph glyph-name="Icircumflex" unicode="&#xce;" horiz-adv-x="218" 
d="M62 0v678h95v-678h-95zM113 779l-38 -60h-52l53 109h73l53 -109h-52z" />
    <glyph glyph-name="Idieresis" unicode="&#xcf;" horiz-adv-x="218" 
d="M181 730q-44 0 -44 42.5t44 42.5t44 -42.5t-44 -42.5zM35 730q-44 0 -44 42.5t44 42.5t44 -42.5t-44 -42.5zM62 678h95v-678h-95v678z" />
    <glyph glyph-name="Eth" unicode="&#xd0;" horiz-adv-x="476" 
d="M66 678h196q80 0 122 -40t42 -112v-370q0 -73 -39.5 -114.5t-120.5 -41.5h-200v293h-71v80h71v305zM332 161v362q0 76 -79 76h-93v-226h93v-80h-93v-211h93q79 0 79 79z" />
    <glyph glyph-name="Ntilde" unicode="&#xd1;" horiz-adv-x="509" 
d="M333 821h59v-11q-2 -83 -73 -83q-26 0 -60 20t-47 20q-22 0 -22 -33v-9h-59v10q2 84 74 84q28 0 62 -20t44 -20q22 0 22 33v9zM354 678h93v-678h-100q-157 401 -205 532q0 -11 4 -46q8 -87 8 -193v-293h-92v678h101q139 -352 169 -436t34 -95q0 9 -5.5 88.5t-6.5 153.5
v289z" />
    <glyph glyph-name="Ograve" unicode="&#xd2;" horiz-adv-x="466" 
d="M136 828h80l40 -109h-56zM320 520q0 82 -87 82t-87 -82v-362q0 -83 87 -83t87 83v362zM52 523q0 75 45.5 120t135 45t135.5 -45.5t46 -119.5v-369q0 -74 -46 -119t-135 -45t-135 45t-46 119v369z" />
    <glyph glyph-name="Oacute" unicode="&#xd3;" horiz-adv-x="466" 
d="M320 520q0 82 -87 82t-87 -82v-362q0 -83 87 -83t87 83v362zM52 523q0 75 45.5 120t135 45t135.5 -45.5t46 -119.5v-369q0 -74 -46 -119t-135 -45t-135 45t-46 119v369zM248 828h80l-64 -109h-56z" />
    <glyph glyph-name="Ocircumflex" unicode="&#xd4;" horiz-adv-x="466" 
d="M52 154v369q0 75 45.5 120t135 45t135.5 -45.5t46 -119.5v-369q0 -74 -46 -119t-135 -45t-135 45t-46 119zM320 158v362q0 82 -87 82t-87 -82v-362q0 -83 87 -83t87 83zM234 779l-38 -60h-52l53 109h73l53 -109h-52z" />
    <glyph glyph-name="Otilde" unicode="&#xd5;" horiz-adv-x="466" 
d="M304 821h59v-11q-2 -83 -73 -83q-26 0 -60 20t-47 20q-22 0 -22 -33v-9h-59v10q2 84 74 84q28 0 62 -20t44 -20q22 0 22 33v9zM320 520q0 82 -87 82t-87 -82v-362q0 -83 87 -83t87 83v362zM52 523q0 75 45.5 120t135 45t135.5 -45.5t46 -119.5v-369q0 -74 -46 -119
t-135 -45t-135 45t-46 119v369z" />
    <glyph glyph-name="Odieresis" unicode="&#xd6;" horiz-adv-x="466" 
d="M320 520q0 82 -87 82t-87 -82v-362q0 -83 87 -83t87 83v362zM52 523q0 75 45.5 120t135 45t135.5 -45.5t46 -119.5v-369q0 -74 -46 -119t-135 -45t-135 45t-46 119v369zM306 730q-44 0 -44 42.5t44 42.5t44 -42.5t-44 -42.5zM160 730q-44 0 -44 42.5t44 42.5t44 -42.5
t-44 -42.5z" />
    <glyph glyph-name="multiply" unicode="&#xd7;" horiz-adv-x="409" 
d="M375 213l-57 -56l-114 114l-114 -114l-56 56l114 114l-114 114l57 56l113 -113l113 113l57 -56l-113 -113z" />
    <glyph glyph-name="Oslash" unicode="&#xd8;" horiz-adv-x="466" 
d="M414 523v-369q0 -74 -46 -119t-135 -45q-67 0 -111 27l-8 -17h-64l27 60q-25 38 -25 94v369q0 75 45.5 120t135.5 45q67 0 111 -27l8 17h64l-27 -61q25 -38 25 -94zM146 520v-304l159 357q-21 29 -72 29q-87 0 -87 -82zM320 158v304l-159 -357q21 -30 72 -30q87 0 87 83z
" />
    <glyph glyph-name="Ugrave" unicode="&#xd9;" horiz-adv-x="474" 
d="M145 828h80l40 -109h-56zM323 678h94v-524q0 -74 -45.5 -119t-134.5 -45t-134.5 45t-45.5 119v524h94v-520q0 -83 86 -83t86 83v520z" />
    <glyph glyph-name="Uacute" unicode="&#xda;" horiz-adv-x="474" 
d="M323 678h94v-524q0 -74 -45.5 -119t-134.5 -45t-134.5 45t-45.5 119v524h94v-520q0 -83 86 -83t86 83v520zM249 828h80l-64 -109h-56z" />
    <glyph glyph-name="Ucircumflex" unicode="&#xdb;" horiz-adv-x="474" 
d="M323 678h94v-524q0 -74 -45.5 -119t-134.5 -45t-134.5 45t-45.5 119v524h94v-520q0 -83 86 -83t86 83v520zM237 779l-38 -60h-52l53 109h73l53 -109h-52z" />
    <glyph glyph-name="Udieresis" unicode="&#xdc;" horiz-adv-x="474" 
d="M323 678h94v-524q0 -74 -45.5 -119t-134.5 -45t-134.5 45t-45.5 119v524h94v-520q0 -83 86 -83t86 83v520zM309 730q-44 0 -44 42.5t44 42.5t44 -42.5t-44 -42.5zM163 730q-44 0 -44 42.5t44 42.5t44 -42.5t-44 -42.5z" />
    <glyph glyph-name="Yacute" unicode="&#xdd;" horiz-adv-x="430" 
d="M225 828h80l-64 -109h-56zM263 0h-95v223l-165 455h97l57 -160q31 -90 60 -191q28 98 59 191l57 160h95l-165 -455v-223z" />
    <glyph glyph-name="Thorn" unicode="&#xde;" horiz-adv-x="436" 
d="M163 562h85q81 0 123.5 -40t42.5 -112v-142q0 -71 -43 -111.5t-123 -40.5h-85v-116h-91v678h91v-116zM323 275v128q0 77 -80 77h-80v-281h80q80 0 80 76z" />
    <glyph glyph-name="germandbls" unicode="&#xdf;" horiz-adv-x="546" 
d="M62 542q0 86 49 131.5t138.5 45.5t139 -42.5t49.5 -116.5q0 -41 -19 -74.5t-37.5 -58t-18.5 -43.5v-11q0 -20 17 -38.5t60.5 -44t64.5 -53t21 -67.5v-29q0 -145 -185 -145q-60 0 -114 15v86q49 -17 106 -17t79.5 17t22.5 50v15q0 24 -15.5 42t-60.5 44t-68 52t-23 64v15
q0 38 38.5 89t38.5 88q0 79 -91 79q-53 0 -77.5 -24t-24.5 -75v-536h-90v542z" />
    <glyph glyph-name="agrave" unicode="&#xe0;" horiz-adv-x="429" 
d="M117 728h80l40 -109h-56zM121 165v-30q0 -33 15.5 -49t61 -16t83.5 31v167l-95 -26q-39 -11 -52 -27.5t-13 -49.5zM56 561q57 19 145 19q171 0 171 -155v-425h-90v41q-44 -44 -116 -44q-138 0 -138 139v33q0 56 29 90.5t93 52.5l131 36v77q0 37 -20 53.5t-84.5 16.5
t-120.5 -20v86z" />
    <glyph glyph-name="aacute" unicode="&#xe1;" horiz-adv-x="429" 
d="M217 728h80l-64 -109h-56zM121 165v-30q0 -33 15.5 -49t61 -16t83.5 31v167l-95 -26q-39 -11 -52 -27.5t-13 -49.5zM56 561q57 19 145 19q171 0 171 -155v-425h-90v41q-44 -44 -116 -44q-138 0 -138 139v33q0 56 29 90.5t93 52.5l131 36v77q0 37 -20 53.5t-84.5 16.5
t-120.5 -20v86z" />
    <glyph glyph-name="acircumflex" unicode="&#xe2;" horiz-adv-x="429" 
d="M56 561q57 19 145 19q171 0 171 -155v-425h-90v41q-44 -44 -116 -44q-138 0 -138 139v33q0 56 29 90.5t93 52.5l131 36v77q0 37 -20 53.5t-84.5 16.5t-120.5 -20v86zM121 165v-30q0 -33 15.5 -49t61 -16t83.5 31v167l-95 -26q-39 -11 -52 -27.5t-13 -49.5zM215 679
l-38 -60h-52l53 109h73l53 -109h-52z" />
    <glyph glyph-name="atilde" unicode="&#xe3;" horiz-adv-x="429" 
d="M283 721h59v-11q-2 -83 -73 -83q-26 0 -60 20t-47 20q-22 0 -22 -33v-9h-59v10q2 84 74 84q28 0 62 -20t44 -20q22 0 22 33v9zM121 165v-30q0 -33 15.5 -49t61 -16t83.5 31v167l-95 -26q-39 -11 -52 -27.5t-13 -49.5zM56 561q57 19 145 19q171 0 171 -155v-425h-90v41
q-44 -44 -116 -44q-138 0 -138 139v33q0 56 29 90.5t93 52.5l131 36v77q0 37 -20 53.5t-84.5 16.5t-120.5 -20v86z" />
    <glyph glyph-name="adieresis" unicode="&#xe4;" horiz-adv-x="429" 
d="M283 630q-44 0 -44 42.5t44 42.5t44 -42.5t-44 -42.5zM137 630q-44 0 -44 42.5t44 42.5t44 -42.5t-44 -42.5zM121 165v-30q0 -33 15.5 -49t61 -16t83.5 31v167l-95 -26q-39 -11 -52 -27.5t-13 -49.5zM56 561q57 19 145 19q171 0 171 -155v-425h-90v41q-44 -44 -116 -44
q-138 0 -138 139v33q0 56 29 90.5t93 52.5l131 36v77q0 37 -20 53.5t-84.5 16.5t-120.5 -20v86z" />
    <glyph glyph-name="aring" unicode="&#xe5;" horiz-adv-x="429" 
d="M242 673q0 15 -9 24t-24 9t-24 -9t-9 -24t9 -24.5t24 -9.5t24 9.5t9 24.5zM153.5 619.5q-20.5 21.5 -20.5 54t20 53t56 20.5t56 -20.5t20 -53t-20 -54t-55.5 -21.5t-56 21.5zM121 165v-30q0 -33 15.5 -49t61 -16t83.5 31v167l-95 -26q-39 -11 -52 -27.5t-13 -49.5z
M56 561q57 19 145 19q171 0 171 -155v-425h-90v41q-44 -44 -116 -44q-138 0 -138 139v33q0 56 29 90.5t93 52.5l131 36v77q0 37 -20 53.5t-84.5 16.5t-120.5 -20v86z" />
    <glyph glyph-name="ae" unicode="&#xe6;" horiz-adv-x="651" 
d="M531 427q0 78 -80 78t-80 -78v-106h160v106zM121 165v-30q0 -65 68 -65q56 0 93 29v170l-96 -26q-38 -11 -51.5 -28t-13.5 -50zM325 539q48 46 130.5 46t123.5 -42.5t41 -114.5v-183h-249v-88q0 -41 26.5 -59.5t87.5 -18.5t119 18v-86q-60 -16 -128 -16q-103 0 -149 43
q-53 -42 -152 -42q-145 0 -145 139v34q0 56 28.5 90.5t91.5 53.5l131 38l-1 78q0 33 -19.5 49.5t-85.5 16.5t-119 -21v87q59 19 143.5 19t125.5 -41z" />
    <glyph glyph-name="ccedilla" unicode="&#xe7;" horiz-adv-x="372" 
d="M269 -58.5q19 -16.5 19 -51t-25.5 -54.5t-60 -20t-57.5 6v48q16 -7 40 -7q46 0 46 33q0 31 -47 33h-13l15 68q-134 17 -134 150v281q0 152 176 152q63 0 112 -14v-87q-50 14 -101.5 14t-72 -17t-20.5 -54v-270q0 -37 20.5 -54t73.5 -17t101 16v-88q-58 -14 -110 -14
l-8 -35q27 -2 46 -18.5z" />
    <glyph glyph-name="egrave" unicode="&#xe8;" horiz-adv-x="435" 
d="M52 152v276q0 72 42 114.5t128 42.5t127 -42.5t41 -114.5v-183h-246v-88q0 -40 24.5 -59t86 -19t119.5 18v-86q-60 -16 -128 -16q-194 0 -194 157zM144 321h157v106q0 78 -78.5 78t-78.5 -78v-106zM255 619h-56l-64 109h80z" />
    <glyph glyph-name="eacute" unicode="&#xe9;" horiz-adv-x="435" 
d="M52 152v276q0 72 42 114.5t128 42.5t127 -42.5t41 -114.5v-183h-246v-88q0 -40 24.5 -59t86 -19t119.5 18v-86q-60 -16 -128 -16q-194 0 -194 157zM144 321h157v106q0 78 -78.5 78t-78.5 -78v-106zM316 728l-64 -109h-56l40 109h80z" />
    <glyph glyph-name="ecircumflex" unicode="&#xea;" horiz-adv-x="435" 
d="M52 152v276q0 72 42 114.5t128 42.5t127 -42.5t41 -114.5v-183h-246v-88q0 -40 24.5 -59t86 -19t119.5 18v-86q-60 -16 -128 -16q-194 0 -194 157zM144 321h157v106q0 78 -78.5 78t-78.5 -78v-106zM228 679l-38 -60h-52l53 109h73l53 -109h-52z" />
    <glyph glyph-name="edieresis" unicode="&#xeb;" horiz-adv-x="435" 
d="M52 152v276q0 72 42 114.5t128 42.5t127 -42.5t41 -114.5v-183h-246v-88q0 -40 24.5 -59t86 -19t119.5 18v-86q-60 -16 -128 -16q-194 0 -194 157zM144 321h157v106q0 78 -78.5 78t-78.5 -78v-106zM152 630q-44 0 -44 42.5t44 42.5t44 -42.5t-44 -42.5zM298 630
q-44 0 -44 42.5t44 42.5t44 -42.5t-44 -42.5z" />
    <glyph glyph-name="igrave" unicode="&#xec;" horiz-adv-x="218" 
d="M14 728h80l40 -109h-56zM62 568h94v-568h-94v568z" />
    <glyph glyph-name="iacute" unicode="&#xed;" horiz-adv-x="218" 
d="M120 728h80l-64 -109h-56zM62 568h94v-568h-94v568z" />
    <glyph glyph-name="icircumflex" unicode="&#xee;" horiz-adv-x="218" 
d="M62 0v568h94v-568h-94zM110 679l-38 -60h-52l53 109h73l53 -109h-52z" />
    <glyph glyph-name="idieresis" unicode="&#xef;" horiz-adv-x="218" 
d="M182 630q-44 0 -44 42.5t44 42.5t44 -42.5t-44 -42.5zM36 630q-44 0 -44 42.5t44 42.5t44 -42.5t-44 -42.5zM62 568h94v-568h-94v568z" />
    <glyph glyph-name="eth" unicode="&#xf0;" horiz-adv-x="453" 
d="M397 308v-158q0 -73 -43 -115.5t-128 -42.5t-127 42.5t-42 115.5v150q0 150 149 150q54 0 85 -33q-17 68 -58 135l-108 -52v58l80 38q-28 39 -68 82h113q21 -23 35 -44l100 48v-57l-72 -34q84 -139 84 -283zM305 152v198q-23 25 -72 25t-67 -19t-18 -58v-145
q0 -78 78.5 -78t78.5 77z" />
    <glyph glyph-name="ntilde" unicode="&#xf1;" horiz-adv-x="455" 
d="M301 721h59v-11q-2 -83 -73 -83q-26 0 -60 20t-47 20q-22 0 -22 -33v-9h-59v10q2 84 74 84q28 0 62 -20t44 -20q22 0 22 33v9zM152 549q64 28 119.5 28t91 -33.5t35.5 -96.5v-447h-96v431q0 59 -59 59q-43 0 -87 -22v-468h-94v575h90v-26z" />
    <glyph glyph-name="ograve" unicode="&#xf2;" horiz-adv-x="444" 
d="M135 728h80l40 -109h-56zM299 426q0 77 -77 77t-77 -77v-277q0 -77 77 -77t77 77v277zM52 428q0 72 42 114.5t128 42.5t128.5 -42.5t42.5 -114.5v-281q0 -72 -42.5 -114.5t-128.5 -42.5t-128 42.5t-42 114.5v281z" />
    <glyph glyph-name="oacute" unicode="&#xf3;" horiz-adv-x="444" 
d="M299 426q0 77 -77 77t-77 -77v-277q0 -77 77 -77t77 77v277zM52 428q0 72 42 114.5t128 42.5t128.5 -42.5t42.5 -114.5v-281q0 -72 -42.5 -114.5t-128.5 -42.5t-128 42.5t-42 114.5v281zM238 728h80l-64 -109h-56z" />
    <glyph glyph-name="ocircumflex" unicode="&#xf4;" horiz-adv-x="444" 
d="M52 147v281q0 72 42 114.5t128 42.5t128.5 -42.5t42.5 -114.5v-281q0 -72 -42.5 -114.5t-128.5 -42.5t-128 42.5t-42 114.5zM299 149v277q0 77 -77 77t-77 -77v-277q0 -77 77 -77t77 77zM226 679l-38 -60h-52l53 109h73l53 -109h-52z" />
    <glyph glyph-name="otilde" unicode="&#xf5;" horiz-adv-x="444" 
d="M297 721h59v-11q-2 -83 -73 -83q-26 0 -60 20t-47 20q-22 0 -22 -33v-9h-59v10q2 84 74 84q28 0 62 -20t44 -20q22 0 22 33v9zM299 426q0 77 -77 77t-77 -77v-277q0 -77 77 -77t77 77v277zM52 428q0 72 42 114.5t128 42.5t128.5 -42.5t42.5 -114.5v-281
q0 -72 -42.5 -114.5t-128.5 -42.5t-128 42.5t-42 114.5v281z" />
    <glyph glyph-name="odieresis" unicode="&#xf6;" horiz-adv-x="444" 
d="M299 426q0 77 -77 77t-77 -77v-277q0 -77 77 -77t77 77v277zM52 428q0 72 42 114.5t128 42.5t128.5 -42.5t42.5 -114.5v-281q0 -72 -42.5 -114.5t-128.5 -42.5t-128 42.5t-42 114.5v281zM301 630q-44 0 -44 42.5t44 42.5t44 -42.5t-44 -42.5zM155 630q-44 0 -44 42.5
t44 42.5t44 -42.5t-44 -42.5z" />
    <glyph glyph-name="divide" unicode="&#xf7;" horiz-adv-x="455" 
d="M177 496.5q0 51.5 51.5 51.5t51.5 -51.5t-51.5 -51.5t-51.5 51.5zM177 153.5q0 51.5 51.5 51.5t51.5 -51.5t-51.5 -51.5t-51.5 51.5zM40 365h374v-79h-374v79z" />
    <glyph glyph-name="oslash" unicode="&#xf8;" horiz-adv-x="444" 
d="M393 428v-281q0 -72 -42.5 -114.5t-120.5 -42.5t-119 29l-10 -19h-52l28 53q-25 38 -25 94v281q0 72 42 114.5t121.5 42.5t122.5 -32l11 22h52l-30 -58q22 -37 22 -89zM145 426v-242l147 282q-16 37 -70 37q-77 0 -77 -77zM299 149v231l-144 -276q18 -32 67 -32
q77 0 77 77z" />
    <glyph glyph-name="ugrave" unicode="&#xf9;" horiz-adv-x="456" 
d="M129 728h80l40 -109h-56zM218 83q42 0 82 25v467h95v-575h-90v27q-52 -29 -115 -29t-98 36t-35 104v437h95v-424q0 -68 66 -68z" />
    <glyph glyph-name="uacute" unicode="&#xfa;" horiz-adv-x="456" 
d="M218 83q42 0 82 25v467h95v-575h-90v27q-52 -29 -115 -29t-98 36t-35 104v437h95v-424q0 -68 66 -68zM239 728h80l-64 -109h-56z" />
    <glyph glyph-name="ucircumflex" unicode="&#xfb;" horiz-adv-x="456" 
d="M218 83q42 0 82 25v467h95v-575h-90v27q-52 -29 -115 -29t-98 36t-35 104v437h95v-424q0 -68 66 -68zM228 679l-38 -60h-52l53 109h73l53 -109h-52z" />
    <glyph glyph-name="udieresis" unicode="&#xfc;" horiz-adv-x="456" 
d="M218 83q42 0 82 25v467h95v-575h-90v27q-52 -29 -115 -29t-98 36t-35 104v437h95v-424q0 -68 66 -68zM301 630q-44 0 -44 42.5t44 42.5t44 -42.5t-44 -42.5zM155 630q-44 0 -44 42.5t44 42.5t44 -42.5t-44 -42.5z" />
    <glyph glyph-name="yacute" unicode="&#xfd;" horiz-adv-x="405" 
d="M211 728h80l-64 -109h-56zM297 575h93l-151 -724h-91l30 149h-40l-122 575h94q77 -377 93 -505q16 119 42 250z" />
    <glyph glyph-name="thorn" unicode="&#xfe;" horiz-adv-x="457" 
d="M305 432q0 59 -61 59q-40 0 -88 -22v-384h72q77 0 77 72v275zM62 728h94v-177q57 26 115 26t93.5 -33t35.5 -97v-298q0 -72 -40.5 -110.5t-108.5 -38.5h-95v-169h-94v897z" />
    <glyph glyph-name="ydieresis" unicode="&#xff;" horiz-adv-x="405" 
d="M297 575h93l-151 -724h-91l30 149h-40l-122 575h94q77 -377 93 -505q16 119 42 250zM275 630q-44 0 -44 42.5t44 42.5t44 -42.5t-44 -42.5zM129 630q-44 0 -44 42.5t44 42.5t44 -42.5t-44 -42.5z" />
    <glyph glyph-name="Amacron" unicode="&#x100;" horiz-adv-x="453" 
d="M347 0l-37 180h-168l-37 -180h-92l148 678h132l146 -678h-92zM158 261h135l-68 329zM342 801v-56h-235v56h235z" />
    <glyph glyph-name="amacron" unicode="&#x101;" horiz-adv-x="429" 
d="M94 701h235v-56h-235v56zM121 165v-30q0 -33 15.5 -49t61 -16t83.5 31v167l-95 -26q-39 -11 -52 -27.5t-13 -49.5zM56 561q57 19 145 19q171 0 171 -155v-425h-90v41q-44 -44 -116 -44q-138 0 -138 139v33q0 56 29 90.5t93 52.5l131 36v77q0 37 -20 53.5t-84.5 16.5
t-120.5 -20v86z" />
    <glyph glyph-name="Abreve" unicode="&#x102;" horiz-adv-x="453" 
d="M347 0l-37 180h-168l-37 -180h-92l148 678h132l146 -678h-92zM158 261h135l-68 329zM225 719q-51 0 -81.5 30.5t-31.5 78.5h58q1 -26 15 -41.5t40 -15.5t40 15.5t15 41.5h58q-1 -48 -31.5 -78.5t-81.5 -30.5z" />
    <glyph glyph-name="abreve" unicode="&#x103;" horiz-adv-x="429" 
d="M212 619q-51 0 -81.5 30.5t-31.5 78.5h58q1 -26 15 -41.5t40 -15.5t40 15.5t15 41.5h58q-1 -48 -31.5 -78.5t-81.5 -30.5zM121 165v-30q0 -33 15.5 -49t61 -16t83.5 31v167l-95 -26q-39 -11 -52 -27.5t-13 -49.5zM56 561q57 19 145 19q171 0 171 -155v-425h-90v41
q-44 -44 -116 -44q-138 0 -138 139v33q0 56 29 90.5t93 52.5l131 36v77q0 37 -20 53.5t-84.5 16.5t-120.5 -20v86z" />
    <glyph glyph-name="Aogonek" unicode="&#x104;" horiz-adv-x="453" 
d="M392 -93q0 -36 34 -36h12v-54h-17q-86 0 -86 71q0 64 62 112h-50l-37 180h-168l-37 -180h-92l148 678h132l146 -678h-1q-46 -39 -46 -93zM158 261h135l-68 329z" />
    <glyph glyph-name="aogonek" unicode="&#x105;" horiz-adv-x="429" 
d="M56 561q57 19 145 19q171 0 171 -155v-425h-1q-46 -39 -46 -93q0 -36 34 -36h12v-54h-17q-86 0 -86 71q0 64 62 112h-48v41q-44 -44 -116 -44q-138 0 -138 139v33q0 56 29 90.5t93 52.5l131 36v77q0 37 -20 53.5t-84.5 16.5t-120.5 -20v86zM121 165v-30q0 -33 15.5 -49
t61 -16t83.5 31v167l-95 -26q-39 -11 -52 -27.5t-13 -49.5z" />
    <glyph glyph-name="Cacute" unicode="&#x106;" horiz-adv-x="399" 
d="M52 533q0 71 48 110.5t145 39.5q64 0 118 -15v-87q-59 17 -116 17t-78.5 -18t-21.5 -54v-375q0 -35 22 -53t81 -18t116 16v-85q-52 -16 -122 -16q-192 0 -192 150v388zM244 828h80l-64 -109h-56z" />
    <glyph glyph-name="cacute" unicode="&#x107;" horiz-adv-x="372" 
d="M52 428q0 152 176 152q63 0 112 -14v-87q-50 14 -101.5 14t-72 -17t-20.5 -54v-270q0 -37 20.5 -54t73.5 -17t101 16v-88q-58 -14 -113 -14q-176 0 -176 152v281zM238 728h80l-64 -109h-56z" />
    <glyph glyph-name="Ccaron" unicode="&#x10c;" horiz-adv-x="399" 
d="M147 526v-375q0 -35 22 -53t81 -18t116 16v-85q-52 -16 -122 -16q-192 0 -192 150v388q0 71 48 110.5t145 39.5q64 0 118 -15v-87q-59 17 -116 17t-78.5 -18t-21.5 -54zM195 719l-53 109h52l38 -60l37 60h52l-53 -109h-73z" />
    <glyph glyph-name="ccaron" unicode="&#x10d;" horiz-adv-x="372" 
d="M146 422v-270q0 -37 20.5 -54t73.5 -17t101 16v-88q-58 -14 -113 -14q-176 0 -176 152v281q0 152 176 152q63 0 112 -14v-87q-50 14 -101.5 14t-72 -17t-20.5 -54zM186 619l-53 109h52l38 -60l37 60h52l-53 -109h-73z" />
    <glyph glyph-name="Dcaron" unicode="&#x10e;" horiz-adv-x="473" 
d="M62 678h196q80 0 122 -40t42 -112v-370q0 -73 -39.5 -114.5t-120.5 -41.5h-200v678zM328 161v362q0 76 -79 76h-93v-517h93q79 0 79 79zM191 719l-53 109h52l38 -60l37 60h52l-53 -109h-73z" />
    <glyph glyph-name="dcaron" unicode="&#x10f;" horiz-adv-x="464" 
d="M488 727q30 0 30 -28q0 -31 -50 -104h-39l26 132h33zM295 490h-68q-81 0 -81 -76v-265q0 -67 66 -67q53 0 83 28v380zM295 728h95v-728h-93v36q-41 -39 -108 -39t-102 36.5t-35 104.5v279q0 74 43 116t120 42h80v153z" />
    <glyph glyph-name="Dcroat" unicode="&#x110;" horiz-adv-x="476" 
d="M66 678h196q80 0 122 -40t42 -112v-370q0 -73 -39.5 -114.5t-120.5 -41.5h-200v297h-62v80h62v301zM332 161v362q0 76 -79 76h-93v-222h88v-80h-88v-215h93q79 0 79 79z" />
    <glyph glyph-name="dcroat" unicode="&#x111;" horiz-adv-x="453" 
d="M431 681v-51h-40v-630h-93v36q-41 -39 -108 -39t-102 36.5t-35 104.5v279q0 74 43 116t120 42h80v55h-125v51h125v47h95v-47h40zM296 490h-68q-81 0 -81 -76v-265q0 -67 66 -67q53 0 83 28v380z" />
    <glyph glyph-name="Emacron" unicode="&#x112;" horiz-adv-x="404" 
d="M97 801h235v-56h-235v56zM62 678h309v-83h-215v-211h187v-83h-187v-219h215v-82h-309v678z" />
    <glyph glyph-name="emacron" unicode="&#x113;" horiz-adv-x="435" 
d="M52 152v276q0 72 42 114.5t128 42.5t127 -42.5t41 -114.5v-183h-246v-88q0 -40 24.5 -59t86 -19t119.5 18v-86q-60 -16 -128 -16q-194 0 -194 157zM144 321h157v106q0 78 -78.5 78t-78.5 -78v-106zM339 701v-56h-235v56h235z" />
    <glyph glyph-name="Edotaccent" unicode="&#x116;" horiz-adv-x="404" 
d="M220 746q-44 0 -44 42.5t44 42.5t44 -42.5t-44 -42.5zM62 678h309v-83h-215v-211h187v-83h-187v-219h215v-82h-309v678z" />
    <glyph glyph-name="edotaccent" unicode="&#x117;" horiz-adv-x="435" 
d="M52 152v276q0 72 42 114.5t128 42.5t127 -42.5t41 -114.5v-183h-246v-88q0 -40 24.5 -59t86 -19t119.5 18v-86q-60 -16 -128 -16q-194 0 -194 157zM144 321h157v106q0 78 -78.5 78t-78.5 -78v-106zM225 646q-44 0 -44 42.5t44 42.5t44 -42.5t-44 -42.5z" />
    <glyph glyph-name="Eogonek" unicode="&#x118;" horiz-adv-x="404" 
d="M371 595h-215v-211h187v-83h-187v-219h215v-82h-1q-46 -39 -46 -93q0 -36 34 -36h12v-54h-17q-86 0 -86 71q0 64 62 112h-267v678h309v-83z" />
    <glyph glyph-name="eogonek" unicode="&#x119;" horiz-adv-x="435" 
d="M52 152v276q0 72 42 114.5t128 42.5t127 -42.5t41 -114.5v-183h-246v-88q0 -40 24.5 -59t86 -19t119.5 18v-86l-3 -1q-44 -39 -44 -91q0 -36 34 -36h12v-54h-17q-86 0 -86 71q0 54 47 99q-38 -4 -71 -4q-194 0 -194 157zM144 321h157v106q0 78 -78.5 78t-78.5 -78v-106z
" />
    <glyph glyph-name="Ecaron" unicode="&#x11a;" horiz-adv-x="404" 
d="M371 595h-215v-211h187v-83h-187v-219h215v-82h-309v678h309v-83zM179 719l-53 109h52l38 -60l37 60h52l-53 -109h-73z" />
    <glyph glyph-name="ecaron" unicode="&#x11b;" horiz-adv-x="435" 
d="M52 152v276q0 72 42 114.5t128 42.5t127 -42.5t41 -114.5v-183h-246v-88q0 -40 24.5 -59t86 -19t119.5 18v-86q-60 -16 -128 -16q-194 0 -194 157zM144 321h157v106q0 78 -78.5 78t-78.5 -78v-106zM188 619l-53 109h52l38 -60l37 60h52l-53 -109h-73z" />
    <glyph glyph-name="Gbreve" unicode="&#x11e;" horiz-adv-x="454" 
d="M235 719q-51 0 -81.5 30.5t-31.5 78.5h58q1 -26 15 -41.5t40 -15.5t40 15.5t15 41.5h58q-1 -48 -31.5 -78.5t-81.5 -30.5zM52 528q0 73 49.5 114t150.5 41q68 0 127 -17v-90q-60 20 -126 20q-106 0 -106 -76v-368q0 -72 88 -72q49 0 74 17v245h93v-307
q-73 -40 -163.5 -40t-138.5 37.5t-48 112.5v383z" />
    <glyph glyph-name="gbreve" unicode="&#x11f;" horiz-adv-x="449" 
d="M433 538h-34q-23 0 -39 -9q28 -35 28 -93v-82q0 -70 -42.5 -109t-128.5 -40q-47 0 -47 -44q0 -21 12.5 -30t44.5 -9h58q142 0 142 -119v-17q0 -135 -191 -135h-39q-109 0 -165 35v88q66 -43 163 -43h32q60 0 85 14t25 42v9q0 24 -12.5 35.5t-48.5 11.5h-61
q-129 0 -129 87v16q0 56 53 68q-101 29 -101 140v82q0 71 43.5 110t121.5 39t120 -24q21 64 95 64h15v-87zM294 355v80q0 37 -19 54.5t-62 17.5t-62 -17.5t-19 -54.5v-80q0 -37 19 -54.5t62 -17.5t62 17.5t19 54.5zM213 619q-51 0 -81.5 30.5t-31.5 78.5h58q1 -26 15 -41.5
t40 -15.5t40 15.5t15 41.5h58q-1 -48 -31.5 -78.5t-81.5 -30.5z" />
    <glyph glyph-name="uni0122" unicode="&#x122;" horiz-adv-x="454" 
d="M251 -61q29 0 29 -30.5t-50 -100.5h-38l26 131h33zM52 528q0 73 49.5 114t150.5 41q68 0 127 -17v-90q-60 20 -126 20q-106 0 -106 -76v-368q0 -72 88 -72q49 0 74 17v245h93v-307q-73 -40 -163.5 -40t-138.5 37.5t-48 112.5v383z" />
    <glyph glyph-name="uni0123" unicode="&#x123;" horiz-adv-x="449" 
d="M433 538h-34q-23 0 -39 -9q28 -35 28 -93v-82q0 -70 -42.5 -109t-128.5 -40q-47 0 -47 -44q0 -21 12.5 -30t44.5 -9h58q142 0 142 -119v-17q0 -135 -191 -135h-39q-109 0 -165 35v88q66 -43 163 -43h32q60 0 85 14t25 42v9q0 24 -12.5 35.5t-48.5 11.5h-61
q-129 0 -129 87v16q0 56 53 68q-101 29 -101 140v82q0 71 43.5 110t121.5 39t120 -24q21 64 95 64h15v-87zM294 355v80q0 37 -19 54.5t-62 17.5t-62 -17.5t-19 -54.5v-80q0 -37 19 -54.5t62 -17.5t62 17.5t19 54.5zM209 619q-30 0 -30 30.5t50 100.5h39l-26 -131h-33z" />
    <glyph glyph-name="Imacron" unicode="&#x12a;" horiz-adv-x="218" 
d="M-6 801h235v-56h-235v56zM62 678h95v-678h-95v678z" />
    <glyph glyph-name="imacron" unicode="&#x12b;" horiz-adv-x="218" 
d="M-9 701h235v-56h-235v56zM62 568h94v-568h-94v568z" />
    <glyph glyph-name="Iogonek" unicode="&#x12e;" horiz-adv-x="218" 
d="M157 678v-678q-46 -39 -46 -93q0 -36 34 -36h12v-54h-17q-86 0 -86 71q0 64 62 112h-54v678h95z" />
    <glyph glyph-name="iogonek" unicode="&#x12f;" horiz-adv-x="218" 
d="M62 0v568h94v-568q-46 -39 -46 -93q0 -36 34 -36h12v-54h-17q-86 0 -86 71q0 64 62 112h-53zM109 625q-55 0 -55 55.5t55 55.5t55 -55.5t-55 -55.5z" />
    <glyph glyph-name="Idotaccent" unicode="&#x130;" horiz-adv-x="218" 
d="M107 746q-44 0 -44 42.5t44 42.5t44 -42.5t-44 -42.5zM62 678h95v-678h-95v678z" />
    <glyph glyph-name="dotlessi" unicode="&#x131;" horiz-adv-x="218" 
d="M62 568h94v-568h-94v568z" />
    <glyph glyph-name="uni0136" unicode="&#x136;" horiz-adv-x="448" 
d="M244 -61q30 0 30 -30.5t-50 -100.5h-39l26 131h33zM62 678h94v-678h-94v678zM325 678h101l-137 -335l146 -343h-105l-141 341z" />
    <glyph glyph-name="uni0137" unicode="&#x137;" horiz-adv-x="412" 
d="M219 -61q30 0 30 -30.5t-50 -100.5h-39l26 131h33zM62 728h92v-728h-92v728zM290 575h97l-113 -275l124 -300h-101l-120 302z" />
    <glyph glyph-name="Lacute" unicode="&#x139;" horiz-adv-x="360" 
d="M62 678h95v-597h198v-81h-293v678zM118 828h80l-64 -109h-56z" />
    <glyph glyph-name="lacute" unicode="&#x13a;" horiz-adv-x="218" 
d="M62 728h94v-728h-94v728zM120 878h80l-64 -109h-56z" />
    <glyph glyph-name="uni013B" unicode="&#x13b;" horiz-adv-x="360" 
d="M209 -61q29 0 29 -28q0 -17 -17 -50t-33 -53h-38l26 131h33zM62 678h95v-597h198v-81h-293v678z" />
    <glyph glyph-name="uni013C" unicode="&#x13c;" horiz-adv-x="218" 
d="M113 -61q30 0 30 -30.5t-50 -100.5h-39l26 131h33zM62 728h94v-728h-94v728z" />
    <glyph glyph-name="Lcaron" unicode="&#x13d;" horiz-adv-x="360" 
d="M157 81h198v-81h-293v678h95v-597zM71 719l-53 109h52l38 -60l37 60h52l-53 -109h-73z" />
    <glyph glyph-name="lcaron" unicode="&#x13e;" horiz-adv-x="218" 
d="M255 727q29 0 29 -29.5t-50 -102.5h-38l26 132h33zM62 728h94v-728h-94v728z" />
    <glyph glyph-name="Lslash" unicode="&#x141;" horiz-adv-x="361" 
d="M161 81h198v-81h-293v274l-55 -26v69l55 26v335h95v-289l94 45v-70l-94 -45v-238z" />
    <glyph glyph-name="lslash" unicode="&#x142;" horiz-adv-x="220" 
d="M157 0h-94v423l-53 -27v69l53 27v236h94v-188l52 26v-69l-52 -26v-471z" />
    <glyph glyph-name="Nacute" unicode="&#x143;" horiz-adv-x="509" 
d="M354 678h93v-678h-100q-157 401 -205 532q0 -11 4 -46q8 -87 8 -193v-293h-92v678h101q139 -352 169 -436t34 -95q0 9 -5.5 88.5t-6.5 153.5v289zM262 828h80l-64 -109h-56z" />
    <glyph glyph-name="nacute" unicode="&#x144;" horiz-adv-x="455" 
d="M152 549q64 28 119.5 28t91 -33.5t35.5 -96.5v-447h-96v431q0 59 -59 59q-43 0 -87 -22v-468h-94v575h90v-26zM236 728h80l-64 -109h-56z" />
    <glyph glyph-name="uni0145" unicode="&#x145;" horiz-adv-x="509" 
d="M250 -61q29 0 29 -30.5t-50 -100.5h-38l26 131h33zM354 678h93v-678h-100q-157 401 -205 532q0 -11 4 -46q8 -87 8 -193v-293h-92v678h101q139 -352 169 -436t34 -95q0 9 -5.5 88.5t-6.5 153.5v289z" />
    <glyph glyph-name="uni0146" unicode="&#x146;" horiz-adv-x="455" 
d="M229 -61q29 0 29 -30.5t-50 -100.5h-39l26 131h34zM152 549q64 28 119.5 28t91 -33.5t35.5 -96.5v-447h-96v431q0 59 -59 59q-43 0 -87 -22v-468h-94v575h90v-26z" />
    <glyph glyph-name="Ncaron" unicode="&#x147;" horiz-adv-x="509" 
d="M354 678h93v-678h-100q-157 401 -205 532q0 -11 4 -46q8 -87 8 -193v-293h-92v678h101q139 -352 169 -436t34 -95q0 9 -5.5 88.5t-6.5 153.5v289zM216 719l-53 109h52l38 -60l37 60h52l-53 -109h-73z" />
    <glyph glyph-name="ncaron" unicode="&#x148;" horiz-adv-x="455" 
d="M152 575v-26q64 28 119.5 28t91 -33.5t35.5 -96.5v-447h-96v431q0 59 -59 59q-43 0 -87 -22v-468h-94v575h90zM187 619l-53 109h52l38 -60l37 60h52l-53 -109h-73z" />
    <glyph glyph-name="Omacron" unicode="&#x14c;" horiz-adv-x="466" 
d="M320 520q0 82 -87 82t-87 -82v-362q0 -83 87 -83t87 83v362zM52 523q0 75 45.5 120t135 45t135.5 -45.5t46 -119.5v-369q0 -74 -46 -119t-135 -45t-135 45t-46 119v369zM116 801h235v-56h-235v56z" />
    <glyph glyph-name="omacron" unicode="&#x14d;" horiz-adv-x="444" 
d="M299 426q0 77 -77 77t-77 -77v-277q0 -77 77 -77t77 77v277zM52 428q0 72 42 114.5t128 42.5t128.5 -42.5t42.5 -114.5v-281q0 -72 -42.5 -114.5t-128.5 -42.5t-128 42.5t-42 114.5v281zM103 701h235v-56h-235v56z" />
    <glyph glyph-name="Ohungarumlaut" unicode="&#x150;" horiz-adv-x="466" 
d="M320 520q0 82 -87 82t-87 -82v-362q0 -83 87 -83t87 83v362zM52 523q0 75 45.5 120t135 45t135.5 -45.5t46 -119.5v-369q0 -74 -46 -119t-135 -45t-135 45t-46 119v369zM199 828h74l-66 -109h-50zM295 828h73l-66 -109h-50z" />
    <glyph glyph-name="ohungarumlaut" unicode="&#x151;" horiz-adv-x="444" 
d="M299 426q0 77 -77 77t-77 -77v-277q0 -77 77 -77t77 77v277zM52 428q0 72 42 114.5t128 42.5t128.5 -42.5t42.5 -114.5v-281q0 -72 -42.5 -114.5t-128.5 -42.5t-128 42.5t-42 114.5v281zM194 728h74l-66 -109h-50zM290 728h73l-66 -109h-50z" />
    <glyph glyph-name="OE" unicode="&#x152;" horiz-adv-x="682" 
d="M654 595h-215v-211h187v-83h-187v-219h215v-82h-422q-82 0 -121 41.5t-39 114.5v370q0 72 42 112t122 40h418v-83zM245 82h100v517h-100q-79 0 -79 -76v-362q0 -79 79 -79z" />
    <glyph glyph-name="oe" unicode="&#x153;" horiz-adv-x="698" 
d="M57 147v281q0 72 42.5 114.5t126 42.5t127.5 -39q44 39 127 39t124 -42.5t41 -114.5v-183h-246v-88q0 -40 24.5 -59t85.5 -19t120 18v-86q-60 -16 -128 -16q-96 0 -145 38q-43 -43 -128.5 -43t-128 42.5t-42.5 114.5zM305 149v277q0 77 -77 77t-77 -77v-277q0 -77 77 -77
t77 77zM399 321h157v106q0 78 -78.5 78t-78.5 -78v-106z" />
    <glyph glyph-name="Racute" unicode="&#x154;" horiz-adv-x="464" 
d="M156 264v-264h-94v678h182q80 0 122.5 -40t42.5 -111v-108q0 -111 -85 -143l108 -276h-104l-97 264h-75zM156 596v-253h80q42 0 60.5 19t18.5 58v101q0 75 -79 75h-80zM318 828l-64 -109h-56l40 109h80z" />
    <glyph glyph-name="racute" unicode="&#x155;" horiz-adv-x="294" 
d="M266 578h23v-89h-30q-47 0 -103 -38v-451h-94v575h90v-42q3 2 11.5 8t11 7.5t10 6.5t10.5 6t9.5 4.5t10.5 4.5t10.5 3.5t12.5 2.5q18 2 28 2zM194 728h80l-64 -109h-56z" />
    <glyph glyph-name="uni0156" unicode="&#x156;" horiz-adv-x="464" 
d="M156 264v-264h-94v678h182q80 0 122.5 -40t42.5 -111v-108q0 -111 -85 -143l108 -276h-104l-97 264h-75zM156 596v-253h80q42 0 60.5 19t18.5 58v101q0 75 -79 75h-80zM239 -61q29 0 29 -30.5t-50 -100.5h-38l26 131h33z" />
    <glyph glyph-name="uni0157" unicode="&#x157;" horiz-adv-x="294" 
d="M113 -61q30 0 30 -30.5t-50 -100.5h-39l26 131h33zM266 578h23v-89h-30q-47 0 -103 -38v-451h-94v575h90v-42q3 2 11.5 8t11 7.5t10 6.5t10.5 6t9.5 4.5t10.5 4.5t10.5 3.5t12.5 2.5q18 2 28 2z" />
    <glyph glyph-name="Rcaron" unicode="&#x158;" horiz-adv-x="464" 
d="M156 264v-264h-94v678h182q80 0 122.5 -40t42.5 -111v-108q0 -111 -85 -143l108 -276h-104l-97 264h-75zM156 596v-253h80q42 0 60.5 19t18.5 58v101q0 75 -79 75h-80zM187 719l-53 109h52l38 -60l37 60h52l-53 -109h-73z" />
    <glyph glyph-name="rcaron" unicode="&#x159;" horiz-adv-x="294" 
d="M266 578h23v-89h-30q-47 0 -103 -38v-451h-94v575h90v-42q3 2 11.5 8t11 7.5t10 6.5t10.5 6t9.5 4.5t10.5 4.5t10.5 3.5t12.5 2.5q18 2 28 2zM141 619l-53 109h52l38 -60l37 60h52l-53 -109h-73z" />
    <glyph glyph-name="Sacute" unicode="&#x15a;" horiz-adv-x="403" 
d="M26 534q0 71 46.5 110t132.5 39t140 -18v-90q-54 21 -131 21q-93 0 -93 -69v-39q0 -32 12.5 -50.5t44.5 -36.5l116 -65q81 -44 81 -133v-56q0 -73 -51 -112.5t-143.5 -39.5t-148.5 21v90q66 -24 139 -24q109 0 109 74v34q0 30 -11 46.5t-41 32.5l-113 62q-89 48 -89 143
v60zM214 828h80l-64 -109h-56z" />
    <glyph glyph-name="sacute" unicode="&#x15b;" horiz-adv-x="369" 
d="M26 435q0 73 42.5 109t138.5 36q64 0 114 -16v-86q-48 18 -106 18t-77 -15.5t-19 -50.5v-20q0 -27 11 -41t42 -30l85 -46q86 -46 86 -124v-26q0 -148 -192 -148q-65 0 -123 15v87q51 -17 112.5 -17t85 16t23.5 49v17q0 24 -12.5 38.5t-49.5 33.5l-81 42q-80 41 -80 127
v32zM205 728h80l-64 -109h-56z" />
    <glyph glyph-name="uni015E" unicode="&#x15e;" horiz-adv-x="403" 
d="M195 -61q29 0 29 -30.5t-50 -100.5h-38l26 131h33zM26 534q0 71 46.5 110t132.5 39t140 -18v-90q-54 21 -131 21q-93 0 -93 -69v-39q0 -32 12.5 -50.5t44.5 -36.5l116 -65q81 -44 81 -133v-56q0 -73 -51 -112.5t-143.5 -39.5t-148.5 21v90q66 -24 139 -24q109 0 109 74
v34q0 30 -11 46.5t-41 32.5l-113 62q-89 48 -89 143v60z" />
    <glyph glyph-name="uni015F" unicode="&#x15f;" horiz-adv-x="369" 
d="M183 -61q30 0 30 -30.5t-50 -100.5h-39l26 131h33zM26 435q0 73 42.5 109t138.5 36q64 0 114 -16v-86q-48 18 -106 18t-77 -15.5t-19 -50.5v-20q0 -27 11 -41t42 -30l85 -46q86 -46 86 -124v-26q0 -148 -192 -148q-65 0 -123 15v87q51 -17 112.5 -17t85 16t23.5 49v17
q0 24 -12.5 38.5t-49.5 33.5l-81 42q-80 41 -80 127v32z" />
    <glyph glyph-name="Scaron" unicode="&#x160;" horiz-adv-x="403" 
d="M375 203v-56q0 -73 -51 -112.5t-143.5 -39.5t-148.5 21v90q66 -24 139 -24q109 0 109 74v34q0 30 -11 46.5t-41 32.5l-113 62q-89 48 -89 143v60q0 71 46.5 110t132.5 39t140 -18v-90q-54 21 -131 21q-93 0 -93 -69v-39q0 -32 12.5 -50.5t44.5 -36.5l116 -65
q81 -44 81 -133zM167 719l-53 109h52l38 -60l37 60h52l-53 -109h-73z" />
    <glyph glyph-name="scaron" unicode="&#x161;" horiz-adv-x="369" 
d="M343 169v-26q0 -148 -192 -148q-65 0 -123 15v87q51 -17 112.5 -17t85 16t23.5 49v17q0 24 -12.5 38.5t-49.5 33.5l-81 42q-80 41 -80 127v32q0 73 42.5 109t138.5 36q64 0 114 -16v-86q-48 18 -106 18t-77 -15.5t-19 -50.5v-20q0 -27 11 -41t42 -30l85 -46
q86 -46 86 -124zM154 619l-53 109h52l38 -60l37 60h52l-53 -109h-73z" />
    <glyph glyph-name="uni0162" unicode="&#x162;" horiz-adv-x="368" 
d="M361 678v-83h-129v-595h-95v595h-129v83h353zM190 -61q29 0 29 -30.5t-50 -100.5h-38l26 131h33z" />
    <glyph glyph-name="uni0163" unicode="&#x163;" horiz-adv-x="299" 
d="M183 -61q30 0 30 -30.5t-50 -100.5h-39l26 131h33zM159 678v-103h116v-81h-116v-357q0 -58 60 -58q29 0 65 12v-85q-1 0 -9.5 -2t-17.5 -4q-27 -6 -52 -6q-140 0 -140 136v364h-60v81h63l28 103h63z" />
    <glyph glyph-name="Tcaron" unicode="&#x164;" horiz-adv-x="368" 
d="M361 678v-83h-129v-595h-95v595h-129v83h353zM146 719l-53 109h52l38 -60l37 60h52l-53 -109h-73z" />
    <glyph glyph-name="tcaron" unicode="&#x165;" horiz-adv-x="299" 
d="M159 678v-103h116v-81h-116v-357q0 -58 60 -58q29 0 65 12v-85q-1 0 -9.5 -2t-17.5 -4q-27 -6 -52 -6q-140 0 -140 136v364h-60v81h63l28 103h63zM304 797q33 0 33 -33t-60 -140h-40l31 173h36z" />
    <glyph glyph-name="Umacron" unicode="&#x16a;" horiz-adv-x="474" 
d="M119 801h235v-56h-235v56zM323 678h94v-524q0 -74 -45.5 -119t-134.5 -45t-134.5 45t-45.5 119v524h94v-520q0 -83 86 -83t86 83v520z" />
    <glyph glyph-name="umacron" unicode="&#x16b;" horiz-adv-x="456" 
d="M107 701h235v-56h-235v56zM218 83q42 0 82 25v467h95v-575h-90v27q-52 -29 -115 -29t-98 36t-35 104v437h95v-424q0 -68 66 -68z" />
    <glyph glyph-name="Uring" unicode="&#x16e;" horiz-adv-x="474" 
d="M323 678h94v-524q0 -74 -45.5 -119t-134.5 -45t-134.5 45t-45.5 119v524h94v-520q0 -83 86 -83t86 83v520zM272 773q0 15 -9 24t-24 9t-24 -9t-9 -24t9 -24.5t24 -9.5t24 9.5t9 24.5zM183.5 719.5q-20.5 21.5 -20.5 54t20 53t56 20.5t56 -20.5t20 -53t-20 -54
t-55.5 -21.5t-56 21.5z" />
    <glyph glyph-name="uring" unicode="&#x16f;" horiz-adv-x="456" 
d="M218 83q42 0 82 25v467h95v-575h-90v27q-52 -29 -115 -29t-98 36t-35 104v437h95v-424q0 -68 66 -68zM258 673q0 15 -9 24t-24 9t-24 -9t-9 -24t9 -24.5t24 -9.5t24 9.5t9 24.5zM169.5 619.5q-20.5 21.5 -20.5 54t20 53t56 20.5t56 -20.5t20 -53t-20 -54t-55.5 -21.5
t-56 21.5z" />
    <glyph glyph-name="Uhungarumlaut" unicode="&#x170;" horiz-adv-x="474" 
d="M197 828h74l-66 -109h-50zM293 828h73l-66 -109h-50zM323 678h94v-524q0 -74 -45.5 -119t-134.5 -45t-134.5 45t-45.5 119v524h94v-520q0 -83 86 -83t86 83v520z" />
    <glyph glyph-name="uhungarumlaut" unicode="&#x171;" horiz-adv-x="456" 
d="M190 728h74l-66 -109h-50zM286 728h73l-66 -109h-50zM218 83q42 0 82 25v467h95v-575h-90v27q-52 -29 -115 -29t-98 36t-35 104v437h95v-424q0 -68 66 -68z" />
    <glyph glyph-name="Uogonek" unicode="&#x172;" horiz-adv-x="474" 
d="M323 678h94v-524q0 -109 -89 -147q-42 -39 -42 -90q0 -36 34 -36h12v-54h-17q-86 0 -86 71q0 49 42 94q-22 -2 -34 -2q-89 0 -134.5 45t-45.5 119v524h94v-520q0 -83 86 -83t86 83v520z" />
    <glyph glyph-name="uogonek" unicode="&#x173;" horiz-adv-x="456" 
d="M218 83q42 0 82 25v467h95v-575h-1q-46 -39 -46 -93q0 -36 34 -36h12v-54h-17q-86 0 -86 71q0 64 62 112h-48v27q-52 -29 -115 -29t-98 36t-35 104v437h95v-424q0 -68 66 -68z" />
    <glyph glyph-name="Ydieresis" unicode="&#x178;" horiz-adv-x="430" 
d="M263 0h-95v223l-165 455h97l57 -160q31 -90 60 -191q28 98 59 191l57 160h95l-165 -455v-223zM286 730q-44 0 -44 42.5t44 42.5t44 -42.5t-44 -42.5zM140 730q-44 0 -44 42.5t44 42.5t44 -42.5t-44 -42.5z" />
    <glyph glyph-name="Zacute" unicode="&#x179;" horiz-adv-x="395" 
d="M31 678h336v-79l-243 -518h242v-81h-340v81l240 516h-235v81zM207 828h80l-64 -109h-56z" />
    <glyph glyph-name="zacute" unicode="&#x17a;" horiz-adv-x="333" 
d="M25 575h287v-65l-193 -429h194v-81h-293v66l191 428h-186v81zM180 728h80l-64 -109h-56z" />
    <glyph glyph-name="Zdotaccent" unicode="&#x17b;" horiz-adv-x="395" 
d="M197 746q-44 0 -44 42.5t44 42.5t44 -42.5t-44 -42.5zM31 678h336v-79l-243 -518h242v-81h-340v81l240 516h-235v81z" />
    <glyph glyph-name="zdotaccent" unicode="&#x17c;" horiz-adv-x="333" 
d="M172 646q-44 0 -44 42.5t44 42.5t44 -42.5t-44 -42.5zM25 575h287v-65l-193 -429h194v-81h-293v66l191 428h-186v81z" />
    <glyph glyph-name="Zcaron" unicode="&#x17d;" horiz-adv-x="395" 
d="M367 678v-79l-243 -518h242v-81h-340v81l240 516h-235v81h336zM161 719l-53 109h52l38 -60l37 60h52l-53 -109h-73z" />
    <glyph glyph-name="zcaron" unicode="&#x17e;" horiz-adv-x="333" 
d="M313 81v-81h-293v66l191 428h-186v81h287v-65l-193 -429h194zM135 619l-53 109h52l38 -60l37 60h52l-53 -109h-73z" />
    <glyph glyph-name="florin" unicode="&#x192;" horiz-adv-x="332" 
d="M-8 75l24 -1q32 0 46.5 15t19.5 52l44 280h-79v78h91l13 85q10 73 43.5 109t106.5 36q19 0 38 -3v-76q-16 2 -27 2q-32 0 -46.5 -15.5t-19.5 -52.5l-13 -85h68v-78h-80l-44 -280q-11 -73 -44.5 -109t-105.5 -36q-17 0 -35 3v76z" />
    <glyph glyph-name="uni0218" unicode="&#x218;" horiz-adv-x="403" 
d="M199 -61q30 0 30 -30.5t-50 -100.5h-39l26 131h33zM26 534q0 71 46.5 110t132.5 39t140 -18v-90q-54 21 -131 21q-93 0 -93 -69v-39q0 -32 12.5 -50.5t44.5 -36.5l116 -65q81 -44 81 -133v-56q0 -73 -51 -112.5t-143.5 -39.5t-148.5 21v90q66 -24 139 -24q109 0 109 74
v34q0 30 -11 46.5t-41 32.5l-113 62q-89 48 -89 143v60z" />
    <glyph glyph-name="uni0219" unicode="&#x219;" horiz-adv-x="369" 
d="M193 -61q29 0 29 -30.5t-50 -100.5h-38l26 131h33zM26 435q0 73 42.5 109t138.5 36q64 0 114 -16v-86q-48 18 -106 18t-77 -15.5t-19 -50.5v-20q0 -27 11 -41t42 -30l85 -46q86 -46 86 -124v-26q0 -148 -192 -148q-65 0 -123 15v87q51 -17 112.5 -17t85 16t23.5 49v17
q0 24 -12.5 38.5t-49.5 33.5l-81 42q-80 41 -80 127v32z" />
    <glyph glyph-name="uni021A" unicode="&#x21a;" horiz-adv-x="368" 
d="M361 678v-83h-129v-595h-95v595h-129v83h353zM187 -61q29 0 29 -30.5t-50 -100.5h-38l26 131h33z" />
    <glyph glyph-name="uni021B" unicode="&#x21b;" horiz-adv-x="299" 
d="M185 -61q30 0 30 -28q0 -17 -17.5 -49.5t-33.5 -53.5h-38l26 131h33zM159 678v-103h116v-81h-116v-357q0 -58 60 -58q29 0 65 12v-85q-1 0 -9.5 -2t-17.5 -4q-27 -6 -52 -6q-140 0 -140 136v364h-60v81h63l28 103h63z" />
    <glyph glyph-name="circumflex" unicode="&#x2c6;" horiz-adv-x="350" 
d="M264 619h-52l-37 60l-38 -60h-52l53 109h73z" />
    <glyph glyph-name="caron" unicode="&#x2c7;" horiz-adv-x="350" 
d="M212 728h52l-53 -109h-73l-53 109h52l38 -60z" />
    <glyph glyph-name="uni02C9" unicode="&#x2c9;" horiz-adv-x="350" 
d="M57 701h235v-56h-235v56z" />
    <glyph glyph-name="breve" unicode="&#x2d8;" horiz-adv-x="350" 
d="M175 619q-51 0 -81.5 30.5t-31.5 78.5h58q1 -26 15 -41.5t40 -15.5t40 15.5t15 41.5h58q-1 -48 -31.5 -78.5t-81.5 -30.5z" />
    <glyph glyph-name="dotaccent" unicode="&#x2d9;" horiz-adv-x="350" 
d="M174 646q-44 0 -44 42.5t44 42.5t44 -42.5t-44 -42.5z" />
    <glyph glyph-name="ring" unicode="&#x2da;" horiz-adv-x="350" 
d="M208 673q0 15 -9 24t-24 9t-24 -9t-9 -24t9 -24.5t24 -9.5t24 9.5t9 24.5zM119.5 619.5q-20.5 21.5 -20.5 54t20 53t56 20.5t56 -20.5t20 -53t-20 -54t-55.5 -21.5t-56 21.5z" />
    <glyph glyph-name="ogonek" unicode="&#x2db;" horiz-adv-x="350" 
d="M181 -93q0 -36 34 -36h12v-54h-17q-86 0 -86 71q0 64 62 112h41q-46 -39 -46 -93z" />
    <glyph glyph-name="tilde" unicode="&#x2dc;" horiz-adv-x="350" 
d="M246 721h59v-11q-2 -83 -73 -83q-26 0 -60 20t-47 20q-22 0 -22 -33v-9h-59v10q2 84 74 84q28 0 62 -20t44 -20q22 0 22 33v9z" />
    <glyph glyph-name="hungarumlaut" unicode="&#x2dd;" horiz-adv-x="350" 
d="M111 728h74l-66 -109h-50zM207 728h73l-66 -109h-50z" />
    <glyph glyph-name="pi" unicode="&#x3c0;" horiz-adv-x="455" 
d="M463 575v-81h-65v-494h-96v494h-146v-494h-94l-1 575h402z" />
    <glyph glyph-name="uni0901" unicode="&#x901;" horiz-adv-x="0" 
d="M-17 857h85v-2q0 -71 -43.5 -103t-131 -32t-131.5 32t-44 103v2h85q0 -34 20.5 -47.5t69.5 -13.5t69.5 13.5t20.5 47.5zM-156 905q0 49 49.5 49t49.5 -49t-49.5 -49t-49.5 49z" />
    <glyph glyph-name="uni0902" unicode="&#x902;" horiz-adv-x="0" 
d="M-107 727q-51 0 -51 51.5t51 51.5t51 -51.5t-51 -51.5z" />
    <glyph glyph-name="uni0903" unicode="&#x903;" horiz-adv-x="215" 
d="M45 51.5q0 51.5 51.5 51.5t51.5 -51.5t-51.5 -51.5t-51.5 51.5zM45 394.5q0 51.5 51.5 51.5t51.5 -51.5t-51.5 -51.5t-51.5 51.5z" />
    <glyph glyph-name="uni0905" unicode="&#x905;" horiz-adv-x="576" 
d="M425 656h179v-74h-92v-582h-87v213h-103v-32q-2 -146 -174 -146q-63 0 -110 14v81q59 -16 109 -16q89 0 89 69v63q0 34 -15.5 51.5t-58.5 17.5h-60v81h60q43 0 58.5 17t15.5 50v49q0 69 -88 69q-48 0 -98 -15v81q42 14 98 14q174 0 174 -146v-52q0 -84 -49 -107
q37 -19 45 -68h107v368z" />
    <glyph glyph-name="uni0906" unicode="&#x906;" horiz-adv-x="805" 
d="M834 656v-74h-92v-582h-87v582h-126v-582h-87v213h-103v-32q-2 -146 -174 -146q-63 0 -110 14v81q59 -16 109 -16q89 0 89 69v63q0 34 -15.5 51.5t-58.5 17.5h-60v81h60q43 0 58.5 17t15.5 50v49q0 69 -88 69q-48 0 -98 -15v81q42 14 98 14q174 0 174 -146v-52
q0 -84 -49 -107q37 -19 45 -68h107v368h392z" />
    <glyph glyph-name="uni0907" unicode="&#x907;" horiz-adv-x="404" 
d="M130 170v-67q34 -8 74 -8q80 0 80 59v31q0 28 -15.5 42.5t-55.5 14.5h-24q-152 0 -152 127v8q0 65 37.5 96t114.5 31h67v78h-285v74h462v-74h-90v-154h-154q-37 0 -51.5 -13t-14.5 -40v-4q0 -54 66 -54h24q157 0 157 -130v-36q0 -68 -36.5 -101t-120.5 -33q-40 0 -83 8
v-95h-84v240h84z" />
    <glyph glyph-name="uni0908" unicode="&#x908;" horiz-adv-x="404" 
d="M343 428h-154q-37 0 -51.5 -13t-14.5 -40v-4q0 -54 66 -54h24q157 0 157 -130v-36q0 -68 -36.5 -101t-120.5 -33q-40 0 -83 8v-95h-84v240h84v-67q34 -8 74 -8q80 0 80 59v31q0 28 -15.5 42.5t-55.5 14.5h-24q-152 0 -152 127v8q0 65 37.5 96t114.5 31h67v78h-285v74h281
q-31 62 -31 119t37.5 86t93.5 29q19 0 59 -5v-77q-21 3 -35 3q-68 0 -68 -58q0 -37 30 -97h95v-74h-90v-154z" />
    <glyph glyph-name="uni0909" unicode="&#x909;" horiz-adv-x="402" 
d="M255 520q0 36 -13 62h-271v74h459v-74h-100q11 -19 11 -62v-82q0 -83 -48 -104q48 -20 48 -104v-87q0 -147 -184 -147q-47 0 -112 15v81q62 -16 111 -16q99 0 99 68v82q0 32 -15 50t-58 19h-61v80h66q41 1 54.5 17.5t13.5 47.5v80z" />
    <glyph glyph-name="uni090A" unicode="&#x90a;" horiz-adv-x="576" 
d="M255 520q0 36 -13 62h-271v74h634v-74h-275q11 -19 11 -62v-82q0 -54 -21 -82q41 9 79 9q72 0 109.5 -35t37.5 -101v-93q0 -65 -34 -101t-100 -36h-23v81h8q35 0 48.5 14t13.5 44v79q0 68 -72 68h-53q7 -22 7 -55v-87q0 -147 -184 -147q-47 0 -112 15v81q62 -16 111 -16
q99 0 99 68v82q0 32 -15 50t-58 19h-61v80h66q41 1 54.5 17.5t13.5 47.5v80z" />
    <glyph glyph-name="uni090B" unicode="&#x90b;" horiz-adv-x="699" 
d="M728 582h-330v-150q46 -9 90 -9q83 0 83 67v10h84v-292h-43q-37 0 -53 -18.5t-16 -59.5q0 -74 83 -74q30 0 57 5v-74q-27 -5 -65 -5q-72 0 -116 35.5t-44 106.5q0 139 116 145v99q-27 -26 -88 -26q-36 0 -88 9v-351h-83v74q0 113 6 161h-3q-13 -33 -68 -90l-106 -111
h-108l-1 4l276 288v78q-39 13 -91 13t-75 -19.5t-23 -58.5v-60h-84v65q0 153 175 153q51 0 98 -13v98h-340v74h757v-74z" />
    <glyph glyph-name="uni090C" unicode="&#x90c;" horiz-adv-x="627" 
d="M563 582v-535q-34 4 -70 4t-51.5 -15t-15.5 -51t17.5 -48.5t46 -12.5t76.5 8v-81q-48 -8 -73 -8q-153 0 -153 142q0 138 137 144v263q-27 12 -61 12q-69 0 -69 -61v-130h-87v130q0 29 -14 45t-50.5 16t-50.5 -16t-14 -46v-178q0 -41 19 -63t70 -22q26 0 48 4v-79
q-24 -4 -50 -4q-174 0 -174 162v182q0 67 37.5 103.5t113.5 36.5t107 -48q35 47 109 47q36 0 66 -11v110h-506v74h685v-74h-93z" />
    <glyph glyph-name="uni090D" unicode="&#x90d;" horiz-adv-x="431" 
d="M234 -5q-174 0 -174 149v438h-89v74h489v-74h-82v-183q0 -135 -135 -135q-15 0 -22 1v81q4 -1 15 -1q32 0 43.5 14.5t11.5 43.5v179h-144v-436q0 -71 89 -71q61 0 122 19v-79q-50 -20 -124 -20zM311 862h85v-2q0 -71 -43.5 -103t-131.5 -32t-131.5 32t-43.5 103v2h85
q0 -34 20.5 -47.5t69 -13.5t69.5 13.5t21 47.5z" />
    <glyph glyph-name="uni090E" unicode="&#x90e;" horiz-adv-x="431" 
d="M377 656h83v-74h-82v-183q0 -135 -135 -135q-15 0 -22 1v81q4 -1 15 -1q32 0 43.5 14.5t11.5 43.5v179h-144v-436q0 -71 89 -71q61 0 122 19v-79q-50 -20 -124 -20q-174 0 -174 149v438h-89v74h321q0 39 -19 59t-70 20q-89 0 -129.5 35.5t-40.5 114.5h85q0 -39 19 -58.5
t70 -19.5q89 0 129.5 -37t40.5 -114z" />
    <glyph glyph-name="uni090F" unicode="&#x90f;" horiz-adv-x="431" 
d="M361 15q-52 -20 -133 -20q-168 0 -168 153v434h-89v74h489v-74h-82v-183q0 -135 -135 -135q-15 0 -22 1v81q4 -1 15 -1q32 0 43.5 14.5t11.5 43.5v179h-144v-433q0 -37 20.5 -55.5t75.5 -18.5t118 19v-79z" />
    <glyph glyph-name="uni0910" unicode="&#x910;" horiz-adv-x="431" 
d="M460 656v-74h-82v-183q0 -135 -135 -135q-15 0 -22 1v81q4 -1 15 -1q32 0 43.5 14.5t11.5 43.5v179h-144v-436q0 -71 89 -71q61 0 122 19v-79q-50 -20 -124 -20q-174 0 -174 149v438h-89v74h315l-164 229h97l156 -229h85z" />
    <glyph glyph-name="uni0911" unicode="&#x911;" horiz-adv-x="806" 
d="M835 656v-74h-92v-582h-87v582h-127v-582h-87v213h-103v-32q-2 -146 -174 -146q-63 0 -110 14v81q59 -16 109 -16q89 0 89 69v63q0 34 -15.5 51.5t-58.5 17.5h-60v81h60q43 0 58.5 17t15.5 50v49q0 69 -88 69q-48 0 -98 -15v81q42 14 98 14q174 0 174 -146v-52
q0 -84 -49 -107q37 -19 45 -68h107v368h393zM772 858v-2q0 -72 -43.5 -103.5t-131 -31.5t-131 31.5t-43.5 103.5v2h84q0 -34 20.5 -47.5t69 -13.5t69.5 13.5t21 47.5h85z" />
    <glyph glyph-name="uni0912" unicode="&#x912;" horiz-adv-x="806" 
d="M742 656h93v-74h-92v-582h-87v582h-127v-582h-87v213h-103v-32q-2 -146 -174 -146q-63 0 -110 14v81q59 -16 109 -16q89 0 89 69v63q0 34 -15.5 51.5t-58.5 17.5h-60v81h60q43 0 58.5 17t15.5 50v49q0 69 -88 69q-48 0 -98 -15v81q42 14 98 14q174 0 174 -146v-52
q0 -84 -49 -107q37 -19 45 -68h107v368h215q0 39 -18.5 59t-69.5 20q-90 0 -130.5 35.5t-40.5 114.5h85q0 -39 19 -58.5t70 -19.5q88 0 129 -37t41 -114z" />
    <glyph glyph-name="uni0913" unicode="&#x913;" horiz-adv-x="806" 
d="M835 656v-74h-92v-582h-87v582h-127v-582h-87v213h-103v-32q-2 -146 -174 -146q-63 0 -110 14v81q59 -16 109 -16q89 0 89 69v63q0 34 -15.5 51.5t-58.5 17.5h-60v81h60q43 0 58.5 17t15.5 50v49q0 69 -88 69q-48 0 -98 -15v81q42 14 98 14q174 0 174 -146v-52
q0 -84 -49 -107q37 -19 45 -68h107v368h211l-76 115q-26 40 -70 40q-17 0 -26 -1v73q22 2 49 2q64 0 110 -71l103 -158h92z" />
    <glyph glyph-name="uni0914" unicode="&#x914;" horiz-adv-x="806" 
d="M835 656v-74h-92v-582h-87v582h-127v-582h-87v213h-103v-32q-2 -146 -174 -146q-63 0 -110 14v81q59 -16 109 -16q89 0 89 69v63q0 34 -15.5 51.5t-58.5 17.5h-60v81h60q43 0 58.5 17t15.5 50v49q0 69 -88 69q-48 0 -98 -15v81q42 14 98 14q174 0 174 -146v-52
q0 -84 -49 -107q37 -19 45 -68h107v368h106l-79 115q-29 40 -70 40q-17 0 -26 -1v73q22 2 35 2q39 0 66 -17.5t57 -58.5l104 -153h28l-35 109q-8 25 -17.5 35.5t-22 10.5t-24.5 -2v74q18 2 30 2q75 0 100 -82l45 -147h96z" />
    <glyph glyph-name="uni0915" unicode="&#x915;" horiz-adv-x="597" 
d="M216 427l-21 1q-39 0 -54.5 -15.5t-15.5 -44.5v-170q0 -61 70 -61q35 0 62 10v435h-286v74h654v-74h-283v-85q24 8 67 8q146 0 146 -135v-167q0 -134 -132 -134q-13 0 -23 2v81q4 -1 26 -1q45 0 45 58v159q0 61 -70 61q-29 0 -59 -8v-421h-85v72q-54 -9 -70 -9
q-146 0 -146 132v175q0 134 146 134q21 0 29 -3v-74z" />
    <glyph glyph-name="uni0916" unicode="&#x916;" horiz-adv-x="749" 
d="M254 519q0 37 -12 63h-271v74h806v-74h-92v-582h-85v127q-30 -8 -71 -8q-76 0 -109.5 33.5t-33.5 100.5v111q0 68 32 102t108 34q37 0 74 -7v89h-274q10 -21 10 -63v-121q0 -149 -149 -149q-27 0 -61 6v-73q0 -107 144 -107q71 0 132 19v-82q-62 -16 -137 -16
q-106 0 -164 47t-58 138v264h83v-114q34 -4 64 -4q64 0 64 72v120zM600 416q-37 8 -70.5 8t-48 -15t-14.5 -45v-111q0 -29 14.5 -44t56 -15t62.5 7v215z" />
    <glyph glyph-name="uni0917" unicode="&#x917;" horiz-adv-x="484" 
d="M23 270l31 -2q64 0 64 61v253h-147v74h541v-74h-91v-582h-87v582h-130v-258q0 -66 -35.5 -102.5t-103.5 -36.5q-27 0 -42 3v82z" />
    <glyph glyph-name="uni0918" unicode="&#x918;" horiz-adv-x="496" 
d="M346 582h-190q-9 -21 -9 -63v-60q0 -29 14.5 -43.5t54.5 -15.5h37v-80h-40q-40 0 -56 -15t-16 -44v-41q0 -44 27 -62.5t79.5 -18.5t98.5 13v430zM61 519q0 40 7 63h-97v74h553v-74h-91v-582h-87v74q-58 -13 -107 -13q-87 0 -135.5 39t-48.5 112v51q0 79 55 98
q-49 22 -49 96v62z" />
    <glyph glyph-name="uni0919" unicode="&#x919;" horiz-adv-x="479" 
d="M375 343.5q0 51.5 51.5 51.5t51.5 -51.5t-51.5 -51.5t-51.5 51.5zM377 166v-32q0 -142 -184 -142q-68 0 -139 16v80q68 -16 128 -16t84 14t24 48v31q0 28 -15.5 42.5t-55.5 14.5h-20q-153 0 -153 127v29q0 127 153 127h61v77h-289v74h537v-74h-161v-154h-148
q-37 0 -51.5 -13.5t-14.5 -40.5v-22q0 -27 14.5 -41t51.5 -14h20q158 0 158 -131z" />
    <glyph glyph-name="uni091A" unicode="&#x91a;" horiz-adv-x="470" 
d="M83 332q0 42 8 74h-79v78h259v-75h-91q-11 -25 -11 -78v-128q0 -66 79 -66q39 0 72 11v434h-349v74h527v-74h-91v-582h-87v71q-39 -12 -84 -12q-153 0 -153 142v131z" />
    <glyph glyph-name="uni091B" unicode="&#x91b;" horiz-adv-x="521" 
d="M369.5 405.5q-15.5 16.5 -50 16.5t-60.5 -8v74q27 9 63 9v85h-167q-11 -21 -11 -63v-132q0 -29 14.5 -44t53.5 -15h60v-77h-58q-42 0 -58.5 -14.5t-16.5 -46.5v-23q0 -44 24 -59.5t98.5 -15.5t99 17.5t24.5 64.5v178q0 37 -15.5 53.5zM57 519q0 34 11 63h-97v74h578v-74
h-147v-98q68 -22 68 -121v-192q0 -85 -47 -121t-160.5 -36t-162 35t-48.5 115v31q0 73 55 94q-50 21 -50 95v135z" />
    <glyph glyph-name="uni091C" unicode="&#x91c;" horiz-adv-x="564" 
d="M211 342q0 34 -9 63h-107v79h319v98h-443v74h621v-74h-92v-582h-86v409h-124q8 -21 8 -63v-155q0 -72 -43 -109.5t-125 -37.5q-49 0 -91 11v80q48 -12 89 -12q83 0 83 70v149z" />
    <glyph glyph-name="uni091D" unicode="&#x91d;" horiz-adv-x="614" 
d="M464 317v265h-111v-154h-154q-36 0 -50.5 -13t-14.5 -39v-5q0 -27 14 -40t50 -14h266zM206 242h-7q-152 0 -152 127v9q0 127 152 127h67v77h-295v74h672v-74h-92v-582h-87v247h-126q24 -19 24 -65v-39q0 -68 -36.5 -99.5t-113.5 -31.5q-46 0 -80 8v-86h-84v227h84v-65
q25 -7 69 -7q76 0 76 59v35q0 29 -15.5 44t-55.5 15z" />
    <glyph glyph-name="uni091E" unicode="&#x91e;" horiz-adv-x="583" 
d="M232 199v162q0 34 -18 52.5t-63.5 18.5t-87.5 -14v78q39 16 88 16q168 0 168 -147v-49h114v266h-462v74h641v-74h-92v-582h-87v241h-114v-48q0 -146 -168 -146q-49 0 -93 16v78q51 -14 94 -14q80 0 80 72z" />
    <glyph glyph-name="uni091F" unicode="&#x91f;" horiz-adv-x="400" 
d="M136 350v-198q0 -77 100 -77q54 0 118 15v-79q-58 -15 -133.5 -15t-123.5 40t-48 115v204q0 143 160 143h42v84h-280v74h457v-74h-90v-163h-121q-81 0 -81 -69z" />
    <glyph glyph-name="uni0920" unicode="&#x920;" horiz-adv-x="412" 
d="M279 134v236q0 63 -72.5 63t-72.5 -63v-236q0 -63 72.5 -63t72.5 63zM363 372v-237q0 -67 -39 -103.5t-118 -36.5t-118 36.5t-39 103.5v237q0 115 113 133v77h-191v74h470v-74h-192v-77q114 -18 114 -133z" />
    <glyph glyph-name="uni0921" unicode="&#x921;" horiz-adv-x="417" 
d="M377 161v-27q0 -142 -184 -142q-68 0 -138 16v81q66 -17 138 -17q97 0 97 63v24q0 28 -15.5 42.5t-55.5 14.5h-20q-153 0 -153 127v35q0 127 153 127h61v77h-289v74h474v-74h-98v-154h-148q-37 0 -51.5 -13.5t-14.5 -40.5v-28q0 -27 14.5 -41t51.5 -14h20q158 0 158 -130
z" />
    <glyph glyph-name="uni0922" unicode="&#x922;" horiz-adv-x="415" 
d="M204 502h55v80h-288v74h473v-74h-99v-160h-141q-40 0 -55 -14.5t-15 -43.5v-220q0 -34 17 -51.5t61.5 -17.5t61 17.5t16.5 50.5v32q0 56 -54 56l-37 -5v77q19 6 46 6q61 0 95.5 -32.5t34.5 -99.5v-37q0 -145 -163 -145t-163 147v224q0 69 37.5 102.5t117.5 33.5z" />
    <glyph glyph-name="uni0923" unicode="&#x923;" horiz-adv-x="622" 
d="M268 582h-134v-327q0 -30 14 -46t53.5 -16t53 15.5t13.5 46.5v327zM355 254q0 -140 -154 -140t-154 140v328h-76v74h680v-74h-92v-582h-86v582h-118v-328z" />
    <glyph glyph-name="uni0924" unicode="&#x924;" horiz-adv-x="443" 
d="M47 357q0 67 40 105.5t119 38.5q46 0 87 -11v92h-322v74h501v-74h-92v-582h-87v411q-47 10 -78 10q-81 0 -81 -67v-216q0 -30 17 -44.5t58 -13.5v-81h-23q-73 0 -106 34t-33 99v225z" />
    <glyph glyph-name="uni0925" unicode="&#x925;" horiz-adv-x="563" 
d="M413 656h179v-74h-93v-582h-86v97q-60 -15 -137 -15q-233 0 -233 198v110h102q58 0 82 17.5t24 66.5v46q0 33 -10 47.5t-42.5 14.5t-43.5 -15t-11 -48l4 -43h-84q-4 23 -4 43q0 142 136 142q72 0 103 -35t31 -106v-56q0 -79 -42.5 -115t-133.5 -36h-22v-31
q0 -65 33 -92.5t111 -27.5t137 14v480z" />
    <glyph glyph-name="uni0926" unicode="&#x926;" horiz-adv-x="412" 
d="M40 209v156q0 70 38.5 102.5t119.5 32.5h61v82h-288v74h469v-74h-94v-161h-148q-41 0 -56.5 -15t-15.5 -44v-151q0 -63 79 -63q34 0 69 8v94h86v-256h-86v84q-34 -8 -79 -8q-76 0 -115.5 36t-39.5 103z" />
    <glyph glyph-name="uni0927" unicode="&#x927;" horiz-adv-x="496" 
d="M61 519q0 34 9 63h-99v74h274v-74h-86q-12 -21 -12 -63v-57q0 -29 14.5 -43.5t54.5 -15.5h37v-80h-40q-40 0 -56 -15t-16 -44v-45q0 -80 107 -80q50 0 98 13v504h179v-74h-92v-582h-87v74q-42 -13 -118 -13t-124.5 38t-48.5 112v55q0 79 55 98q-49 22 -49 96v59z" />
    <glyph glyph-name="uni0928" unicode="&#x928;" horiz-adv-x="583" 
d="M184 403q-33 0 -46 -14t-13 -42v-154q0 -28 13 -42t46.5 -14t46.5 14t13 42v142q0 28 -10 68h-50zM433 403h-116q10 -30 10 -66v-144q0 -135 -143 -135t-143 135v156q0 134 143 134h249v99h-462v74h641v-74h-92v-582h-87v403z" />
    <glyph glyph-name="uni0928093C" unicode="&#x929;" horiz-adv-x="589" 
d="M-18 -24.5q0 51.5 51.5 51.5t51.5 -51.5t-51.5 -51.5t-51.5 51.5zM191 403q-33 0 -46 -14t-13 -42v-154q0 -28 13 -42t46.5 -14t46.5 14t13 42v142q0 24 -11 68h-49zM439 403h-116q10 -30 10 -66v-144q0 -135 -142.5 -135t-142.5 135v156q0 134 143 134h248v99h-468v74
h647v-74h-92v-582h-87v403z" />
    <glyph glyph-name="uni092A" unicode="&#x92a;" horiz-adv-x="431" 
d="M281 582h-146v-319q0 -61 76 -61q40 0 70 11v369zM281 0v135q-29 -11 -80 -11q-153 0 -153 137v321h-77v74h489v-74h-92v-582h-87z" />
    <glyph glyph-name="uni092B" unicode="&#x92b;" horiz-adv-x="614" 
d="M271 582h-136v-329q0 -62 77 -62q31 0 59 7v384zM417 420q-32 0 -61 -9v-411h-85v122q-39 -9 -70 -9q-152 0 -152 137v332h-78v74h672v-74h-287v-92q32 10 70 10q73 0 110 -36t37 -101v-166q0 -134 -139 -134l-17 1v80q39 -1 54 13.5t15 45.5v158q0 59 -69 59z" />
    <glyph glyph-name="uni092C" unicode="&#x92c;" horiz-adv-x="435" 
d="M-29 656h493v-74h-93v-582h-82v76q-33 -11 -81 -11q-167 0 -167 141v158q0 141 164 141q53 0 84 -12v89h-318v74zM212 431q-68 0 -83 -42l160 -135v165q-31 12 -77 12zM125 209q0 -70 87 -70q44 0 77 10v37l-164 140v-117z" />
    <glyph glyph-name="uni092D" unicode="&#x92d;" horiz-adv-x="605" 
d="M254 407v114q0 31 -12 45.5t-47.5 14.5t-48 -15t-12.5 -45l4 -45h-87q-4 27 -4 48q0 137 147 137t147 -137v-117h114v249h179v-74h-92v-582h-87v333h-117v-144q0 -130 -147 -130t-147 130v90q0 128 147 128h63zM254 191v142h-63q-38 0 -50.5 -13.5t-12.5 -43.5v-85
q0 -29 12.5 -42.5t50.5 -13.5t50.5 13.5t12.5 42.5z" />
    <glyph glyph-name="uni092E" unicode="&#x92e;" horiz-adv-x="586" 
d="M437 0v360h-112v-170q0 -131 -147 -131t-147 131v116q0 129 147 129h63v147h-270v74h644v-74h-92v-582h-86zM325 435h112v147h-112v-147zM241 192v168h-63q-38 0 -50.5 -13.5t-12.5 -42.5v-112q0 -29 12.5 -43t50.5 -14t50.5 13.5t12.5 43.5z" />
    <glyph glyph-name="uni092F" unicode="&#x92f;" horiz-adv-x="507" 
d="M172 519q0 37 -8 63h-193v74h565v-74h-92v-582h-87v96q-51 -11 -103 -11q-93 0 -150 42t-57 133v128h22q60 0 81.5 14t21.5 55v62zM257 519v-74q0 -117 -125 -120v-56q0 -52 30.5 -77.5t87.5 -25.5t107 10v406h-108q8 -23 8 -63z" />
    <glyph glyph-name="uni0930" unicode="&#x930;" horiz-adv-x="422" 
d="M282 519q0 40 -9 63h-302v74h480v-74h-90q7 -21 7 -63v-128q0 -138 -148 -138q-45 0 -79 12v-112q0 -79 106 -79q61 0 127 20v-80q-61 -19 -142.5 -19t-129.5 41t-48 115v299h87v-109q37 -11 70 -11q71 0 71 62v127z" />
    <glyph glyph-name="uni0930093C" unicode="&#x931;" horiz-adv-x="426" 
d="M285 519q0 37 -8 63h-306v74h484v-74h-90q7 -21 7 -63v-128q0 -138 -148 -138q-45 0 -79 12v-112q0 -79 106 -79q61 0 127 20v-80q-61 -19 -142.5 -19t-129.5 41t-48 115v299h87v-109q37 -11 73.5 -11t51.5 16t15 46v127zM20 -122q-51 0 -51 51.5t51 51.5t51 -51.5
t-51 -51.5z" />
    <glyph glyph-name="uni0932" unicode="&#x932;" horiz-adv-x="629" 
d="M46 162v182q0 67 38 103.5t113.5 36.5t106.5 -48q35 47 109 47q39 0 66 -11v110h-508v74h687v-74h-92v-582h-87v392q-24 12 -60 12q-70 0 -70 -61v-134h-86v134q0 29 -14.5 45t-51 16t-50.5 -16t-14 -46v-178q0 -41 20 -63t73 -22q28 0 58 4v-78q-27 -5 -62 -5
q-176 0 -176 162z" />
    <glyph glyph-name="uni0933" unicode="&#x933;" horiz-adv-x="602" 
d="M343 349v-214q0 -64 68 -64q38 0 51.5 16.5t13.5 47.5v214q0 31 -13.5 48t-51.5 17t-53 -17t-15 -48zM129 349v-214q0 -31 13.5 -47.5t51.5 -16.5q67 0 67 64v214q0 31 -14.5 48t-52.5 17t-51.5 -16.5t-13.5 -48.5zM556 350v-216q0 -139 -142 -139q-80 0 -111 50
q-33 -50 -112 -50q-145 0 -145 139v218q0 138 146 138q79 0 111 -51q20 35 66 44v99h-398v74h660v-74h-175v-97q100 -19 100 -135z" />
    <glyph glyph-name="uni0933093C" unicode="&#x934;" horiz-adv-x="602" 
d="M303 -163q-51 0 -51 51.5t51 51.5t51 -51.5t-51 -51.5zM343 349v-214q0 -64 68 -64q38 0 51.5 16.5t13.5 47.5v214q0 31 -13.5 48t-51.5 17t-53 -17t-15 -48zM129 349v-214q0 -31 13.5 -47.5t51.5 -16.5q67 0 67 64v214q0 31 -14.5 48t-52.5 17t-51.5 -16.5t-13.5 -48.5z
M556 350v-216q0 -139 -142 -139q-80 0 -111 50q-33 -50 -112 -50q-145 0 -145 139v218q0 138 146 138q79 0 111 -51q20 35 66 44v99h-398v74h660v-74h-175v-97q100 -19 100 -135z" />
    <glyph glyph-name="uni0935" unicode="&#x935;" horiz-adv-x="432" 
d="M208 430q-80 0 -80 -65v-159q0 -66 81 -66q49 0 76 11v269q-30 10 -77 10zM282 582h-311v74h490v-74h-92v-582h-87v75q-44 -11 -85 -11q-154 0 -154 140v162q0 66 38.5 102.5t115.5 36.5q45 0 85 -10v87z" />
    <glyph glyph-name="uni0936" unicode="&#x936;" horiz-adv-x="611" 
d="M371 521v-137q0 -137 -150 -137q-41 0 -77 12v-98q0 -84 104 -84q52 0 116 20v-80q-57 -19 -134.5 -19t-125 44t-47.5 117v245h87v-68q33 -11 71 -11q69 0 69 61v133q0 62 -70 62q-40 0 -55 -17t-15 -43t3 -41h-87q-3 18 -3 41q0 67 39 103.5t118 36.5t118 -36.5
t39 -103.5zM461 656h179v-74h-93v-582h-86v656z" />
    <glyph glyph-name="uni0937" unicode="&#x937;" horiz-adv-x="446" 
d="M-30 656h505v-74h-92v-582h-86v128q-45 -13 -94 -13q-78 0 -117 35.5t-39 101.5v330h-77v74zM297 582h-163v-78l163 -150v228zM134 254q0 -61 81 -61q42 0 82 14v74l-163 149v-176z" />
    <glyph glyph-name="uni0938" unicode="&#x938;" horiz-adv-x="613" 
d="M265 519q0 34 -9 63h-285v74h671v-74h-92v-582h-87v281h-147q-37 -37 -113 -37q-34 0 -64 8v-99q0 -79 106 -79q56 0 122 20v-80q-59 -19 -139 -19t-128 41t-48 115v299h87v-121q32 -8 55 -8q71 0 71 62v136zM463 356v226h-120q7 -21 7 -63v-136q0 -9 -2 -27h115z" />
    <glyph glyph-name="uni0939" unicode="&#x939;" horiz-adv-x="428" 
d="M45 140v43q0 69 51 95q-49 24 -49 91v15q0 63 37 92.5t114 29.5h75v76h-302v74h486v-74h-97v-153h-162q-37 0 -51 -12.5t-14 -38.5v-10q0 -26 14.5 -38.5t51.5 -12.5h55q69 0 99.5 -30.5t30.5 -93.5v-30h-79v24q0 31 -11 43.5t-48 12.5h-41q-73 0 -73 -57v-43
q0 -72 109 -72q72 0 129 17v-76q-51 -18 -138.5 -18t-137 38t-49.5 108z" />
    <glyph glyph-name="uni093C" unicode="&#x93c;" horiz-adv-x="0" 
d="M-204 -152q-51 0 -51 51.5t51 51.5t51 -51.5t-51 -51.5z" />
    <glyph glyph-name="uni093D" unicode="&#x93d;" horiz-adv-x="420" 
d="M387 197v-52q0 -150 -166 -150h-9q-166 0 -166 150v63h86v-65q0 -32 17 -49.5t65 -17.5h4q48 0 65 17.5t17 49.5v55q0 30 -9.5 48t-36.5 34l-132 80q-78 46 -78 136v27q0 66 35 99.5t116 33.5h168v-81h-163q-43 0 -56 -14t-13 -42v-20q0 -27 10 -45t37 -34l130 -78
q46 -29 62.5 -62t16.5 -83z" />
    <glyph glyph-name="uni093E" unicode="&#x93e;" 
d="M63 582h-92v74h271v-74h-92v-582h-87v582z" />
    <glyph glyph-name="uni093F" unicode="&#x93f;" 
d="M65 656v33q0 197 235 197q68 0 135 -13t99 -27l33 -13v-78q-45 19 -124 35t-150.5 16t-106.5 -28.5t-35 -90.5v-31h91v-74h-92v-582h-87v582h-92v74h94z" />
    <glyph glyph-name="uni0940" unicode="&#x940;" 
d="M63 656v96q0 29 -13.5 43t-47 14t-47.5 -14.5t-14 -42.5v-35h-86v36q0 135 147.5 135t147.5 -135v-97h92v-74h-92v-582h-87v582h-92v74h92z" />
    <glyph glyph-name="uni0941" unicode="&#x941;" horiz-adv-x="0" 
d="M-171 -161h64q35 0 46 11.5t11 38.5t-12 38.5t-40 11.5q-57 0 -99 -11v71q40 11 103.5 11t95 -28t31.5 -92t-28.5 -92.5t-94.5 -28.5h-85q-41 0 -73 13.5t-65 52.5l-98 109h104l56 -62q24 -27 41.5 -35t42.5 -8z" />
    <glyph glyph-name="uni0942" unicode="&#x942;" horiz-adv-x="0" 
d="M-41 -225q-1 0 -9.5 -2t-17.5 -3q-29 -5 -56 -5q-67 0 -99 28.5t-32 92t29 92t95 28.5h42q51 0 85 -16.5t65 -57.5l123 -156h-98l-85 105q-27 33 -44.5 44t-53.5 11h-22q-35 0 -46 -11.5t-11 -38t12 -38.5t37.5 -12t85.5 10v-71z" />
    <glyph glyph-name="uni0943" unicode="&#x943;" horiz-adv-x="0" 
d="M-65 -65q-42 9 -80.5 9t-55 -12t-16.5 -50.5t16.5 -51.5t42.5 -13q42 0 96 9v-79q-40 -9 -89 -9q-151 0 -151 144q0 141 151 141q36 0 86 -10v-78z" />
    <glyph glyph-name="uni0944" unicode="&#x944;" horiz-adv-x="0" 
d="M-65 -60q-56 8 -88 8t-46.5 -12.5t-14.5 -42.5v-3q0 -30 13.5 -39.5t43.5 -9.5h70v-74h-66q-33 0 -47 -12t-14 -42v-4q0 -29 14.5 -39t61.5 -10t81 6v-78q-39 -7 -99 -7q-145 0 -145 131q0 60 32 91q-32 30 -32 93q0 126 145 126q29 0 58 -3.5t33 -3.5v-75z" />
    <glyph glyph-name="uni0945" unicode="&#x945;" horiz-adv-x="0" 
d="M-17 857h85v-2q0 -71 -43.5 -103t-131 -32t-131.5 32t-44 103v2h85q0 -34 20.5 -47.5t69.5 -13.5t69.5 13.5t20.5 47.5z" />
    <glyph glyph-name="uni0946" unicode="&#x946;" horiz-adv-x="0" 
d="M-148 656q0 39 -19 59t-70 20q-89 0 -129.5 35.5t-40.5 114.5h85q0 -39 19 -58.5t70 -19.5q88 0 129 -37t41 -114h-85z" />
    <glyph glyph-name="uni0947" unicode="&#x947;" horiz-adv-x="0" 
d="M-290 885q42 0 70 -15.5t54 -55.5l103 -158h-90l-76 115q-26 40 -70 40q-17 0 -26 -1v73q22 2 35 2z" />
    <glyph glyph-name="uni0948" unicode="&#x948;" horiz-adv-x="0" 
d="M-209 885q75 0 101 -82l45 -147h-77l-35 109q-8 25 -17 35.5t-22 10.5t-25 -2v74q18 2 30 2zM-394 885q39 0 66 -17.5t56 -58.5l105 -153h-87l-79 115q-29 40 -70 40q-18 0 -26 -1v73q20 2 35 2z" />
    <glyph glyph-name="uni0949" unicode="&#x949;" 
d="M199 858h85v-2q0 -72 -43.5 -103.5t-131 -31.5t-131 31.5t-43.5 103.5v2h85q0 -34 20 -47.5t68.5 -13.5t69.5 13.5t21 47.5zM63 582h-92v74h271v-74h-92v-582h-87v582z" />
    <glyph glyph-name="uni094A" unicode="&#x94a;" 
d="M63 582h-92v74h93q0 39 -18.5 59t-69.5 20q-90 0 -130.5 35.5t-40.5 114.5h85q0 -39 19 -58.5t70 -19.5q88 0 129 -37t41 -114h93v-74h-92v-582h-87v582z" />
    <glyph glyph-name="uni094B" unicode="&#x94b;" 
d="M242 656v-74h-92v-582h-87v582h-92v74h89l-76 115q-26 40 -70 40q-17 0 -26 -1v73q22 2 49 2q64 0 110 -71l103 -158h92z" />
    <glyph glyph-name="uni094C" unicode="&#x94c;" 
d="M242 656v-74h-92v-582h-87v582h-151v74h43l-79 115q-29 40 -70 40q-17 0 -26 -1v73q22 2 35 2q39 0 66 -17.5t57 -58.5l104 -153h28l-35 109q-8 25 -17.5 35.5t-22 10.5t-24.5 -2v74q18 2 30 2q75 0 100 -82l45 -147h96z" />
    <glyph glyph-name="uni094D" unicode="&#x94d;" horiz-adv-x="0" 
d="M48 -214h-93l-99 156h79z" />
    <glyph glyph-name="uni0950" unicode="&#x950;" horiz-adv-x="788" 
d="M433 266v255q0 140 153.5 140t153.5 -139v-361q0 -83 -46 -124.5t-147 -41.5q-48 0 -88 9v80q43 -8 97 -8t76.5 21.5t22.5 68.5v353q0 30 -14.5 46t-54 16t-54 -16t-14.5 -46v-290q0 -20 -8 -29t-30 -9h-150v-50q-2 -146 -174 -146q-58 0 -110 14v81q57 -16 109 -16
q89 0 89 69v80q0 34 -15.5 51t-58.5 18h-60v80h60q43 1 58.5 18t15.5 50v72q0 69 -88 69q-48 0 -98 -15v81q42 14 98 14q88 0 131 -38t43 -108v-75q0 -85 -49 -108q35 -17 45 -66h107zM557 824v-3q0 -71 -44 -103t-131.5 -32t-131 32t-43.5 103v3h85q0 -35 20.5 -48.5
t69 -13.5t69.5 13.5t21 48.5h85zM382 822q-49 0 -49 49.5t49 49.5t49 -49.5t-49 -49.5z" />
    <glyph glyph-name="uni0951" unicode="&#x951;" horiz-adv-x="0" 
d="M-150 947h87v-243h-87v243z" />
    <glyph glyph-name="uni0952" unicode="&#x952;" horiz-adv-x="0" 
d="M-28 -154h-407v74h407v-74z" />
    <glyph glyph-name="uni0953" unicode="&#x953;" horiz-adv-x="337" 
d="M53 947h92l113 -243h-92z" />
    <glyph glyph-name="uni0954" unicode="&#x954;" horiz-adv-x="331" 
d="M166 947h92l-113 -243h-92z" />
    <glyph glyph-name="uni0915093C" unicode="&#x958;" horiz-adv-x="599" 
d="M69 -25.5q0 51.5 51.5 51.5t51.5 -51.5t-51.5 -51.5t-51.5 51.5zM219 427l-21 1q-39 0 -54.5 -15.5t-15.5 -44.5v-170q0 -61 70 -61q34 0 62 10v435h-286v74h654v-74h-283v-85q24 8 67 8q146 0 146 -135v-167q0 -134 -132 -134q-13 0 -23 2v81q4 -1 26 -1q45 0 45 58v159
q0 61 -70 61q-29 0 -59 -8v-421h-85v72q-54 -9 -70 -9q-146 0 -146 132v175q0 134 146 134q22 0 29 -3v-74z" />
    <glyph glyph-name="uni0916093C" unicode="&#x959;" horiz-adv-x="750" 
d="M256 519q0 34 -11 63h-274v74h808v-74h-92v-582h-85v127q-30 -8 -71 -8q-76 0 -109 33.5t-33 100.5v111q0 68 32 102t107 34q37 0 74 -7v89h-274q10 -21 10 -63v-121q0 -149 -149 -149q-27 0 -61 6v-73q0 -107 144 -107q71 0 132 19v-82q-62 -16 -137 -16q-106 0 -164 47
t-58 138v264h83v-114q34 -4 64 -4q64 0 64 72v120zM602 416q-37 8 -70.5 8t-48 -15t-14.5 -45v-111q0 -29 14.5 -44t56 -15t62.5 7v215zM40 -15q51 0 51 -51.5t-51 -51.5t-51 51.5t51 51.5z" />
    <glyph glyph-name="uni0917093C" unicode="&#x95a;" horiz-adv-x="487" 
d="M27 270l31 -2q64 0 64 61v253h-147v74h541v-74h-91v-582h-87v582h-130v-258q0 -66 -35.5 -102.5t-103.5 -36.5q-27 0 -42 3v82zM111 106q51 0 51 -51.5t-51 -51.5t-51 51.5t51 51.5z" />
    <glyph glyph-name="uni091C093C" unicode="&#x95b;" horiz-adv-x="564" 
d="M211 342q0 34 -9 63h-107v79h319v98h-443v74h621v-74h-92v-582h-86v409h-124q8 -21 8 -63v-155q0 -72 -43 -109.5t-125 -37.5q-49 0 -91 11v80q48 -12 89 -12q83 0 83 70v149zM-5 -52.5q0 51.5 51.5 51.5t51.5 -51.5t-51.5 -51.5t-51.5 51.5z" />
    <glyph glyph-name="uni0921093C" unicode="&#x95c;" horiz-adv-x="417" 
d="M377 161v-27q0 -142 -184 -142q-68 0 -138 16v81q66 -17 138 -17q97 0 97 63v24q0 28 -15.5 42.5t-55.5 14.5h-20q-153 0 -153 127v35q0 127 153 127h61v77h-289v74h474v-74h-98v-154h-148q-37 0 -51.5 -13.5t-14.5 -40.5v-28q0 -27 14.5 -41t51.5 -14h20q158 0 158 -130
zM161 -128.5q0 51.5 51.5 51.5t51.5 -51.5t-51.5 -51.5t-51.5 51.5z" />
    <glyph glyph-name="uni0922093C" unicode="&#x95d;" horiz-adv-x="415" 
d="M213 -180q-51 0 -51 51.5t51 51.5t51 -51.5t-51 -51.5zM237 231q-22 0 -38 -8v78q20 8 49 8q127 0 127 -132v-37q0 -145 -163 -145t-163 147v224q0 69 37.5 102.5t117.5 33.5h55v80h-288v74h473v-74h-99v-160h-141q-40 0 -55 -14.5t-15 -43.5v-220q0 -34 17 -51.5
t61.5 -17.5t61 17.5t16.5 50.5v32q0 56 -53 56z" />
    <glyph glyph-name="uni092B093C" unicode="&#x95e;" horiz-adv-x="618" 
d="M275 582h-135v-329q0 -62 77 -62q32 0 58 7v384zM475 405q-15 15 -51 15t-63 -9v-411h-86v122q-39 -9 -69 -9q-153 0 -153 137v332h-82v74h676v-74h-286v-92q31 10 70 10q73 0 109.5 -36t36.5 -101v-166q0 -134 -138 -134l-18 1v80q40 -1 54.5 13.5t14.5 45.5v158
q0 29 -15 44zM33 -0.5q0 51.5 51.5 51.5t51.5 -51.5t-51.5 -51.5t-51.5 51.5z" />
    <glyph glyph-name="uni092F093C" unicode="&#x95f;" horiz-adv-x="510" 
d="M175 519q0 40 -7 63h-197v74h568v-74h-92v-582h-87v96q-48 -11 -102 -11q-94 0 -151 42t-57 133v128h22q60 0 81.5 14t21.5 55v62zM260 519v-74q0 -117 -124 -120v-56q0 -52 30 -77.5t88 -25.5t106 10v406h-107q7 -23 7 -63zM79 -51q-50 0 -50 51.5t50 51.5
q52 0 52 -51.5t-52 -51.5z" />
    <glyph glyph-name="uni0960" unicode="&#x960;" horiz-adv-x="709" 
d="M738 582h-340v-156q48 -3 100.5 -3t71 16.5t18.5 50.5v10h84v-275h-51q-34 0 -47.5 -14t-13.5 -48q0 -59 69 -59h28v-74h-38q-30 0 -44.5 -11t-14.5 -46t15.5 -46t61.5 -11t64 3v-74q-19 -4 -80 -4q-147 0 -147 124q0 68 38 100q-37 32 -37 96t29 93t87 31v83
q-27 -26 -79 -26t-114 4v-346h-83v92q0 107 4 139h-1q-4 -9 -68 -86l-106 -111h-111l278 292v33q0 27 -23.5 42.5t-73 15.5t-71 -19.5t-21.5 -58.5v-60h-84v65q0 153 171 153q80 0 102 -26v111h-340v74h767v-74z" />
    <glyph glyph-name="uni0961" unicode="&#x961;" horiz-adv-x="629" 
d="M566 174h-75q-33 0 -47 -12.5t-14 -43.5t13.5 -41t43.5 -10h57v-77h-52q-33 0 -47 -12.5t-14 -43.5t14 -41t63 -10t66 3v-78q-13 -3 -86 -3q-144 0 -144 130q0 61 33 92q-34 31 -34 92q0 126 136 130v108q0 47 -65 47t-65 -61v-79h-86v79q0 29 -14.5 45t-51 16t-50.5 -16
t-14 -46v-178q0 -41 20 -63t73 -22h28v-79h-32q-176 0 -176 162v182q0 67 38 103.5t113.5 36.5t106.5 -48q35 47 106 47q53 0 69 -18v117h-508v74h687v-74h-92v-408z" />
    <glyph glyph-name="uni0964" unicode="&#x964;" horiz-adv-x="296" 
d="M146 0v656h86v-656h-86z" />
    <glyph glyph-name="uni0965" unicode="&#x965;" horiz-adv-x="445" 
d="M295 0v656h87v-656h-87zM91 0v656h87v-656h-87z" />
    <glyph glyph-name="uni0966" unicode="&#x966;" horiz-adv-x="453" 
d="M307 521q0 82 -81 82q-44 0 -62 -21t-18 -61v-364q0 -40 18 -61t62 -21q81 0 81 82v364zM52 523q0 75 43 120t131.5 45t131.5 -45t43 -120v-369q0 -75 -43 -119.5t-131.5 -44.5t-131.5 44.5t-43 119.5v369z" />
    <glyph glyph-name="uni0967" unicode="&#x967;" horiz-adv-x="290" 
d="M228 678v-678h-94v573l-122 -88v105l121 88h95z" />
    <glyph glyph-name="uni0968" unicode="&#x968;" horiz-adv-x="413" 
d="M181 683q188 0 188 -150v-58q0 -53 -17.5 -88.5t-58.5 -64.5l-81 -61q-46 -33 -61 -55t-15 -63v-58h232v-85h-327v150q0 61 25 98t75 72l85 66q29 19 39 41t10 60v38q0 36 -20 53.5t-82.5 17.5t-120.5 -23v91q55 19 129 19z" />
    <glyph glyph-name="uni0969" unicode="&#x969;" horiz-adv-x="401" 
d="M156 683q190 0 190 -151v-69q0 -95 -72 -120q75 -20 75 -114v-83q0 -72 -47.5 -111.5t-136 -39.5t-139.5 19v90q61 -23 123 -23t84 18.5t22 54.5v64q0 39 -19 58.5t-63 19.5h-71v87h70q43 0 61 21t18 61v60q0 35 -21 53.5t-83.5 18.5t-107.5 -17v89q42 14 117 14z" />
    <glyph glyph-name="uni096A" unicode="&#x96a;" horiz-adv-x="422" 
d="M417 206v-83h-67v-123h-90v123h-250v87l207 468h133v-472h67zM262 206v383l-168 -383h168z" />
    <glyph glyph-name="uni096B" unicode="&#x96b;" horiz-adv-x="425" 
d="M57 678h304v-87h-211v-185q35 4 74 4q77 0 116 -39t39 -112v-113q0 -72 -47.5 -111.5t-133 -39.5t-146.5 21v90q73 -25 130 -25t79.5 18.5t22.5 53.5v96q0 40 -18 58t-64 18q-22 0 -145 -11v364z" />
    <glyph glyph-name="uni096C" unicode="&#x96c;" horiz-adv-x="442" 
d="M307 276q0 72 -76 72q-51 0 -85 -19v-173q0 -83 80.5 -83t80.5 83v120zM52 516q0 75 46.5 121t135.5 46t140 -19v-89q-53 21 -129 21q-99 0 -99 -87v-97q39 18 106.5 18t108 -38t40.5 -110v-128q0 -75 -43 -119.5t-131.5 -44.5t-131.5 44.5t-43 119.5v362z" />
    <glyph glyph-name="uni096D" unicode="&#x96d;" horiz-adv-x="346" 
d="M5 678h320v-75l-73 -225q-48 -150 -48 -278v-100h-96v106q0 130 50 283l64 203h-217v86z" />
    <glyph glyph-name="uni096E" unicode="&#x96e;" horiz-adv-x="461" 
d="M408 527v-67q0 -88 -63 -122q64 -35 64 -123v-65q0 -74 -44.5 -117t-134 -43t-134 43t-44.5 117v65q0 88 64 123q-63 34 -63 122v67q0 74 44 117.5t133.5 43.5t133.5 -43t44 -118zM147 527v-69q0 -82 83.5 -82t83.5 82v69q0 79 -83.5 79t-83.5 -79zM316 151v66
q0 83 -85.5 83t-85.5 -83v-66q0 -79 85.5 -79t85.5 79z" />
    <glyph glyph-name="uni096F" unicode="&#x96f;" horiz-adv-x="442" 
d="M296 522q0 83 -80.5 83t-80.5 -83v-124q0 -76 77 -76q56 0 84 19v181zM41 523q0 75 43 120t132 45t131.5 -44.5t42.5 -120.5v-371q0 -72 -48 -114.5t-137.5 -42.5t-142.5 20v90q61 -24 134 -24q100 0 100 79v97q-36 -18 -105.5 -18t-109.5 39.5t-40 111.5v133z" />
    <glyph glyph-name="uni0970" unicode="&#x970;" horiz-adv-x="391" 
d="M126 330q0 -41 15 -61t56 -20t56 20.5t15 60.5t-15 60.5t-56 20.5t-56 -20t-15 -61zM197 177q-148 0 -148 153.5t148 153.5t148 -153.5t-148 -153.5z" />
    <glyph glyph-name="uni0972" unicode="&#x972;" horiz-adv-x="576" 
d="M559 857h85v-2q0 -71 -43.5 -103t-131 -32t-131.5 32t-44 103v2h85q0 -34 20.5 -47.5t69.5 -13.5t69.5 13.5t20.5 47.5zM425 288v368h179v-74h-92v-582h-87v213h-103v-32q-2 -146 -174 -146q-63 0 -110 14v81q59 -16 109 -16q89 0 89 69v63q0 34 -15.5 51.5t-58.5 17.5
h-60v81h60q43 0 58.5 17t15.5 50v49q0 69 -88 69q-48 0 -98 -15v81q42 14 98 14q174 0 174 -146v-52q0 -84 -49 -107q37 -19 45 -68h107z" />
    <glyph glyph-name="uni097D" unicode="&#x97d;" horiz-adv-x="442" 
d="M58 436v96q0 70 41 110.5t127 40.5t126.5 -41t40.5 -110v-189q0 -69 -32.5 -107.5t-109.5 -42.5v-193h-82v271h57q47 0 63.5 20.5t16.5 56.5v182q0 73 -80.5 73t-80.5 -73v-94h-87z" />
    <glyph glyph-name="uni200B" unicode="&#x200b;" horiz-adv-x="0" 
 />
    <glyph glyph-name="uni200C" unicode="&#x200c;" horiz-adv-x="0" 
d="M24 -230h-47v1041h47v-1041z" />
    <glyph glyph-name="uni200D" unicode="&#x200d;" horiz-adv-x="0" 
d="M24 -230h-47v865l-69 -73l-33 33l93 93l-95 95l33 33l95 -95l96 95l32 -32l-96 -96l96 -95l-33 -33l-72 75v-865z" />
    <glyph glyph-name="endash" unicode="&#x2013;" horiz-adv-x="468" 
d="M40 366h378v-79h-378v79z" />
    <glyph glyph-name="emdash" unicode="&#x2014;" horiz-adv-x="702" 
d="M40 367h611v-80h-611v80z" />
    <glyph glyph-name="quoteleft" unicode="&#x2018;" horiz-adv-x="173" 
d="M70 505q-42 0 -42 40q0 29 24 82.5t47 91.5h46l-41 -214h-34z" />
    <glyph glyph-name="quoteright" unicode="&#x2019;" horiz-adv-x="173" 
d="M103 719q42 0 42 -40q0 -52 -71 -174h-46l41 214h34z" />
    <glyph glyph-name="quotesinglbase" unicode="&#x201a;" horiz-adv-x="173" 
d="M103 102q42 0 42 -40q0 -52 -71 -174h-46l41 214h34z" />
    <glyph glyph-name="quotedblleft" unicode="&#x201c;" horiz-adv-x="300" 
d="M70 505q-42 0 -42 40q0 29 24 82.5t47 91.5h42l-41 -214h-30zM201 505q-42 0 -42 40q0 54 70 174h43l-41 -214h-30z" />
    <glyph glyph-name="quotedblright" unicode="&#x201d;" horiz-adv-x="300" 
d="M99 719q42 0 42 -40q0 -29 -24 -82.5t-47 -91.5h-42l41 214h30zM230 719q42 0 42 -40q0 -29 -24 -82.5t-47 -91.5h-42l40 214h31z" />
    <glyph glyph-name="quotedblbase" unicode="&#x201e;" horiz-adv-x="300" 
d="M99 102q42 0 42 -40q0 -29 -24 -82.5t-47 -91.5h-42l41 214h30zM230 102q42 0 42 -40q0 -29 -24 -82.5t-47 -91.5h-42l40 214h31z" />
    <glyph glyph-name="dagger" unicode="&#x2020;" horiz-adv-x="364" 
d="M140 794h86l-7 -145q49 7 107 7v-74q-42 0 -107 7q7 -77 7 -158v-460h-86v460q0 58 7 158q-46 -7 -107 -7v74q46 0 107 -7q-7 77 -7 145z" />
    <glyph glyph-name="daggerdbl" unicode="&#x2021;" horiz-adv-x="364" 
d="M139 794h86l-7 -145q46 7 107 7v-74q-46 0 -107 7q4 -204 0 -413q46 7 107 7v-74q-61 0 -107 7q7 -54 7 -145h-86q0 89 7 145q-46 -7 -107 -7v74q61 0 107 -7q-4 208 0 413q-46 -7 -107 -7v74q46 0 107 -7q-7 77 -7 145z" />
    <glyph glyph-name="bullet" unicode="&#x2022;" horiz-adv-x="264" 
d="M51 329q0 80 80.5 80t80.5 -80t-80.5 -80t-80.5 80z" />
    <glyph glyph-name="ellipsis" unicode="&#x2026;" horiz-adv-x="615" 
d="M249 49.5q0 51.5 51.5 51.5t51.5 -51.5t-51.5 -51.5t-51.5 51.5zM51 49.5q0 51.5 51.5 51.5t51.5 -51.5t-51.5 -51.5t-51.5 51.5zM447 49.5q0 51.5 51.5 51.5t51.5 -51.5t-51.5 -51.5t-51.5 51.5z" />
    <glyph glyph-name="perthousand" unicode="&#x2030;" horiz-adv-x="889" 
d="M617 143q0 151 120 151t120 -151t-120 -151t-120 151zM787 143q0 86 -50.5 86t-50.5 -86t50.5 -86t50.5 86zM336 143q0 151 120.5 151t120.5 -151q0 -71 -30 -111t-91 -40q-120 0 -120 151zM506 143q0 86 -50.5 86t-50.5 -86t50.5 -86t50.5 86zM35 535q0 71 30 111t90 40
q121 0 121 -151t-121 -151q-60 0 -90 40t-30 111zM155 448q50 0 50 86.5t-50 86.5t-50 -86.5t50 -86.5zM415 678h67l-285 -678h-67z" />
    <glyph glyph-name="guilsinglleft" unicode="&#x2039;" horiz-adv-x="400" 
d="M205 505h96l-122 -183l122 -183h-96l-121 183z" />
    <glyph glyph-name="guilsinglright" unicode="&#x203a;" horiz-adv-x="380" 
d="M84 505h96l121 -183l-121 -183h-96l122 183z" />
    <glyph glyph-name="fraction" unicode="&#x2044;" horiz-adv-x="272" 
d="M281 678h65l-354 -678h-65z" />
    <glyph glyph-name="foursuperior" unicode="&#x2074;" horiz-adv-x="309" 
d="M193 438v249l-116 -249h116zM256 739v-301h47v-58h-47v-91h-63v91h-177v60l141 299h99z" />
    <glyph glyph-name="Euro" unicode="&#x20ac;" horiz-adv-x="426" 
d="M163 243v-92q0 -35 22 -53t81 -18t116 16v-85q-52 -16 -122 -16q-192 0 -192 150v98h-52v66h52v69h-52v65h52v90q0 71 48 110.5t145 39.5q64 0 118 -15v-87q-59 17 -116 17t-78.5 -18t-21.5 -54v-83h139v-65h-139v-69h139v-66h-139z" />
    <glyph glyph-name="uni20B9" unicode="&#x20b9;" horiz-adv-x="468" 
d="M344 430v-16q0 -79 -39 -113.5t-130 -34.5h-28l205 -266h-102l-202 266v74h125q52 0 69.5 17.5t17.5 58.5v14h-211v67h211v23q0 62 -76 62h-136v74h379v-74h-112q29 -22 29 -64v-21h84v-67h-84z" />
    <glyph glyph-name="uni2113" unicode="&#x2113;" horiz-adv-x="421" 
d="M17 209q30 23 72 50v316q0 77 37 118.5t109.5 41.5t112 -45.5t39.5 -129.5q0 -189 -206 -344v-80q0 -57 60 -57q23 0 65 12v-85q-1 0 -9.5 -2t-17.5 -4q-27 -6 -52 -6q-138 0 -138 136v23q-60 -38 -72 -47v103zM181 575v-242q113 107 113 227q0 87 -56.5 87t-56.5 -72z
" />
    <glyph glyph-name="trademark" unicode="&#x2122;" horiz-adv-x="582" 
d="M518 706v-245h-48v129l11 96l-60 -225h-40l-60 225l11 -96v-129h-49v245h75l35 -140l8 -47l8 47l35 140h74zM81 664v42h181v-42h-65v-203h-51v203h-65z" />
    <glyph glyph-name="uni2126" unicode="&#x2126;" horiz-adv-x="515" 
d="M76 523q0 75 46 120t136 45t135.5 -45t45.5 -120v-355q0 -64 -33 -86h68v-82h-182v81q53 9 53 77v362q0 82 -87.5 82t-87.5 -82v-362q0 -68 54 -77v-81h-182v82h68q-34 23 -34 86v355z" />
    <glyph glyph-name="estimated" unicode="&#x212e;" horiz-adv-x="674" 
d="M479 469q-51 38 -134 38t-134 -43v-153h268v158zM140 69.5q-80 79.5 -80 204.5t79.5 206t206.5 81t200 -74t73 -198q0 -6 -2 -30h-406v-171q58 -43 143 -43q142 0 202 105l47 -28q-77 -132 -251 -132q-132 0 -212 79.5z" />
    <glyph glyph-name="partialdiff" unicode="&#x2202;" horiz-adv-x="453" 
d="M227 375q-79 0 -79 -77v-145q0 -78 78.5 -78t78.5 77v198q-23 25 -78 25zM397 308v-158q0 -73 -43 -115.5t-128 -42.5t-127 42.5t-42 115.5v150q0 150 149 150q57 0 85 -33q-36 136 -154 261h113q55 -61 101 -160t46 -210z" />
    <glyph glyph-name="uni2206" unicode="&#x2206;" horiz-adv-x="474" 
d="M294 678l133 -678h-369l133 678h103zM243 561l-88 -477h175z" />
    <glyph glyph-name="product" unicode="&#x220f;" horiz-adv-x="486" 
d="M62 678h362v-678h-96v594h-171v-594h-95v678z" />
    <glyph glyph-name="summation" unicode="&#x2211;" horiz-adv-x="395" 
d="M27 678h337v-81h-235l119 -258l-119 -258h235v-81h-337v78l121 261l-121 260v79z" />
    <glyph glyph-name="minus" unicode="&#x2212;" horiz-adv-x="455" 
d="M40 366h374v-79h-374v79z" />
    <glyph glyph-name="uni2215" unicode="&#x2215;" horiz-adv-x="272" 
d="M245 678h67l-284 -678h-68z" />
    <glyph glyph-name="uni2219" unicode="&#x2219;" horiz-adv-x="179" 
d="M34 338q0 55 55 55t55 -55t-55 -55t-55 55z" />
    <glyph glyph-name="radical" unicode="&#x221a;" horiz-adv-x="439" 
d="M31 258v82h127l60 -249l113 587h91l-138 -678h-131l-64 258h-58z" />
    <glyph glyph-name="infinity" unicode="&#x221e;" horiz-adv-x="658" 
d="M328 398q68 94 146.5 94t110.5 -41t32 -115t-32 -115t-109 -41q-48 0 -82 24.5t-66 69.5q-67 -93 -145.5 -93t-110 40.5t-31.5 114.5t31.5 115t110.5 41t145 -94zM185 259q49 0 101 76q-52 77 -101 77q-39 0 -50 -18.5t-11 -58.5t11.5 -58t49.5 -18zM371 336
q53 -77 97 -77t55 18t11 58t-12 58.5t-50 18.5q-49 0 -101 -76z" />
    <glyph glyph-name="integral" unicode="&#x222b;" horiz-adv-x="279" 
d="M82 677q0 74 42 111t120 35v-82q-35 0 -51.5 -14.5t-16.5 -48.5v-676q0 -74 -42 -111.5t-120 -35.5v83q35 0 51.5 14t16.5 48v677z" />
    <glyph glyph-name="approxequal" unicode="&#x2248;" horiz-adv-x="511" 
d="M473 451q0 -71 -53 -94.5t-115 4.5l-104 41q-36 18 -61.5 7t-18.5 -52h-80q-4 18 -4 38q0 47 25 75q46 49 143 15l104 -41q39 -19 63.5 -7.5t17.5 52.5h79q4 -17 4 -38zM473 277q0 -71 -53 -94.5t-115 4.5l-104 41q-36 18 -61.5 7t-18.5 -52h-80q-4 18 -4 38q0 47 25 75
q46 49 143 15l104 -41q39 -19 63.5 -7.5t17.5 52.5h79q4 -17 4 -38z" />
    <glyph glyph-name="notequal" unicode="&#x2260;" horiz-adv-x="460" 
d="M415 380h-125l-43 -107h168v-79h-200l-40 -99h-77l40 99h-96v79h128l44 107h-172v79h204l41 101h76l-41 -101h93v-79z" />
    <glyph glyph-name="lessequal" unicode="&#x2264;" horiz-adv-x="460" 
d="M413 555v-84l-293 -104l293 -104v-85l-373 142v92zM40 74v80h373v-80h-373z" />
    <glyph glyph-name="greaterequal" unicode="&#x2265;" horiz-adv-x="460" 
d="M46 555l373 -143v-92l-373 -142v85l293 104l-293 104v84zM46 74v80h373v-80h-373z" />
    <glyph glyph-name="lozenge" unicode="&#x25ca;" horiz-adv-x="431" 
d="M307 287l-91 219l-92 -219l92 -219zM157 575h118l127 -288l-127 -287h-118l-128 287z" />
    <glyph glyph-name="uni25CC" unicode="&#x25cc;" horiz-adv-x="660" 
d="M257 560q0 20 12.5 32t31.5 12t31.5 -12t12.5 -32t-12.5 -32t-31.5 -12t-31.5 12t-12.5 32zM396 514q-13 13 -13 31.5t12.5 31.5t32 13t31.5 -12.5t12 -31.5t-12.5 -32t-31 -13t-31.5 13zM478 477q0 19 12.5 32t31.5 13t31.5 -12.5t12.5 -32t-12.5 -32t-31.5 -12.5
t-31.5 12.5t-12.5 31.5zM528 359q0 19 12 31.5t31.5 12.5t32 -12.5t12.5 -31.5t-12.5 -31.5t-32 -12.5t-31.5 12.5t-12 31.5zM518 225q0 19 13 32t31.5 13t31 -13t12.5 -32t-12.5 -31.5t-31 -12.5t-31.5 12.5t-13 31.5zM445 127q0 19 12.5 31.5t31.5 12.5t32 -12.5t13 -31.5
t-13 -31.5t-32 -12.5t-31.5 12.5t-12.5 31.5zM324 74q0 20 12 32t32 12t32.5 -12.5t12.5 -31.5t-12.5 -31.5t-32.5 -12.5t-32 12t-12 32zM210 57q-13 13 -13 32t13 32t32 13t31.5 -13t12.5 -32t-12.5 -32t-31.5 -13t-32 13zM96 165q0 19 12.5 31.5t31.5 12.5t31.5 -12.5
t12.5 -31.5t-12.5 -31.5t-32 -12.5t-31.5 12.5t-12 31.5zM44 281q0 19 12.5 32t31.5 13t31.5 -12.5t12.5 -32t-12.5 -31.5t-31.5 -12t-31.5 12t-12.5 31zM57 407q0 19 13 31.5t32 12.5t32 -12.5t13 -31.5t-13 -31.5t-32 -12.5t-32 12.5t-13 31.5zM151.5 484.5
q-12.5 12.5 -12.5 32t12.5 32t31.5 12.5t31.5 -12.5t12.5 -32t-12.5 -32t-31.5 -12.5t-31.5 12.5z" />
    <glyph glyph-name="commaaccent" unicode="&#xf6c3;" horiz-adv-x="350" 
d="M190 -61q29 0 29 -30.5t-50 -100.5h-39l27 131h33z" />
    <glyph glyph-name="itfLogo" horiz-adv-x="1734" 
d="M1396 237v196h207v-196h-207zM1396 475v196h207v-196h-207zM1146 0v671h208v-671h-208zM896 475v196h208v-196h-208zM647 0v671h207v-671h-207zM397 475v196h207v-196h-207zM147 0v671h207v-671h-207z" />
    <glyph glyph-name="uni0915094D" horiz-adv-x="407" 
d="M216 427l-21 1q-39 0 -54.5 -15.5t-15.5 -44.5v-170q0 -61 70 -61q35 0 62 10v435h-286v74h620v-74h-249v-86q24 8 68 8q77 0 108.5 -34.5t31.5 -100.5v-18h-79v16q0 31 -14 46t-52 15t-63 -8v-420h-85v72q-54 -9 -70 -9q-146 0 -146 132v175q0 134 146 134q21 0 29 -3
v-74z" />
    <glyph glyph-name="uni0916094D" horiz-adv-x="541" 
d="M387 253v111q0 68 34 101.5t113 33.5t113 -33.5t34 -101.5v-111q0 -71 -33.5 -102.5t-113.5 -31.5t-113.5 31.5t-33.5 102.5zM600 253v111q0 30 -14 45t-52.5 15t-52.5 -15t-14 -45v-111q0 -30 14 -44.5t53 -14.5t52.5 14.5t13.5 44.5zM254 519q0 37 -12 63h-271v74h708
v-74h-353q10 -21 10 -63v-121q0 -149 -149 -149q-27 0 -61 6v-73q0 -107 144 -107q71 0 132 19v-82q-62 -16 -137 -16q-106 0 -164 47t-58 138v264h83v-114q34 -4 64 -4q64 0 64 72v120z" />
    <glyph glyph-name="uni0917094D" horiz-adv-x="255" 
d="M23 270l31 -2q64 0 64 61v253h-147v74h313v-74h-80v-258q0 -66 -35.5 -102.5t-103.5 -36.5q-27 0 -42 3v82z" />
    <glyph glyph-name="uni0918094D" horiz-adv-x="283" 
d="M61 519q0 40 7 63h-97v74h375v-74h-190q-9 -21 -9 -63v-60q0 -29 14.5 -43.5t54.5 -15.5h37v-80h-40q-40 0 -56 -15t-16 -44v-41q0 -44 27 -62.5t83 -18.5t111 15v-77q-62 -16 -123 -16q-87 0 -135.5 39t-48.5 112v51q0 79 55 98q-49 22 -49 96v62z" />
    <glyph glyph-name="uni0919094D" horiz-adv-x="475" 
d="M371 343.5q0 51.5 51.5 51.5t51.5 -51.5t-51.5 -51.5t-51.5 51.5zM373 166v-32q0 -142 -184 -142q-68 0 -139 16v80q68 -16 128 -16t84 14t24 48v31q0 28 -15.5 42.5t-55.5 14.5h-20q-153 0 -153 127v29q0 127 153 127h61v77h-289v74h537v-74h-161v-154h-148
q-37 0 -51.5 -13.5t-14.5 -40.5v-22q0 -27 14.5 -41t51.5 -14h20q158 0 158 -131zM364 -214h-93l-99 156h79z" />
    <glyph glyph-name="uni091A094D" horiz-adv-x="254" 
d="M77 332q0 42 8 74h-78v78h258v-75h-91q-10 -25 -10 -78v-128q0 -66 80 -66q49 0 88 13v-77q-46 -14 -100 -14q-155 0 -155 142v131zM322 656v-74h-356v74h356z" />
    <glyph glyph-name="uni091B094D" horiz-adv-x="520" 
d="M371 405.5q-16 16.5 -50 16.5t-60 -10v75q32 10 68 10q72 0 107.5 -35.5t35.5 -98.5v-192q0 -85 -47 -121t-160.5 -36t-162 35t-48.5 115v31q0 73 55 94q-49 21 -49 95v131q0 48 25 67h-114v74h578v-74h-337q-36 0 -51 -16t-15 -52v-127q0 -29 14.5 -44t53.5 -15h61v-77
h-58q-42 0 -59 -14.5t-17 -46.5v-22q0 -45 24 -60.5t98.5 -15.5t99 17.5t24.5 64.5v178q0 37 -16 53.5z" />
    <glyph glyph-name="uni091C094D" horiz-adv-x="348" 
d="M211 342q0 34 -9 63h-107v79h325v-75h-130q8 -21 8 -63v-155q0 -72 -43 -109.5t-125 -37.5q-49 0 -91 11v80q48 -12 89 -12q83 0 83 70v149zM419 656v-74h-448v74h448z" />
    <glyph glyph-name="uni091D094D" horiz-adv-x="411" 
d="M216 12q-47 0 -81 8v-86h-84v227h84v-65q25 -7 67.5 -7t58.5 14.5t16 43.5v38q0 56 -67 57h-7q-156 0 -156 127v9q0 65 38.5 96t118.5 31h66v77h-299v74h516v-74h-130v-154h-153q-39 0 -54.5 -12.5t-15.5 -37.5v-6q0 -28 14.5 -41.5t53.5 -13.5h285v-70h-147
q24 -22 24 -65v-40q0 -68 -36 -99t-112 -31z" />
    <glyph glyph-name="uni091E094D" horiz-adv-x="367" 
d="M445 656v-74h-474v74h474zM445 316v-75h-126v-48q0 -146 -168 -146q-49 0 -93 16v78q51 -14 94 -14q80 0 80 72v162q0 34 -18 52.5t-63.5 18.5t-87.5 -14v78q39 16 88 16q168 0 168 -147v-49h126z" />
    <glyph glyph-name="uni091F094D" horiz-adv-x="400" 
d="M136 350v-198q0 -77 100 -77q54 0 118 15v-79q-58 -15 -133.5 -15t-123.5 40t-48 115v204q0 143 160 143h42v84h-280v74h457v-74h-90v-163h-121q-81 0 -81 -69zM362 -214h-93l-99 156h79z" />
    <glyph glyph-name="uni0920094D" horiz-adv-x="412" 
d="M279 134v236q0 63 -72.5 63t-72.5 -63v-236q0 -63 72.5 -63t72.5 63zM363 372v-237q0 -67 -39 -103.5t-118 -36.5t-118 36.5t-39 103.5v237q0 115 113 133v77h-191v74h470v-74h-192v-77q114 -18 114 -133zM365 -214h-93l-99 156h79z" />
    <glyph glyph-name="uni0921094D" horiz-adv-x="417" 
d="M377 161v-27q0 -142 -184 -142q-68 0 -138 16v81q66 -17 138 -17q97 0 97 63v24q0 28 -15.5 42.5t-55.5 14.5h-20q-153 0 -153 127v35q0 127 153 127h61v77h-289v74h474v-74h-98v-154h-148q-37 0 -51.5 -13.5t-14.5 -40.5v-28q0 -27 14.5 -41t51.5 -14h20q158 0 158 -130
zM367 -214h-93l-99 156h79z" />
    <glyph glyph-name="uni0922094D" horiz-adv-x="415" 
d="M204 502h55v80h-288v74h473v-74h-99v-160h-141q-40 0 -55 -14.5t-15 -43.5v-220q0 -34 17 -51.5t61.5 -17.5t61 17.5t16.5 50.5v32q0 56 -54 56l-37 -5v77q19 6 46 6q61 0 95.5 -32.5t34.5 -99.5v-37q0 -145 -163 -145t-163 147v224q0 69 37.5 102.5t117.5 33.5z
M370 -214h-93l-99 156h79z" />
    <glyph glyph-name="uni0923094D" horiz-adv-x="401" 
d="M148 209q14 -16 53.5 -16t53 15.5t13.5 46.5v327h-134v-327q0 -30 14 -46zM430 656v-74h-75v-328q0 -140 -154 -140t-154 140v328h-76v74h459z" />
    <glyph glyph-name="uni0924094D" horiz-adv-x="235" 
d="M322 656v-74h-351v74h351zM218 415q-84 0 -84 -66v-211q0 -30 17 -44.5t58 -13.5v-81h-23q-139 -3 -139 133v219q0 67 41 105.5t121 38.5q45 0 113 -10v-79q-54 9 -104 9z" />
    <glyph glyph-name="uni0925094D" horiz-adv-x="359" 
d="M164.5 189.5q33.5 -27.5 118 -27.5t148.5 17v-79q-63 -18 -155 -18q-233 0 -233 198v110h102q57 0 81 17.5t24 66.5v46q0 33 -9.5 47.5t-42.5 14.5t-44 -14.5t-11 -46.5l3 -45h-84q-3 30 -3 42q0 71 32.5 107t104.5 36t103 -35t31 -106v-56q0 -79 -42.5 -115t-133.5 -36
h-23v-31q0 -65 33.5 -92.5z" />
    <glyph glyph-name="uni0926094D" horiz-adv-x="412" 
d="M40 209v156q0 70 38.5 102.5t119.5 32.5h61v82h-288v74h469v-74h-94v-161h-148q-41 0 -56.5 -15t-15.5 -44v-151q0 -63 79 -63q34 0 69 8v94h86v-256h-86v84q-34 -8 -79 -8q-76 0 -115.5 36t-39.5 103zM475 -214h-93l-99 156h79z" />
    <glyph glyph-name="uni0927094D" horiz-adv-x="291" 
d="M61 519q0 40 7 63h-97v74h247v-74h-61q-10 -21 -10 -63v-57q0 -29 14.5 -43.5t54.5 -15.5h37v-80h-40q-40 0 -56 -15t-16 -44v-45q0 -80 107 -80q60 0 117 17v-79q-62 -16 -137 -16t-124 39t-49 111v55q0 79 55 98q-49 22 -49 96v59z" />
    <glyph glyph-name="uni0928094D" horiz-adv-x="378" 
d="M184 403q-33 0 -46 -14t-13 -42v-154q0 -28 13 -42t46.5 -14t46.5 14t13 42v142q0 28 -10 68h-50zM465 656v-74h-494v74h494zM466 483v-80h-149q10 -30 10 -66v-144q0 -135 -143 -135t-143 135v156q0 134 143 134h282z" />
    <glyph glyph-name="uni092A094D" horiz-adv-x="228" 
d="M205 124q-157 0 -157 137v321h-77v74h328v-74h-164v-319q0 -61 79 -61q47 0 86 13v-78q-41 -13 -95 -13z" />
    <glyph glyph-name="uni092B094D" horiz-adv-x="442" 
d="M271 582h-136v-329q0 -62 77 -62q31 0 59 7v384zM356 582v-91q35 8 82 8q78 0 111.5 -35t33.5 -100v-7h-79v5q0 30 -16 45.5t-60 15.5t-72 -8v-415h-85v122q-39 -9 -70 -9q-152 0 -152 137v332h-78v74h635v-74h-250z" />
    <glyph glyph-name="uni092C094D" horiz-adv-x="236" 
d="M209 139q74 0 83 51l-167 134v-113q0 -36 19 -54t65 -18zM209 431q-70 0 -81 -45l166 -132v105q0 37 -19.5 54.5t-65.5 17.5zM208 505q165 0 165 -143v-153q0 -144 -166 -144t-166 144v153q0 71 39.5 107t127.5 36zM382 656v-74h-411v74h411z" />
    <glyph glyph-name="uni092D094D" horiz-adv-x="414" 
d="M497 407v-74h-159v-144q0 -130 -147.5 -130t-147.5 130v90q0 128 148 128h63v114q0 30 -12 45t-48 15t-48 -15t-12 -45l4 -45h-87q-4 25 -4 48q0 137 147 137t147 -137v-117h156zM254 191v142h-63q-38 0 -50.5 -13.5t-12.5 -43.5v-85q0 -29 12.5 -42.5t50 -13.5
t50.5 13.5t13 42.5z" />
    <glyph glyph-name="uni092E094D" horiz-adv-x="390" 
d="M479 435v-75h-154v-170q0 -131 -147 -131t-147 131v116q0 129 147 129h63v147h-270v74h508v-74h-154v-147h154zM241 192v168h-63q-38 0 -50.5 -13.5t-12.5 -42.5v-112q0 -29 12.5 -43t50.5 -14t50.5 13.5t12.5 43.5z" />
    <glyph glyph-name="uni092F094D" horiz-adv-x="301" 
d="M172 519q0 37 -8 63h-193v74h405v-74h-127q8 -23 8 -63v-74q0 -117 -125 -120v-56q0 -52 30.5 -77.5t94 -25.5t121.5 14v-80q-58 -15 -124 -15q-93 0 -150 42t-57 133v128h22q60 0 81.5 14t21.5 55v62z" />
    <glyph glyph-name="uni0930094D" horiz-adv-x="418" 
d="M282 519q0 40 -9 63h-302v74h480v-74h-90q7 -21 7 -63v-128q0 -138 -148 -138q-45 0 -79 12v-112q0 -79 106 -79q61 0 127 20v-80q-61 -19 -142.5 -19t-129.5 41t-48 115v299h87v-109q37 -11 70 -11q71 0 71 62v127zM368 -214h-93l-99 156h79z" />
    <glyph glyph-name="uni0932094D" horiz-adv-x="424" 
d="M421 404q-72 0 -72 -61v-134h-86v134q0 29 -14.5 45t-51 16t-50.5 -16t-14 -46v-178q0 -41 20 -63t73 -22q28 0 58 4v-78q-27 -5 -62 -5q-176 0 -176 162v182q0 67 38 103.5t113.5 36.5t106.5 -48q35 47 111 47q41 0 88 -14v-80q-41 15 -82 15zM504 656v-74h-533v74h533z
" />
    <glyph glyph-name="uni0933094D" horiz-adv-x="423" 
d="M-29 656h613v-74h-613v74zM49 134v218q2 138 146 138q77 0 111 -49q32 49 110 49q143 0 143 -140v-216q0 -139 -142 -139q-79 0 -111 49q-34 -49 -112 -49q-145 0 -145 139zM261 135v215q0 31 -14.5 47.5t-52 16.5t-51.5 -16.5t-14 -47.5v-215q0 -31 13.5 -47.5
t51.5 -16.5q67 0 67 64zM479 135v214q0 31 -13.5 48t-51.5 17t-52.5 -17t-14.5 -48v-214q0 -64 67 -64q38 0 51.5 16.5t13.5 47.5z" />
    <glyph glyph-name="uni0935094D" horiz-adv-x="233" 
d="M202 64q-159 0 -159 140v162q0 66 39 102.5t119 36.5q41 0 57 -3v-75q-20 3 -48 3q-82 0 -82 -65v-159q0 -66 84 -66q57 0 101 18v-75q-43 -19 -111 -19zM314 656v-74h-343v74h343z" />
    <glyph glyph-name="uni0936094D" horiz-adv-x="408" 
d="M371 521v-137q0 -137 -150 -137q-41 0 -77 12v-98q0 -84 104 -84q52 0 116 20v-80q-57 -19 -134.5 -19t-125 44t-47.5 117v245h87v-68q33 -11 71 -11q69 0 69 61v133q0 62 -70 62q-40 0 -55 -17t-15 -43t3 -41h-87q-3 18 -3 41q0 67 39 103.5t118 36.5t118 -36.5
t39 -103.5z" />
    <glyph glyph-name="uni0937094D" horiz-adv-x="267" 
d="M152.5 211.5q18.5 -18.5 78.5 -18.5t89 29l-186 208v-167q0 -33 18.5 -51.5zM215 115q-168 0 -168 145v322h-76v74h424v-74h-261v-70l251 -277v-62q-60 -58 -170 -58z" />
    <glyph glyph-name="uni0938094D" horiz-adv-x="393" 
d="M265 519q0 34 -9 63h-285v74h491v-74h-119q7 -21 7 -63v-136q0 -9 -2 -27h113v-75h-145q-37 -37 -113 -37q-34 0 -64 8v-99q0 -79 106 -79q56 0 122 20v-80q-59 -19 -139 -19t-128 41t-48 115v299h87v-121q32 -8 55 -8q71 0 71 62v136z" />
    <glyph glyph-name="uni0939094D" horiz-adv-x="387" 
d="M467 317v-74h-262q-73 0 -73 -57v-46q0 -34 21.5 -51.5t87 -17.5t129.5 12v-75q-67 -14 -147 -14q-178 0 -178 142v47q0 69 51 95q-49 24 -49 91v15q0 63 37 92.5t114 29.5h75v76h-302v74h496v-74h-107v-153h-162q-37 0 -51 -12.5t-14 -38.5v-10q0 -26 14.5 -38.5
t51.5 -12.5h268z" />
    <glyph glyph-name="uni0915093C094D" horiz-adv-x="407" 
d="M75 -36.5q0 51.5 51.5 51.5t51.5 -51.5t-51.5 -51.5t-51.5 51.5zM216 427l-21 1q-39 0 -54.5 -15.5t-15.5 -44.5v-170q0 -61 70 -61q35 0 62 10v435h-286v74h620v-74h-249v-86q24 8 68 8q77 0 108.5 -34.5t31.5 -100.5v-18h-79v16q0 31 -14 46t-52 15t-63 -8v-420h-85v72
q-54 -9 -70 -9q-146 0 -146 132v175q0 134 146 134q21 0 29 -3v-74z" />
    <glyph glyph-name="uni0916093C094D" horiz-adv-x="542" 
d="M387 253v111q0 68 34 101.5t113 33.5t113 -33.5t34 -101.5v-111q0 -71 -33.5 -102.5t-113.5 -31.5t-113.5 31.5t-33.5 102.5zM600 253v111q0 30 -14 45t-52.5 15t-52.5 -15t-14 -45v-111q0 -30 14 -44.5t53 -14.5t52.5 14.5t13.5 44.5zM254 519q0 37 -12 63h-271v74h708
v-74h-353q10 -21 10 -63v-121q0 -149 -149 -149q-27 0 -61 6v-73q0 -107 144 -107q71 0 132 19v-82q-62 -16 -137 -16q-106 0 -164 47t-58 138v264h83v-114q34 -4 64 -4q64 0 64 72v120zM38.5 -15q51.5 0 51.5 -51.5t-51.5 -51.5t-51.5 51.5t51.5 51.5z" />
    <glyph glyph-name="uni0917093C094D" horiz-adv-x="255" 
d="M99 6q-51 0 -51 51.5t51 51.5t51 -51.5t-51 -51.5zM23 270l31 -2q64 0 64 61v253h-147v74h313v-74h-80v-258q0 -66 -35.5 -102.5t-103.5 -36.5q-27 0 -42 3v82z" />
    <glyph glyph-name="uni091C093C094D" horiz-adv-x="348" 
d="M211 342q0 34 -9 63h-107v79h325v-75h-130q8 -21 8 -63v-155q0 -72 -43 -109.5t-125 -37.5q-49 0 -91 11v80q48 -12 89 -12q83 0 83 70v149zM419 656v-74h-448v74h448zM42 -68.5q0 51.5 51.5 51.5t51.5 -51.5t-51.5 -51.5t-51.5 51.5z" />
    <glyph glyph-name="uni0928093C094D" horiz-adv-x="385" 
d="M191 403q-33 0 -46 -14t-13 -42v-154q0 -28 13 -42t46.5 -14t46.5 14t13 42v142q0 46 -11 68h-49zM324 403q9 -41 9 -66v-144q0 -135 -142.5 -135t-142.5 135v156q0 134 143 134h279v-80h-146zM-16 -35.5q0 51.5 51.5 51.5t51.5 -51.5t-51.5 -51.5t-51.5 51.5zM471 656
v-74h-500v74h500z" />
    <glyph glyph-name="uni092B093C094D" horiz-adv-x="440" 
d="M271 582h-136v-329q0 -62 77 -62q31 0 59 7v384zM356 582v-91q35 8 82 8q78 0 111.5 -35t33.5 -100v-7h-79v5q0 30 -16 45.5t-60 15.5t-72 -8v-415h-85v122q-39 -9 -70 -9q-152 0 -152 137v332h-78v74h635v-74h-250zM28 -0.5q0 51.5 51.5 51.5t51.5 -51.5t-51.5 -51.5
t-51.5 51.5z" />
    <glyph glyph-name="uni092F093C094D" horiz-adv-x="305" 
d="M172 519q0 37 -8 63h-193v74h405v-74h-127q8 -23 8 -63v-74q0 -117 -125 -120v-56q0 -52 30.5 -77.5t94 -25.5t121.5 14v-80q-58 -15 -124 -15q-93 0 -150 42t-57 133v128h22q60 0 81.5 14t21.5 55v62zM79 -51q-50 0 -50 51.5t50 51.5q52 0 52 -51.5t-52 -51.5z" />
    <glyph glyph-name="itfStar" horiz-adv-x="672" 
d="M686 472l-233 -150q33 -81 100 -264l-218 180q-30 -22 -219 -180l102 264q-17 10 -121 77t-114 73l278 -9q46 174 74 264l71 -264q25 2 139 5.5t141 3.5z" />
    <glyph glyph-name="uni09080902" horiz-adv-x="406" 
d="M368 749q0 43 42.5 43t42.5 -43t-42.5 -43t-42.5 43zM378 842q-76 0 -76 -70q0 -55 36 -116h95v-74h-90v-154h-154q-37 0 -51.5 -13t-14.5 -40v-4q0 -54 66 -54h24q157 0 157 -130v-36q0 -68 -36.5 -101t-120.5 -33q-40 0 -83 8v-95h-84v240h84v-67q34 -8 74 -8
q80 0 80 59v31q0 28 -15.5 42.5t-55.5 14.5h-24q-152 0 -152 127v8q0 65 37.5 96t114.5 31h67v78h-285v74h281q-37 68 -37 133.5t39.5 96t103.5 30.5q13 0 53 -5v-72q-21 3 -33 3z" />
    <glyph glyph-name="uni09300941" horiz-adv-x="602" 
d="M282 519q0 40 -9 63h-302v74h660v-74h-269q6 -30 6 -59v-97q23 21 60 21h7q67 0 102.5 -33.5t35.5 -98.5v-75q0 -139 -147 -139h-10v81h8q36 0 49 14t13 44v63q0 34 -15 49t-47 15h-4q-26 0 -43 -12t-33 -39q-33 -53 -124 -53q-45 0 -79 12v-122q0 -79 106 -79
q60 0 119 17v-80q-64 -16 -140 -16t-124 41t-48 115v317h87v-117q37 -11 70 -11q71 0 71 62v117z" />
    <glyph glyph-name="uni09300942" horiz-adv-x="624" 
d="M282 519q0 40 -9 63h-302v74h681v-74h-291q7 -21 7 -63v-70q30 13 74 13q71 0 110.5 -35t39.5 -100v-98q0 -138 -146 -138h-26v80h23q36 0 49.5 14t13.5 44v89q0 64 -69 64q-67 0 -67 -69q0 -33 5 -83h-87q-3 28 -4 48q-27 -9 -68 -9t-75 12v-128q0 -79 106 -79
q61 0 127 20v-80q-61 -19 -142.5 -19t-129.5 41t-48 115v316h87v-109q41 -12 70 -12q71 0 71 62v111z" />
    <glyph glyph-name="uni09390941" horiz-adv-x="428" 
d="M269 -6h-42q-182 -1 -182 142v47q0 69 51 95q-49 24 -49 91v15q0 63 37 92.5t114 29.5h75v76h-302v74h486v-74h-97v-153h-162q-37 0 -51 -12.5t-14 -38.5v-10q0 -26 14.5 -38.5t51.5 -12.5h55q69 0 99.5 -30.5t30.5 -93.5v-30h-79v24q0 31 -11 43.5t-48 12.5h-41
q-73 0 -73 -57v-46q0 -34 21.5 -51.5t73.5 -17.5h53q68 0 98.5 -30t30.5 -100.5t-30.5 -100.5t-101.5 -30h-89q-76 0 -137 70l-83 90h104l39 -41q26 -27 43 -35.5t42 -8.5h70q37 0 49 12.5t12 42t-12 42t-46 12.5z" />
    <glyph glyph-name="uni09390942" horiz-adv-x="425" 
d="M237 -6h-26q-31 0 -41.5 -11.5t-10.5 -38t11 -38.5t40 -12l80 2v-72q-72 -2 -86 -2q-66 0 -95.5 28.5t-29.5 89t31 84.5q-68 28 -68 112v47q0 69 51 95q-49 24 -50 91v15q0 63 37 92.5t115 29.5h75v76h-299v74h483v-74h-97v-153h-162q-37 0 -51 -12.5t-14 -38.5v-10
q0 -26 14.5 -38.5t51.5 -12.5h55q69 0 99.5 -30.5t30.5 -93.5v-30h-79v24q0 30 -11.5 43t-47.5 13h-41q-73 0 -73 -57v-46q0 -34 21.5 -51.5t73.5 -17.5h20q51 0 83.5 -16t65.5 -57l139 -171h-100l-95 118q-26 31 -44 40t-56 9z" />
    <glyph glyph-name="uni09260943" horiz-adv-x="412" 
d="M346 421h-148q-41 0 -56.5 -15t-15.5 -44v-98q0 -64 78 -64q30 0 70 9v80h86v-297q-46 6 -81 6t-53.5 -12t-18.5 -50.5t19.5 -50.5t53.5 -12t83 7v-82q-37 -6 -82 -6q-75 0 -117 35.5t-42 108.5q0 144 149 144h4v51q-35 -9 -80 -9q-76 0 -115.5 36t-39.5 104v103
q0 70 38.5 102.5t119.5 32.5h61v82h-288v74h469v-74h-94v-161z" />
    <glyph glyph-name="uni09390943" horiz-adv-x="489" 
d="M128 201v-226q0 -85 118 -85q74 0 129 17v-71q-53 -17 -140 -17t-138 40t-51 114v230q0 63 48 86q-47 23 -47 86v9q0 63 37 92.5t114 29.5h124v76h-351v74h547v-74h-109v-153h-213q-36 0 -50 -12.5t-14 -38.5v-1q0 -26 14.5 -38.5t51.5 -12.5h135q65 0 96.5 -25.5
t31.5 -83.5t-31.5 -84.5t-96.5 -26.5h-8q-25 0 -36.5 -7.5t-11.5 -31t17.5 -31t68 -7.5t107.5 12v-71q-53 -14 -124 -14t-111 23.5t-40 87.5t33 88.5t97 24.5h4q28 0 39 7t11 30t-11 30t-39 7h-132q-69 0 -69 -53z" />
    <glyph glyph-name="uni094D0930" horiz-adv-x="0" 
d="M-59 -130h-90l-66 138l-65 -138h-90l76 147h159z" />
    <glyph glyph-name="uni0930094D.1" horiz-adv-x="255" 
d="M389 336v-76h-184q-93 0 -139 25.5t-46 93.5v7h85q0 -26 15 -40q12 -10 84 -10h185zM-29 582v74h418v-74h-418z" />
    <glyph glyph-name="uni0930094D.2" horiz-adv-x="0" 
d="M-145 656q-35 35 -35 98.5t41.5 95.5t110.5 32l33 -1v-76q-10 1 -21 1q-82 0 -82 -71q0 -22 8 -41.5t24 -37.5h-79z" />
    <glyph glyph-name="uni0930094D0902" horiz-adv-x="0" 
d="M-143 656q-40 47 -40 118t45 104t116 33l34 -1v-76q-10 1 -21 1q-91 0 -91 -80q0 -25 9 -49.5t28 -49.5h-80zM-44 743q0 43 43 43t43 -43t-43 -43t-43 43z" />
    <glyph glyph-name="uni0930094D.aMatraI" horiz-adv-x="0" 
d="M0 690h-54v57q0 68 35 100.5t97 32.5l25 -1v-76q-10 1 -21 1q-82 0 -82 -71v-43z" />
    <glyph glyph-name="uni0902.aMatraI" horiz-adv-x="0" 
d="M79 720q-51 0 -51 51.5t51 51.5t51 -51.5t-51 -51.5z" />
    <glyph glyph-name="uni0930094D0902.aMatraI" horiz-adv-x="0" 
d="M83 774q43 0 43 -43t-43 -43t-43 43t43 43zM103 817l-21 1q-82 0 -82 -71v-57h-54v71q0 68 35 100.5t97 32.5l25 -1v-76z" />
    <glyph glyph-name="uni09400930094D" 
d="M150 656h92v-74h-92v-582h-87v582h-92v74h92v95q0 28 -12.5 42t-46.5 14h-4q-34 0 -46.5 -14t-12.5 -42v-34h-86v36q0 135 136 135h4q78 0 110 -49q29 50 109 50l17 -1v-76q-5 1 -9 1q-37 0 -54.5 -15.5t-17.5 -55.5v-86z" />
    <glyph glyph-name="uni09400902" 
d="M268 723q-51 0 -51 51.5t51 51.5t51 -51.5t-51 -51.5zM63 656v95q0 28 -12.5 42t-46.5 14h-4q-34 0 -46.5 -14t-12.5 -42v-34h-86v36q0 66 36.5 100.5t108.5 34.5h4q146 0 146 -135v-97h92v-74h-92v-582h-87v582h-92v74h92z" />
    <glyph glyph-name="uni09400930094D0902" 
d="M206 743q0 43 42.5 43t42.5 -43t-42.5 -43t-42.5 43zM151 746v-90h91v-74h-92v-582h-87v582h-92v74h92v95q0 28 -12.5 42t-46.5 14h-4q-34 0 -46.5 -14t-12.5 -42v-34h-86v36q0 135 136 135h4q76 0 107 -44q30 66 126 66l22 -1v-75h-14q-46 0 -65.5 -20.5t-19.5 -67.5z
" />
    <glyph glyph-name="uni0940.aLong" 
d="M150 689v-33h92v-74h-92v-582h-87v582h-92v74h92v31q0 63 -33 91t-115 28h-33q-67 0 -98.5 -20.5t-31.5 -68.5h-88v7q1 81 56 121.5t158 40.5h45q110 0 168.5 -46.5t58.5 -150.5z" />
    <glyph glyph-name="uni09400930094D.aLong" 
d="M150 656h92v-74h-92v-582h-87v582h-92v74h92v31q0 63 -33 91t-115 28h-33q-67 0 -98.5 -20.5t-31.5 -68.5h-88v7q1 81 56 121.5t158 40.5h45q129 0 174 -66q22 69 117 69l17 -1v-76q-5 1 -9 1q-37 0 -54.5 -15.5t-17.5 -55.5v-86z" />
    <glyph glyph-name="uni09400902.aLong" 
d="M273 727q-51 0 -51 51.5t51 51.5t51 -51.5t-51 -51.5zM150 689v-33h92v-74h-92v-582h-87v582h-92v74h92v31q0 63 -33 91t-115 28h-33q-67 0 -98.5 -20.5t-31.5 -68.5h-88v7q1 81 56 121.5t158 40.5h45q110 0 168.5 -46.5t58.5 -150.5z" />
    <glyph glyph-name="uni09400930094D0902.aLong" 
d="M248 786q43 0 43 -43t-43 -43t-43 43t43 43zM150 746v-90h92v-74h-92v-582h-87v582h-92v74h92v31q0 63 -33 91t-115 28h-33q-67 0 -98.5 -20.5t-31.5 -68.5h-88v7q1 81 56 121.5t158 40.5h45q125 0 171 -62q24 86 133 86l22 -1v-75h-13q-46 0 -66 -20.5t-20 -67.5z" />
    <glyph glyph-name="uni09470930094D" horiz-adv-x="0" 
d="M-13 813q-73 0 -73 -71q0 -42 23 -86h-90l-76 115q-26 40 -70 40q-17 0 -26 -1v73q22 2 48.5 2t50.5 -15t51 -56l24 -37q9 112 129 112l17 -1v-76q-5 1 -8 1z" />
    <glyph glyph-name="uni09470902" horiz-adv-x="0" 
d="M2 724q-51 0 -51 51.5t51 51.5t51 -51.5t-51 -51.5zM-291 885q42 0 70 -15.5t54 -55.5l103 -158h-90l-76 115q-26 40 -70 40q-17 0 -26 -1v73q22 2 35 2z" />
    <glyph glyph-name="uni09470901" horiz-adv-x="0" 
d="M198 853h85v-2q0 -71 -43.5 -103t-131 -32t-131.5 32t-44 103v2h85q0 -34 20.5 -47.5t69.5 -13.5t69.5 13.5t20.5 47.5zM59 901q0 49 49.5 49t49.5 -49t-49.5 -49t-49.5 49zM-290 885q42 0 70 -15.5t54 -55.5l103 -158h-90l-76 115q-26 40 -70 40q-17 0 -26 -1v73
q22 2 35 2z" />
    <glyph glyph-name="uni09470930094D0902" horiz-adv-x="0" 
d="M9 786q43 0 43 -43t-43 -43t-43 43t43 43zM-5 834q-83 0 -83 -83q0 -49 18 -83l7 -12h-90l-76 115q-26 40 -70 40q-17 0 -26 -1v73q22 2 48.5 2t50.5 -15t51 -56l21 -33q2 63 39.5 96t101.5 33l26 -1v-76q-9 1 -18 1z" />
    <glyph glyph-name="uni09480930094D" horiz-adv-x="0" 
d="M-120 776q4 113 114 113l21 -1v-76q-9 1 -13 1q-77 0 -77 -71q0 -44 12 -86h-78l-43 109q-9 25 -18 35.5t-21.5 10.5t-24.5 -2v74q18 2 30 2q35 0 54.5 -18t34.5 -64zM-429 883q20 2 46.5 2t51.5 -17t55 -59l104 -153h-82l-79 115q-29 40 -70 40q-18 0 -26 -1v73z" />
    <glyph glyph-name="uni09480902" horiz-adv-x="0" 
d="M17 714q-51 0 -51 51.5t51 51.5t51 -51.5t-51 -51.5zM-206 885q75 0 101 -82l45 -147h-77l-35 109q-8 25 -17 35.5t-22 10.5t-25 -2v74q18 2 30 2zM-391 885q39 0 66 -17.5t56 -58.5l105 -153h-87l-79 115q-29 40 -70 40q-18 0 -26 -1v73q20 2 35 2z" />
    <glyph glyph-name="uni09480901" horiz-adv-x="0" 
d="M231 853h85v-2q0 -71 -43.5 -103t-131 -32t-131.5 32t-44 103v2h85q0 -34 20.5 -47.5t69.5 -13.5t69.5 13.5t20.5 47.5zM92 901q0 49 49.5 49t49.5 -49t-49.5 -49t-49.5 49zM-209 885q75 0 101 -82l45 -147h-77l-35 109q-8 25 -17 35.5t-22 10.5t-25 -2v74q18 2 30 2z
M-394 885q39 0 66 -17.5t56 -58.5l105 -153h-87l-79 115q-29 40 -70 40q-18 0 -26 -1v73q20 2 35 2z" />
    <glyph glyph-name="uni09480930094D0902" horiz-adv-x="0" 
d="M-36 743q0 43 42.5 43t42.5 -43t-42.5 -43t-42.5 43zM24 834h-13q-86 0 -86 -88q0 -46 12 -90h-82l-42 109q-10 25 -19 35.5t-20.5 10.5t-25.5 -2v74q20 2 31 2q35 0 55 -18t41 -86q8 129 127 129l22 -1v-75zM-398 885q39 0 64 -17t55 -59l104 -153h-83l-79 115
q-29 40 -70 40q-17 0 -26 -1v73q22 2 35 2z" />
    <glyph glyph-name="uni094A0902" 
d="M228 727q-51 0 -51 51.5t51 51.5t51 -51.5t-51 -51.5zM63 582h-92v74h93q0 39 -18.5 59t-69.5 20q-90 0 -130.5 35.5t-40.5 114.5h85q0 -39 19 -58.5t70 -19.5q88 0 129 -37t41 -114h93v-74h-92v-582h-87v582z" />
    <glyph glyph-name="uni094B0930094D" 
d="M241 656v-74h-91v-582h-87v582h-92v74h87l-76 115q-26 40 -69 40q-18 0 -26 -1v73q20 2 47 2t51 -15t51 -56l26 -39q8 114 130 114l17 -1v-76q-5 1 -9 1q-72 0 -72 -71q0 -44 22 -86h91z" />
    <glyph glyph-name="uni094B0902" 
d="M211 830q51 0 51 -51.5t-51 -51.5t-51 51.5t51 51.5zM242 656v-74h-92v-582h-87v582h-92v74h89l-76 115q-26 40 -70 40q-17 0 -26 -1v73q22 2 49 2q64 0 110 -71l103 -158h92z" />
    <glyph glyph-name="uni094B0930094D0902" 
d="M222 786q44 0 44 -43t-44 -43q-42 0 -42 43t42 43zM209 834q-84 0 -84 -83q0 -45 25 -95h92v-74h-92v-582h-87v582h-92v74h85l-76 115q-26 40 -70 40q-17 0 -26 -1v73q22 2 48.5 2t50.5 -15t51 -56l25 -39q1 66 38.5 100.5t102.5 34.5l27 -1v-76q-9 1 -18 1z" />
    <glyph glyph-name="uni094C0930094D" 
d="M242 656v-74h-92v-582h-87v582h-155v74h50l-79 115q-29 40 -70 40q-17 0 -26 -1v73q22 2 35 2q39 0 64 -17t55 -59l104 -153h30l-42 109q-10 25 -19 35.5t-21 10.5t-24 -2v74q18 2 30 2q35 0 54.5 -18t34.5 -64l8 -25q6 111 115 111l22 -1v-76q-10 1 -13 1q-77 0 -77 -71
q0 -48 11 -86h92z" />
    <glyph glyph-name="uni094C0902" 
d="M232 820q51 0 51 -51.5t-51 -51.5t-51 51.5t51 51.5zM242 656v-74h-92v-582h-87v582h-151v74h43l-79 115q-29 40 -70 40q-17 0 -26 -1v73q22 2 35 2q39 0 66 -17.5t57 -58.5l104 -153h28l-35 109q-8 25 -17.5 35.5t-22 10.5t-24.5 -2v74q18 2 30 2q75 0 100 -82l45 -147
h96z" />
    <glyph glyph-name="uni094C0930094D0902" 
d="M220 786q43 0 43 -43t-43 -43t-43 43t43 43zM238 834h-14q-85 0 -85 -88q0 -50 11 -90h92v-74h-92v-582h-87v582h-155v74h50l-79 115q-29 40 -70 40q-18 0 -26 -1v73q22 2 35 2q38 0 63.5 -17t54.5 -59l104 -153h26l-42 109q-10 25 -19 35.5t-21 10.5t-24 -2v74
q18 2 30 2q35 0 54.5 -18t34.5 -64l9 -27q5 134 128 134l22 -1v-75z" />
    <glyph glyph-name="uni0915094D0937" horiz-adv-x="617" 
d="M280 463v62q0 30 -12.5 45t-47.5 15t-47.5 -15t-12.5 -45v-62q0 -30 12.5 -45t47.5 -15t47.5 15t12.5 45zM363 525v-54q0 -47 -16 -66h120v251h178v-74h-92v-582h-86v332h-257q-39 0 -51.5 -16.5t-12.5 -49.5v-78q0 -59 65 -59q38 0 59 7v102h83v-238h-83v59
q-26 -8 -68 -8q-145 0 -145 138v86q0 76 57 100q-39 22 -39 96v54q0 136 144 136t144 -136z" />
    <glyph glyph-name="uni0915094D0937094D" horiz-adv-x="402" 
d="M280 463v62q0 30 -12.5 45t-47.5 15t-47.5 -15t-12.5 -45v-62q0 -30 12.5 -45t47.5 -15t47.5 15t12.5 45zM521 405v-73h-311q-39 0 -51.5 -16.5t-12.5 -49.5v-78q0 -59 65 -59q38 0 59 7v102h83v-238h-83v59q-26 -8 -68 -8q-145 0 -145 138v86q0 76 57 100q-39 22 -39 96
v54q0 136 144 136t144 -136v-54q0 -47 -16 -66h174z" />
    <glyph glyph-name="uni0915094D0937094D092E" horiz-adv-x="1010" 
d="M432 656h607v-74h-92v-582h-85v360h-112v-170q0 -131 -147.5 -131t-147.5 131v116q0 10 2 26h-247q-39 0 -51.5 -16.5t-12.5 -49.5v-78q0 -59 65 -59q38 0 59 7v102h83v-238h-83v59q-26 -8 -68 -8q-145 0 -145 138v86q0 76 57 100q-39 22 -39 96v54q0 136 144 136
t144 -136v-54q0 -47 -16 -66h146q36 30 109 30h63v147h-233v74zM280 463v62q0 30 -12.5 45t-47.5 15t-47.5 -15t-12.5 -45v-62q0 -30 12.5 -45t47.5 -15t47.5 15t12.5 45zM665 192v168h-63q-37 0 -50 -13.5t-13 -42.5v-112q0 -29 13 -43t50.5 -14t50 13.5t12.5 43.5z
M862 435v147h-112v-147h112z" />
    <glyph glyph-name="uni0915094D0937094D092E094D" horiz-adv-x="815" 
d="M750 435h154v-75h-154v-170q0 -131 -147.5 -131t-147.5 131v116q0 10 2 26h-247q-39 0 -51.5 -16.5t-12.5 -49.5v-78q0 -59 65 -59q38 0 59 7v102h83v-238h-83v59q-26 -8 -68 -8q-145 0 -145 138v86q0 76 57 100q-39 22 -39 96v54q0 136 144 136t144 -136v-54
q0 -47 -16 -66h146q36 30 109 30h63v147h-239v74h477v-74h-153v-147zM280 463v62q0 30 -12.5 45t-47.5 15t-47.5 -15t-12.5 -45v-62q0 -30 12.5 -45t47.5 -15t47.5 15t12.5 45zM665 192v168h-63q-37 0 -50 -13.5t-13 -42.5v-112q0 -29 13 -43t50.5 -14t50 13.5t12.5 43.5z
" />
    <glyph glyph-name="uni0915094D0937094D092E094D092F" horiz-adv-x="1317" 
d="M1346 656v-74h-92v-582h-87v96q-51 -11 -103 -11q-93 0 -150 42t-57 133v58q0 27 -11 34.5t-42 7.5h-59v-170q0 -131 -147.5 -131t-147.5 131v116q0 10 2 26h-242q-39 0 -51.5 -16.5t-12.5 -49.5v-78q0 -59 65 -59q38 0 59 7v102h83v-238h-83v59q-26 -8 -68 -8
q-145 0 -145 138v86q0 76 57 100q-39 22 -39 96v54q0 136 144 136t144 -136v-54q0 -47 -16 -66h142q35 30 109 30h63v147h-237v74h922zM280 463v62q0 30 -12.5 45t-47.5 15t-47.5 -15t-12.5 -45v-62q0 -30 12.5 -45t47.5 -15t47.5 15t12.5 45zM661 192v168h-63
q-38 0 -51 -13.5t-13 -42.5v-112q0 -29 13 -43t50.5 -14t50.5 13.5t13 43.5zM982 519q0 37 -8 63h-229v-147h71q81 0 107 -45q33 5 46 19.5t13 47.5v62zM1167 582h-107q7 -23 7 -63v-74q0 -117 -124 -120v-56q0 -52 30 -77.5t87 -25.5t107 10v406z" />
    <glyph glyph-name="uni0915094D0937094D092F" horiz-adv-x="931" 
d="M596 519q0 37 -8 63h-162v74h534v-74h-92v-582h-87v96q-48 -11 -102 -11q-94 0 -151 42t-57 133v72h-261q-39 0 -51.5 -16.5t-12.5 -49.5v-78q0 -59 65 -59q38 0 59 7v102h83v-238h-83v59q-26 -8 -68 -8q-145 0 -145 138v86q0 76 57 100q-39 22 -39 96v54q0 136 144 136
t144 -136v-54q0 -47 -16 -66h146q60 0 81.5 14t21.5 55v45zM280 463v62q0 30 -12.5 45t-47.5 15t-47.5 -15t-12.5 -45v-62q0 -30 12.5 -45t47.5 -15t47.5 15t12.5 45zM781 582h-107q7 -23 7 -63v-57q0 -117 -124 -119v-74q0 -52 30 -77.5t88 -25.5t106 10v406z" />
    <glyph glyph-name="uni0915094D0937094D0935" horiz-adv-x="857" 
d="M427 656h459v-74h-92v-582h-87v75q-44 -11 -85 -11q-154 0 -154 140v128h-258q-39 0 -51.5 -16.5t-12.5 -49.5v-78q0 -59 65 -59q38 0 59 7v102h83v-238h-83v59q-26 -8 -68 -8q-145 0 -145 138v86q0 76 57 100q-39 22 -39 96v54q0 136 144 136t144 -136v-54
q0 -47 -16 -66h125q21 100 150 100q45 0 85 -10v87h-280v74zM280 463v62q0 30 -12.5 45t-47.5 15t-47.5 -15t-12.5 -45v-62q0 -30 12.5 -45t47.5 -15t47.5 15t12.5 45zM633 430q-80 0 -80 -65v-159q0 -66 81 -66q48 0 76 11v269q-30 10 -77 10z" />
    <glyph glyph-name="uni091C094D091E" horiz-adv-x="615" 
d="M-29 656h673v-74h-92v-582h-87v409h-124q8 -22 8 -69v-116q0 -68 -35.5 -103t-103.5 -35q-35 0 -77 10v-96h-85v283h85v-109q34 -8 68.5 -8t48 15.5t13.5 45.5v114q0 45 -9 68h-117v75h328v98h-494v74z" />
    <glyph glyph-name="uni091C094D091E094D" horiz-adv-x="407" 
d="M-29 656h547v-74h-547v74zM137 409v75h381v-75h-177q8 -22 8 -69v-116q0 -68 -35.5 -103t-103.5 -35q-35 0 -77 10v-96h-85v283h85v-109q34 -8 68.5 -8t48 15.5t13.5 45.5v114q0 45 -9 68h-117z" />
    <glyph glyph-name="uni091C094D091E094D092F" horiz-adv-x="919" 
d="M948 656v-74h-92v-582h-87v116q-31 -31 -116.5 -31t-139.5 42t-54 133v98q0 31 -16 41t-60 10h-42q8 -22 8 -69v-116q0 -68 -35.5 -103t-103.5 -35q-35 0 -77 10v-96h-85v283h85v-109q34 -8 68.5 -8t48 15.5t13.5 45.5v114q0 45 -9 68h-117v75h253q135 0 140 -82
q30 4 42 19.5t12 47.5v50q0 63 -52 63h-561v74h977zM769 582h-120q20 -12 20 -63v-63q0 -117 -124 -119v-68q0 -53 26.5 -78t84 -25t81.5 17.5t32 56.5v342z" />
    <glyph glyph-name="uni0915094D0928" horiz-adv-x="1013" 
d="M216 427l-22 1q-70 0 -70 -60v-170q0 -61 70 -61q33 0 63 10v435h-286v74h1071v-74h-92v-582h-87v403h-116q10 -30 10 -66v-144q0 -135 -143 -135t-143 135v174q0 30 -16 45.5t-52.5 15.5t-60.5 -7v-421h-86v72q-50 -9 -70 -9q-145 0 -145 132v175q0 134 145 134
q22 0 30 -3v-74zM674 193v142q0 28 -10 68h-50q-33 0 -46 -14t-13 -42v-154q0 -28 13 -42t46.5 -14t46.5 14t13 42zM863 483v99h-521v-86q24 8 63 8q84 0 118 -42q35 21 91 21h249z" />
    <glyph glyph-name="uni0916094D0928" horiz-adv-x="1142" 
d="M254 519q0 37 -12 63h-271v74h1200v-74h-92v-582h-87v403h-116q10 -30 10 -66v-144q0 -135 -143 -135q-106 0 -133 73q-30 -12 -76 -12q-80 0 -113.5 31.5t-33.5 102.5v111q0 68 34 101.5t114 33.5t113 -39q35 23 95 23h249v99h-666q10 -21 10 -63v-121q0 -149 -149 -149
q-27 0 -61 6v-73q0 -107 144 -107q71 0 132 19v-82q-62 -16 -137 -16q-106 0 -164 47t-58 138v264h83v-114q34 -4 64 -4q64 0 64 72v120zM467 364v-111q0 -30 14 -44.5t53 -14.5t52.5 14.5t13.5 44.5v111q0 30 -14 45t-52.5 15t-52.5 -15t-14 -45zM803 193v142q0 28 -10 68
h-50q-33 0 -46 -14t-13 -42v-154q0 -28 13 -42t46.5 -14t46.5 14t13 42z" />
    <glyph glyph-name="uni0917094D0928" horiz-adv-x="846" 
d="M23 270l31 -2q64 0 64 61v253h-147v74h904v-74h-92v-582h-87v403h-116q10 -30 10 -66v-144q0 -135 -143 -135t-143 135v156q0 134 143 134h249v99h-492v-258q0 -66 -35.5 -102.5t-103.5 -36.5q-27 0 -42 3v82zM507 193v142q0 28 -10 68h-50q-33 0 -46 -14t-13 -42v-154
q0 -28 13 -42t46.5 -14t46.5 14t13 42z" />
    <glyph glyph-name="uni0918094D0928" horiz-adv-x="885" 
d="M61 519q0 40 7 63h-97v74h943v-74h-92v-582h-87v403h-116q10 -30 10 -66v-144q0 -135 -143 -135q-61 0 -97 25q-75 -22 -141 -22q-93 0 -143 38.5t-50 112.5v51q0 79 55 98q-49 22 -49 96v62zM546 193v142q0 28 -10 68h-50q-33 0 -46 -14t-13 -42v-154q0 -28 13 -42
t46.5 -14t46.5 14t13 42zM735 483v99h-579q-9 -21 -9 -63v-60q0 -29 14.5 -43.5t54.5 -15.5h37v-80h-40q-40 0 -56 -15t-16 -44v-41q0 -44 27.5 -62.5t76.5 -18.5t102 11q-4 17 -4 43v156q0 134 143 134h249z" />
    <glyph glyph-name="uni091A094D0928" horiz-adv-x="867" 
d="M77 332q0 42 8 74h-78v78h258v-75h-91q-10 -25 -10 -78v-128q0 -66 84 -66q34 0 82 10q-5 23 -5 46v156q0 134 143 134h249v99h-751v74h930v-74h-92v-582h-87v403h-116q10 -30 10 -66v-144q0 -135 -143 -135q-60 0 -95 24q-61 -23 -136 -23t-117.5 36.5t-42.5 105.5v131z
M528 193v142q0 28 -10 68h-50q-33 0 -46 -14t-13 -42v-154q0 -28 13 -42t46.5 -14t46.5 14t13 42z" />
    <glyph glyph-name="uni091B094D0928" horiz-adv-x="521" 
d="M549 582h-147v-87q68 -22 68 -121v-164q0 -59 -22 -94v-395h-77v201h-74q6 -20 6 -53q0 -62 -29 -93.5t-95 -31.5t-95.5 31.5t-29.5 94t29 93t96 30.5h192v73q-43 -12 -109 -12q-113 0 -161.5 35t-48.5 115v14q0 72 55 93q-50 21 -50 96v108q0 47 25 67h-111v74h578v-74z
M179 -75q-33 0 -42.5 -13t-9.5 -43t9.5 -43t42.5 -13t42.5 13t9.5 44.5t-7 54.5h-45zM369.5 417q-15.5 17 -50 17t-60.5 -11v75q27 10 63 10v74h-112q-36 0 -51 -16t-15 -52v-105q0 -29 14.5 -43.5t53.5 -15.5h60v-77h-58q-42 0 -58.5 -14.5t-16.5 -46.5v-4q0 -45 24 -60.5
t98.5 -15.5t99 17.5t24.5 63.5v150q0 37 -15.5 54z" />
    <glyph glyph-name="uni091C094D0928" horiz-adv-x="953" 
d="M211 342q0 34 -9 63h-107v79h243q76 0 111 -32q36 31 105 31h249v99h-832v74h1011v-74h-92v-582h-87v403h-116q10 -30 10 -66v-144q0 -135 -143 -135t-143 135v156q0 24 4 41q-19 19 -64 19h-61q8 -21 8 -63v-155q0 -72 -43 -109.5t-125 -37.5q-49 0 -91 11v80
q48 -12 89 -12q83 0 83 70v149zM614 193v142q0 28 -10 68h-50q-33 0 -46 -14t-13 -42v-154q0 -28 13 -42t46.5 -14t46.5 14t13 42z" />
    <glyph glyph-name="uni091D094D0928" horiz-adv-x="1010" 
d="M1040 656v-74h-92v-582h-87v403h-116q10 -30 10 -66v-144q0 -135 -143 -135t-143 135v54h-129q24 -22 24 -65v-40q0 -68 -36 -99t-112 -31q-47 0 -81 8v-86h-84v227h84v-65q25 -7 67.5 -7t58.5 14.5t16 43.5v38q0 56 -67 57h-7q-156 0 -156 127v9q0 65 38.5 96t118.5 31
h66v77h-299v74h1069zM672 193v142q0 28 -10 68h-50q-33 0 -46 -14t-13 -42v-154q0 -28 13 -42t46.5 -14t46.5 14t13 42zM861 483v99h-504v-154h-153q-39 0 -54.5 -12.5t-15.5 -37.5v-6q0 -28 14.5 -41.5t53.5 -13.5h267v32q0 134 143 134h249z" />
    <glyph glyph-name="uni091F094D0928" horiz-adv-x="984" 
d="M1013 656v-74h-92v-582h-87v403h-116q10 -30 10 -66v-144q0 -135 -143 -135t-143 135v156q0 134 143 134h249v99h-496v-163h-121q-81 0 -81 -69v-198q0 -77 100 -77q54 0 118 15v-79q-58 -15 -133.5 -15t-123.5 40t-48 115v204q0 143 160 143h42v84h-280v74h1042z
M645 193v142q0 28 -10 68h-50q-33 0 -46 -14t-13 -42v-154q0 -28 13 -42t46.5 -14t46.5 14t13 42zM170 -58h79l113 -156h-93z" />
    <glyph glyph-name="uni0920094D0928" horiz-adv-x="1000" 
d="M1029 656v-74h-92v-582h-87v403h-116q10 -30 10 -66v-144q0 -135 -143 -135t-143 135v156q0 134 143 134h249v99h-601v-77q114 -18 114 -133v-237q0 -67 -39 -103.5t-118 -36.5t-118 36.5t-39 103.5v237q0 115 113 133v77h-191v74h1058zM279 134v236q0 63 -72.5 63
t-72.5 -63v-236q0 -63 72.5 -63t72.5 63zM661 193v142q0 28 -10 68h-50q-33 0 -46 -14t-13 -42v-154q0 -28 13 -42t46.5 -14t46.5 14t13 42zM173 -58h79l113 -156h-93z" />
    <glyph glyph-name="uni0921094D0928" horiz-adv-x="1002" 
d="M1031 656v-74h-92v-582h-87v403h-116q10 -30 10 -66v-144q0 -135 -143 -135t-143 135v156q0 134 143 134h249v99h-505v-154h-148q-37 0 -51.5 -13.5t-14.5 -40.5v-28q0 -27 14.5 -41t51.5 -14h20q158 0 158 -130v-27q0 -142 -184 -142q-68 0 -138 16v81q66 -17 138 -17
q97 0 97 63v24q0 28 -15.5 42.5t-55.5 14.5h-20q-153 0 -153 127v35q0 127 153 127h61v77h-289v74h1060zM663 193v142q0 28 -10 68h-50q-33 0 -46 -14t-13 -42v-154q0 -28 13 -42t46.5 -14t46.5 14t13 42zM175 -58h79l113 -156h-93z" />
    <glyph glyph-name="uni0924094D0928" horiz-adv-x="832" 
d="M209 0l-23 -1q-139 -3 -139 133v207q0 144 166 144h18q66 0 100 -28q37 28 102 28h249v99h-711v74h890v-74h-92v-582h-87v403h-116q10 -30 10 -66v-144q0 -135 -143 -135t-143 135v156q0 12 2 30q-18 24 -71 24h-8q-79 0 -79 -66v-199q0 -30 17 -44.5t58 -13.5v-80z
M493 193v142q0 28 -10 68h-50q-33 0 -46 -14t-13 -42v-154q0 -28 13 -42t46.5 -14t46.5 14t13 42z" />
    <glyph glyph-name="uni0925094D0928" horiz-adv-x="939" 
d="M397 656h571v-74h-92v-582h-87v403h-116q10 -30 10 -66v-144q0 -135 -142 -135q-80 0 -115 41q-66 -17 -150 -17q-233 0 -233 198v110h102q57 0 81 17.5t24 66.5v46q0 33 -9.5 47.5t-42.5 14.5t-44 -14.5t-11 -46.5l3 -45h-84q-3 30 -3 42q0 71 32.5 107t104.5 36
t103 -35t31 -106v-56q0 -79 -42.5 -115t-133.5 -36h-23v-31q0 -65 33.5 -92.5t102.5 -27.5t131 10q-1 7 -1 21v156q0 134 144 134h248v99h-392v74zM600 193v142q0 48 -10 68h-49q-34 0 -47 -14t-13 -42v-154q0 -28 13 -42t46.5 -14t46.5 14t13 42z" />
    <glyph glyph-name="uni0926094D0928" horiz-adv-x="412" 
d="M346 421h-148q-41 0 -56.5 -15t-15.5 -44v-135q0 -64 79 -64q34 0 69 8v96h86v-273h-86v108l-126 -96q-47 -36 -18 -71q13 -15 48 -23l-57 -49q-41 3 -67 32q-30 30 -21 73t60 82l63 46q-116 15 -116 129v140q0 70 38.5 102.5t119.5 32.5h61v82h-288v74h469v-74h-94v-161
z" />
    <glyph glyph-name="uni0927094D0928" horiz-adv-x="885" 
d="M61 519q0 40 7 63h-97v74h247v-74h-61q-10 -21 -10 -63v-57q0 -29 14.5 -43.5t54.5 -15.5h37v-80h-40q-40 0 -56 -15t-16 -44v-45q0 -43 27.5 -61.5t75.5 -18.5t104 13q-4 16 -4 41v156q0 134 143 134h248v99h-421v74h600v-74h-92v-582h-87v403h-116q10 -30 10 -66v-144
q0 -135 -142 -135q-65 0 -99 27q-79 -24 -141 -24q-92 0 -142 38.5t-50 111.5v55q0 79 55 98q-49 22 -49 96v59zM546 193v142q0 48 -10 68h-49q-34 0 -47 -14t-13 -42v-154q0 -28 13 -42t46.5 -14t46.5 14t13 42z" />
    <glyph glyph-name="uni0928094D0928" horiz-adv-x="969" 
d="M998 656v-74h-92v-582h-87v403h-116q10 -30 10 -66v-144q0 -135 -143 -135t-143 135v156q0 32 7 54h-117q10 -30 10 -66v-144q0 -135 -143 -135t-143 135v156q0 134 143 134h635v99h-848v74h1027zM244 193v142q0 28 -10 68h-50q-33 0 -46 -14t-13 -42v-154q0 -28 13 -42
t46.5 -14t46.5 14t13 42zM630 193v142q0 28 -10 68h-50q-33 0 -46 -14t-13 -42v-154q0 -28 13 -42t46.5 -14t46.5 14t13 42z" />
    <glyph glyph-name="uni092A094D0928" horiz-adv-x="822" 
d="M851 656v-74h-92v-582h-87v403h-116q10 -30 10 -66v-144q0 -135 -143 -135q-108 0 -134 76q-38 -10 -84 -10q-157 0 -157 137v321h-77v74h880zM483 193v142q0 28 -10 68h-50q-33 0 -46 -14t-13 -42v-154q0 -28 13 -42t46.5 -14t46.5 14t13 42zM672 483v99h-537v-319
q0 -61 79 -61q36 0 66 8v139q0 134 143 134h249z" />
    <glyph glyph-name="uni092B094D0928" horiz-adv-x="1030" 
d="M1059 656v-74h-92v-582h-87v403h-116q10 -30 10 -66v-144q0 -135 -143 -135t-143 135v167q0 31 -16 46t-56 15t-60 -6v-415h-85v122q-39 -9 -70 -9q-152 0 -152 137v332h-78v74h1088zM271 582h-136v-329q0 -62 77 -62q31 0 59 7v384zM691 193v142q0 28 -10 68h-50
q-33 0 -46 -14t-13 -42v-154q0 -28 13 -42t46.5 -14t46.5 14t13 42zM880 483v99h-524v-92q24 8 66 8q79 0 115 -38q34 23 94 23h249z" />
    <glyph glyph-name="uni092C094D0928" horiz-adv-x="827" 
d="M856 656v-74h-92v-582h-87v403h-116q10 -30 10 -66v-144q0 -135 -143 -135q-77 0 -112 38q-37 -31 -117 -31q-158 0 -158 144v146q0 144 163 144q86 0 124 -43q34 27 100 27h249v99h-706v74h885zM285 352q0 38 -17.5 55.5t-62.5 17.5q-66 0 -77 -45l157 -122v94zM125 211
q0 -36 17.5 -54t59.5 -18t60 13.5t22 41.5l-159 123v-106zM488 193v142q0 28 -10 68h-50q-33 0 -46 -14t-13 -42v-154q0 -28 13 -42t46.5 -14t46.5 14t13 42z" />
    <glyph glyph-name="uni092D094D0928" horiz-adv-x="986" 
d="M401 656h614v-74h-93v-582h-86v403h-116q10 -30 10 -66v-144q0 -135 -143 -135t-143 135v140h-106v-144q0 -130 -147.5 -130t-147.5 130v90q0 128 148 128h63v114q0 30 -12 45t-48 15t-48 -15t-12 -45l4 -45h-87q-4 23 -4 48q0 137 147 137t147 -137v-117h111
q26 76 135 76h249v99h-435v74zM254 191v142h-63q-38 0 -50.5 -13.5t-12.5 -43.5v-85q0 -29 12.5 -42.5t50 -13.5t50.5 13.5t13 42.5zM647 193v142q0 28 -10 68h-50q-33 0 -46 -14t-13 -42v-154q0 -28 13 -42t46.5 -14t46.5 14t13 42z" />
    <glyph glyph-name="uni092E094D0928" horiz-adv-x="971" 
d="M1000 656v-74h-92v-582h-87v403h-116q10 -30 10 -66v-144q0 -135 -143 -135t-143 135v167h-104v-170q0 -131 -147 -131t-147 131v116q0 129 147 129h63v147h-270v74h1029zM241 192v168h-63q-38 0 -50.5 -13.5t-12.5 -42.5v-112q0 -29 12.5 -43t50.5 -14t50.5 13.5
t12.5 43.5zM632 193v142q0 28 -10 68h-50q-33 0 -46 -14t-13 -42v-154q0 -28 13 -42t46.5 -14t46.5 14t13 42zM821 483v99h-496v-147h127q33 48 120 48h249z" />
    <glyph glyph-name="uni092F094D0928" horiz-adv-x="896" 
d="M172 519q0 37 -8 63h-193v74h954v-74h-92v-582h-87v403h-116q10 -30 10 -66v-144q0 -135 -143 -135q-82 0 -117 44q-56 -17 -137.5 -17t-138.5 42t-57 133v128h22q60 0 81.5 14t21.5 55v62zM557 193v142q0 28 -10 68h-50q-33 0 -46 -14t-13 -42v-154q0 -28 13 -42
t46.5 -14t46.5 14t13 42zM746 483v99h-497q8 -23 8 -63v-74q0 -117 -125 -120v-56q0 -52 30.5 -77.5t83.5 -25.5t109 10q-1 6 -1 17v156q0 134 143 134h249z" />
    <glyph glyph-name="uni0935094D0928" horiz-adv-x="833" 
d="M862 656v-74h-92v-582h-87v403h-116q10 -30 10 -66v-144q0 -135 -143 -135q-67 0 -103 30q-58 -24 -131.5 -24t-115 36.5t-41.5 103.5v162q0 66 39 102.5t119 36.5q23 0 35 -1v-75q-10 1 -26 1q-82 0 -82 -65v-159q0 -66 84 -66q35 0 83 11q-4 17 -4 42v156
q0 134 143 134h249v99h-712v74h891zM494 193v142q0 28 -10 68h-50q-33 0 -46 -14t-13 -42v-154q0 -28 13 -42t46.5 -14t46.5 14t13 42z" />
    <glyph glyph-name="uni0936094D0928" horiz-adv-x="590" 
d="M440 656h179v-74h-92v-582h-82v136l-85 62l-103 -103q-41 -43 -8 -73q15 -13 49 -17l-50 -55q-41 -2 -70 23q-34 26 -33 69.5t46 89.5l109 110l-92 67l-84 -79l-103 15l122 113q-49 38 -68 70.5t-19 86.5v10q0 136 144 136t144 -136v-10q0 -50 -18 -80t-61 -71l175 -127
v419zM261 507v18q0 30 -12.5 45t-47.5 15t-47.5 -15t-12.5 -45v-18q0 -20 10 -37.5t19 -26t31 -26.5q2 2 13.5 11.5t20.5 18t17.5 25t8.5 35.5z" />
    <glyph glyph-name="uni0938094D0928" horiz-adv-x="1001" 
d="M265 519q0 34 -9 63h-285v74h1059v-74h-92v-582h-87v403h-116q10 -30 10 -66v-144q0 -135 -143 -135t-143 135v88h-143q-37 -37 -113 -37q-34 0 -64 8v-99q0 -79 106 -79q56 0 122 20v-80q-59 -19 -139 -19t-128 41t-48 115v299h87v-121q32 -8 55 -8q71 0 71 62v136z
M662 193v142q0 28 -10 68h-50q-33 0 -46 -14t-13 -42v-154q0 -28 13 -42t46.5 -14t46.5 14t13 42zM851 483v99h-508q7 -21 7 -63v-136q0 -9 -2 -27h111q3 127 143 127h249z" />
    <glyph glyph-name="uni0939094D0928" horiz-adv-x="983" 
d="M1013 656v-74h-92v-582h-87v403h-116q10 -30 10 -66v-144q0 -135 -143 -135t-143 135v50h-237q-73 0 -73 -57v-46q0 -34 21.5 -51.5t87 -17.5t129.5 12v-75q-67 -14 -147 -14q-178 0 -178 142v47q0 69 51 95q-49 24 -49 91v15q0 63 37 92.5t114 29.5h75v76h-302v74h1042z
M645 193v142q0 28 -10 68h-50q-33 0 -46 -14t-13 -42v-154q0 -28 13 -42t46.5 -14t46.5 14t13 42zM834 483v99h-474v-153h-162q-37 0 -51 -12.5t-14 -38.5v-10q0 -26 14.5 -38.5t51.5 -12.5h243v32q0 134 143 134h249z" />
    <glyph glyph-name="uni0915094D0930" horiz-adv-x="620" 
d="M234 427l-21 1q-39 0 -54.5 -15.5t-15.5 -44.5v-137q0 -29 15.5 -44.5t53.5 -15.5t63 9v402h-304v74h677v-74h-288v-85q24 8 67 8q146 0 146 -135v-167q0 -134 -132 -134q-13 0 -23 2v81q4 -1 26 -1q45 0 45 58v159q0 61 -70 61q-29 0 -59 -8v-421h-85v106l-5 -1
l-128 -150h-103l128 144q-108 16 -108 129v142q0 134 146 134q21 0 29 -3v-74z" />
    <glyph glyph-name="uni0916094D0930" horiz-adv-x="748" 
d="M254 519q0 37 -12 63h-271v74h806v-74h-92v-582h-85v127q-30 -8 -71 -8q-76 0 -109.5 33.5t-33.5 100.5v111q0 68 32 102t108 34q37 0 74 -7v89h-274q10 -21 10 -63v-121q0 -149 -149 -149q-27 0 -61 6v-73q0 -107 144 -107q51 0 89 11v-80l-137 -110l-117 12v4l135 93
q-197 10 -197 176v264h83v-114q34 -4 64 -4q64 0 64 72v120zM600 416q-37 8 -70.5 8t-48 -15t-14.5 -45v-111q0 -29 14.5 -44t56 -15t62.5 7v215z" />
    <glyph glyph-name="uni0917094D0930" horiz-adv-x="481" 
d="M23 306l31 -2q64 0 64 61v217h-147v74h539v-74h-92v-582h-83v64q0 96 7 131h-1q-12 -27 -94 -112l-75 -83h-105l264 300v282h-127v-222q0 -66 -35.5 -102.5t-103.5 -36.5q-27 0 -42 3v82z" />
    <glyph glyph-name="uni0918094D0930" horiz-adv-x="498" 
d="M62 519q0 33 7 63h-98v74h556v-74h-92v-582h-87v105h-2l-150 -154h-114l141 141q-79 5 -123 43.5t-44 107.5v24q0 78 56 98q-50 24 -50 97v57zM143 265v-25q0 -44 27 -62.5t78.5 -18.5t99.5 13v410h-190q-9 -21 -9 -63v-55q0 -30 14.5 -44.5t53.5 -14.5h38v-81h-40
q-40 0 -56 -15t-16 -44z" />
    <glyph glyph-name="uni0919094D0930" horiz-adv-x="475" 
d="M-33 656h537v-74h-161v-154h-148q-37 0 -51.5 -13.5t-14.5 -40.5v-22q0 -27 14.5 -41t51.5 -14h20q158 0 158 -131v-32q0 -94 -81 -126l71 -138h-90l-58 123l-15 -1l-58 -122h-90l65 126q-35 4 -67 12v80q68 -16 128 -16t84 14t24 48v31q0 28 -15.5 42.5t-55.5 14.5h-20
q-153 0 -153 127v29q0 127 153 127h61v77h-289v74zM422.5 395q51.5 0 51.5 -51.5t-51.5 -51.5t-51.5 51.5t51.5 51.5z" />
    <glyph glyph-name="uni091A094D0930" horiz-adv-x="471" 
d="M84 332q0 42 8 74h-74v78h254v-75h-91q-10 -25 -10 -78v-86q0 -34 18.5 -50.5t57 -16.5t74.5 12v392h-350v74h529v-74h-92v-582h-87v118l-5 -2l-144 -153h-105l136 145q-119 15 -119 140v84z" />
    <glyph glyph-name="uni091B094D0930" horiz-adv-x="521" 
d="M57 519q0 34 11 63h-97v74h578v-74h-147v-98q68 -22 68 -121v-192q0 -67 -28.5 -102.5t-93.5 -47.5l71 -138h-90l-62 131h-7l-62 -131h-90l71 137q-67 11 -97 45.5t-30 98.5v31q0 73 55 94q-50 21 -50 95v135zM369.5 405.5q-15.5 16.5 -50 16.5t-60.5 -8v74q27 9 63 9v85
h-167q-11 -21 -11 -63v-132q0 -29 14.5 -44t53.5 -15h60v-77h-58q-42 0 -58.5 -14.5t-16.5 -46.5v-23q0 -44 24 -59.5t98.5 -15.5t99 17.5t24.5 64.5v178q0 37 -15.5 53.5z" />
    <glyph glyph-name="uni091C094D0930" horiz-adv-x="577" 
d="M211 342q0 34 -9 63h-107v79h333v98h-457v74h634v-74h-92v-582h-85v19q0 100 2 116l-1 1q-8 -24 -91 -99l-96 -91h-109v2l295 290v171h-138q8 -21 8 -63v-85q0 -72 -43 -109.5t-125 -37.5q-49 0 -91 11v79q44 -11 89 -11q83 0 83 70v79z" />
    <glyph glyph-name="uni091D094D0930" horiz-adv-x="668" 
d="M208 428q-37 0 -51.5 -13t-14.5 -39v-6q0 -26 14 -39t50 -14h313v265h-102v-154h-209zM359 182v-37q0 -69 -37 -100.5t-114 -31.5q-39 0 -73 8v-86h-85v227h85v-64q27 -8 62 -8q76 0 76 60v35q0 57 -68 57h-2q-148 0 -148 127v9q0 127 153 127h122v77h-359v74h727v-74
h-93v-586h-80v36q0 43 4 76h-1q-11 -34 -62 -92l-89 -101h-99l229 268l-1 64h-170q23 -22 23 -65z" />
    <glyph glyph-name="uni091E094D0930" horiz-adv-x="556" 
d="M403 269h-115v-43q0 -66 -40.5 -101.5t-117.5 -35.5q-49 0 -83 12v80q48 -12 81 -12q74 0 74 69v127q0 69 -73 69q-40 0 -77 -13v81q34 12 79 12q157 0 157 -138v-33h118v239h-435v74h614v-74h-92v-586h-87v62q0 36 4 71h-4q-14 -41 -58 -92l-110 -117h-101l266 297v52z
" />
    <glyph glyph-name="uni091F094D0930" horiz-adv-x="400" 
d="M338 419h-121q-81 0 -81 -69v-198q0 -77 100 -77q54 0 118 15v-79q-31 -7 -58 -11l67 -130h-90l-60 127h-10l-61 -127h-90l76 146q-79 39 -79 135v204q0 143 160 143h42v84h-280v74h457v-74h-90v-163z" />
    <glyph glyph-name="uni0920094D0930" horiz-adv-x="412" 
d="M213 -5h-11l-60 -125h-90l72 139q-75 31 -75 126v237q0 115 113 133v77h-191v74h470v-74h-192v-77q114 -18 114 -133v-237q0 -93 -73 -125l73 -140h-90zM279 134v236q0 63 -72.5 63t-72.5 -63v-236q0 -63 72.5 -63t72.5 63z" />
    <glyph glyph-name="uni0921094D0930" horiz-adv-x="417" 
d="M347 428h-148q-37 0 -51.5 -13.5t-14.5 -40.5v-28q0 -27 14.5 -41t51.5 -14h20q158 0 158 -130v-27q0 -95 -80 -126l71 -138h-90l-58 123l-15 -1l-58 -122h-90l65 126q-33 4 -67 12v81q66 -17 138 -17q97 0 97 63v24q0 28 -15.5 42.5t-55.5 14.5h-20q-153 0 -153 127v35
q0 127 153 127h61v77h-289v74h474v-74h-98v-154z" />
    <glyph glyph-name="uni0922094D0930" horiz-adv-x="415" 
d="M219 -5h-11l-60 -125h-90l71 138q-80 31 -80 134v224q0 69 37.5 102.5t117.5 33.5h55v80h-288v74h473v-74h-99v-160h-141q-40 0 -55 -14.5t-15 -43.5v-220q0 -34 17 -51.5t61.5 -17.5t61 17.5t16.5 50.5v32q0 56 -54 56l-37 -5v77q19 6 46 6q61 0 95.5 -32.5t34.5 -99.5
v-37q0 -102 -78 -131l72 -139h-90z" />
    <glyph glyph-name="uni0923094D0930" horiz-adv-x="624" 
d="M149 310q14 -16 53.5 -16t53.5 16t14 46v226h-135v-226q0 -30 14 -46zM474 582h-118v-228q0 -140 -153.5 -140t-153.5 140v228h-78v74h682v-74h-93v-582h-86v66q0 92 8 138l-1 1q-13 -29 -95 -108l-103 -97h-109l300 303v279z" />
    <glyph glyph-name="uni0924094D0930" horiz-adv-x="461" 
d="M311 404q-39 13 -91 13t-75 -19.5t-23 -58.5v-60h-84v65q0 153 175 153q51 0 98 -13v98h-340v74h519v-74h-92v-582h-83v106q0 95 6 127h-3q-16 -32 -68 -88l-106 -111h-111l278 292v78z" />
    <glyph glyph-name="uni0925094D0930" horiz-adv-x="566" 
d="M416 656h179v-74h-92v-582h-87v123h-1l-201 -164h-128v4l178 138q-111 2 -164.5 47t-53.5 142v100h102q58 0 82 17.5t24 66.5v46q0 33 -10 47.5t-42.5 14.5t-43.5 -14.5t-11 -46.5l2 -45h-83q-3 30 -3 42q0 71 32.5 107t104.5 36t102.5 -35t30.5 -106v-56
q0 -79 -42.5 -115t-133.5 -36h-22v-21q0 -65 33.5 -92.5t109 -27.5t138.5 15v469z" />
    <glyph glyph-name="uni0926094D0930" horiz-adv-x="414" 
d="M350 421h-149q-40 0 -55.5 -15t-15.5 -44v-129q0 -64 79 -64q34 0 69 8v73h85v-256h-85v114l-4 -1l-136 -174h-99l131 168q-127 11 -127 129v135q0 70 38.5 102.5t119.5 32.5h62v82h-292v74h473v-74h-94v-161z" />
    <glyph glyph-name="uni0927094D0930" horiz-adv-x="498" 
d="M62 519q0 33 7 63h-98v74h276v-74h-89q-9 -21 -9 -63v-55q0 -30 14.5 -44.5t53.5 -14.5h38v-81h-40q-40 0 -56 -15t-16 -44v-25q0 -44 27 -62.5t78.5 -18.5t99.5 13v484h179v-74h-92v-582h-87v105h-2l-150 -154h-114l141 141q-79 5 -123 43.5t-44 107.5v24q0 78 56 98
q-50 24 -50 97v57z" />
    <glyph glyph-name="uni0928094D0930" horiz-adv-x="586" 
d="M179 403q-34 0 -47 -14t-13 -42v-73q0 -28 13 -42t46.5 -14t46.5 14t13 42v67q0 42 -10 62h-49zM436 403h-125q10 -30 10 -60v-69q0 -135 -142.5 -135t-142.5 135v75q0 134 143 134h257v99h-465v74h644v-74h-92v-582h-82v26q0 102 4 134l-1 1q-2 -9 -30 -45t-58 -68
l-77 -84h-105l262 294v145z" />
    <glyph glyph-name="uni092A094D0930" horiz-adv-x="438" 
d="M-29 656h495v-74h-92v-582h-86v205l-164 -205h-102l156 194q-123 13 -123 136v252h-84v74zM142 582v-254q0 -61 76 -61q37 0 70 11v304h-146z" />
    <glyph glyph-name="uni092B094D0930" horiz-adv-x="622" 
d="M426 420q-33 0 -62 -9v-411h-85v182h-2l-142 -195h-98l138 188q-118 15 -118 136v271h-86v74h680v-74h-287v-92q32 10 70 10q73 0 110 -36t37 -101v-166q0 -134 -139 -134l-17 1v80q39 -1 54 13.5t15 45.5v158q0 59 -68 59zM144 582v-278q0 -61 76 -61q31 0 59 7v332
h-135z" />
    <glyph glyph-name="uni092C094D0930" horiz-adv-x="438" 
d="M-29 656h496v-74h-92v-582h-82v105l-6 -2l-143 -151h-104l137 142q-67 5 -100 36t-33 95v139q0 141 164 141q54 0 85 -12v89h-322v74zM216 431q-69 0 -84 -42l161 -135v165q-34 12 -77 12zM128 227q0 -70 88 -70q42 0 77 10v19l-165 140v-99z" />
    <glyph glyph-name="uni092D094D0930" horiz-adv-x="610" 
d="M258 260v98h-63q-38 0 -50.5 -13.5t-12.5 -42.5v-42q0 -29 12.5 -43t50.5 -14t50.5 13.5t12.5 43.5zM460 358h-118v-101q0 -130 -147.5 -130t-147.5 130v46q0 129 148 129h63v89q0 30 -12 45t-47.5 15t-48 -15t-12.5 -45l3 -38h-87q-3 18 -3 41q0 137 147 137t147 -137
v-92h115v224h179v-74h-92v-586h-82v23q0 86 6 134h-1q-10 -32 -82 -110l-85 -93h-107l264 294v114z" />
    <glyph glyph-name="uni092E094D0930" horiz-adv-x="582" 
d="M433 -4v47q0 58 6 109h-1q-10 -32 -82 -109l-85 -93h-105l267 294v143h-113v-120q0 -135 -146 -135t-146 134v66q0 129 147 129h60v121h-264v74h640v-74h-92v-586h-86zM320 461h113v121h-113v-121zM235 269v118h-60q-38 0 -50 -14t-12 -44v-61q0 -30 12 -45t49 -15t49 15
t12 46z" />
    <glyph glyph-name="uni092F094D0930" horiz-adv-x="507" 
d="M172 519q0 37 -8 63h-193v74h565v-74h-92v-582h-87v146l-7 -2l-180 -160h-116l176 152q-83 5 -133 47t-50 127v95h22q60 0 81.5 14t21.5 55v45zM132 314q0 -104 126 -104q53 0 99 11v361h-108q8 -23 8 -63v-57q0 -117 -125 -120v-28z" />
    <glyph glyph-name="uni0935094D0930" horiz-adv-x="438" 
d="M-29 656h496v-74h-93v-582h-86v117l-5 -1l-151 -157h-102l145 148q-126 13 -126 139v120q0 66 38.5 102.5t115.5 36.5q45 0 85 -10v87h-317v74zM134 365v-126q0 -66 81 -66q49 0 76 11v236q-30 10 -77 10q-80 0 -80 -65z" />
    <glyph glyph-name="uni0936094D0930" horiz-adv-x="590" 
d="M440 656h179v-74h-92v-582h-87v222q-31 -45 -74 -87l-119 -122l-106 6l181 183l-114 83l-84 -78l-103 14l122 114q-48 37 -67.5 69.5t-19.5 86.5v34q0 136 144 136t144 -136v-34q0 -50 -18 -80t-61 -70l113 -82l62 63v334zM261 483v42q0 30 -12.5 45t-47.5 15t-47.5 -15
t-12.5 -45v-42q0 -20 10 -37.5t19 -26t31 -26.5q2 2 13.5 11.5t20.5 18t17.5 25t8.5 35.5z" />
    <glyph glyph-name="uni0938094D0930" horiz-adv-x="635" 
d="M246 582h-275v74h693v-74h-92v-582h-82v155q0 111 3 136h-2q-18 -24 -145 -138l-99 13l189 160h-113q-30 -53 -113 -53q-42 0 -72 9v-120q0 -88 108 -88q62 0 131 13v-79q-63 -13 -131 -13q-96 0 -144.5 40t-48.5 127v303h85v-107q28 -7 63 -7t49.5 15.5t14.5 45.5v111
q0 59 -19 59zM351 401h134v181h-144q10 -12 10 -65v-116z" />
    <glyph glyph-name="uni0939094D0930" horiz-adv-x="474" 
d="M388 434h-190q-37 0 -51 -12.5t-14 -38.5v-10q0 -26 14.5 -38.5t51.5 -12.5h114q70 0 100 -28t30 -90v-40h-79v34q0 27 -8 39l-96 -118l-80 5l106 130h-81q-73 0 -73 -58v-52q0 -43 26.5 -63.5t103 -20.5t167.5 17v-75q-78 -18 -182.5 -18t-153 39.5t-48.5 116.5v54
q0 64 51 92q-49 24 -49 92v11q0 62 36.5 90.5t114.5 28.5h103v74h-330v74h531v-74h-114v-148z" />
    <glyph glyph-name="uni0915093C094D0930" horiz-adv-x="620" 
d="M234 427l-21 1q-39 0 -54.5 -15.5t-15.5 -44.5v-137q0 -29 15.5 -44.5t53.5 -15.5t63 9v402h-304v74h677v-74h-288v-85q24 8 67 8q146 0 146 -135v-167q0 -134 -132 -134q-13 0 -23 2v81q4 -1 26 -1q45 0 45 58v159q0 61 -70 61q-29 0 -59 -8v-421h-85v106l-5 -1
l-128 -150h-103l128 144q-108 16 -108 129v142q0 134 146 134q21 0 29 -3v-74zM229 -45q51 0 51 -51.5t-51 -51.5t-51 51.5t51 51.5z" />
    <glyph glyph-name="uni0916093C094D0930" horiz-adv-x="753" 
d="M254 519q0 37 -12 63h-271v74h806v-74h-92v-582h-85v127q-30 -8 -71 -8q-76 0 -109.5 33.5t-33.5 100.5v111q0 68 32 102t108 34q37 0 74 -7v89h-274q10 -21 10 -63v-121q0 -149 -149 -149q-27 0 -61 6v-73q0 -107 144 -107q51 0 89 11v-80l-137 -110l-117 12v4l135 93
q-197 10 -197 176v264h83v-114q34 -4 64 -4q64 0 64 72v120zM600 416q-37 8 -70.5 8t-48 -15t-14.5 -45v-111q0 -29 14.5 -44t56 -15t62.5 7v215zM489 2q51 0 51 -51.5t-51 -51.5t-51 51.5t51 51.5z" />
    <glyph glyph-name="uni0917093C094D0930" horiz-adv-x="481" 
d="M23 306l31 -2q64 0 64 61v217h-147v74h539v-74h-92v-582h-83v64q0 96 7 131h-1q-12 -27 -94 -112l-75 -83h-105l264 300v282h-127v-222q0 -66 -35.5 -102.5t-103.5 -36.5q-27 0 -42 3v82zM263 -30q51 0 51 -51.5t-51 -51.5t-51 51.5t51 51.5z" />
    <glyph glyph-name="uni091C093C094D0930" horiz-adv-x="587" 
d="M46 -40q-51 0 -51 51.5t51 51.5t51 -51.5t-51 -51.5zM222 342q0 40 -9 63h-107v79h333v98h-457v74h634v-74h-92v-582h-85v19q0 100 2 116l-1 1q-8 -24 -91 -99l-96 -91h-109v2l295 290v171h-138q8 -21 8 -63v-85q0 -72 -43 -109.5t-125 -37.5q-49 0 -91 11v79
q44 -11 89 -11q83 0 83 70v79z" />
    <glyph glyph-name="uni0921093C094D0930" horiz-adv-x="491" 
d="M420 428h-149q-66 0 -66 -54v-28q0 -27 14.5 -41t51.5 -14h21q157 0 157 -130v-27q0 -96 -83 -127l71 -137h-90l-58 123l-15 -1l-58 -122h-90l65 127q-28 3 -63 11v81q65 -17 126 -17t84.5 13.5t23.5 47.5v26q0 28 -15.5 42.5t-54.5 14.5h-21q-152 0 -152 127v35
q0 127 152 127h62v77h-362v74h549v-74h-100v-154zM48 29q51 0 51 -51.5t-51 -51.5t-51 51.5t51 51.5z" />
    <glyph glyph-name="uni0922093C094D0930" horiz-adv-x="488" 
d="M290 -6h-9l-61 -127h-90l73 140q-83 31 -83 134v225q0 69 37.5 102.5t118.5 33.5h55v80h-360v74h545v-74h-99v-160h-141q-40 0 -55 -14.5t-15 -43.5v-221q0 -33 17 -51t61 -18t61 17.5t17 51.5v32q0 56 -53 56q-22 0 -38 -8v78q20 8 49 8q126 0 126 -132v-38
q0 -102 -78 -132l73 -140h-90zM54.5 33q51.5 0 51.5 -51.5t-51.5 -51.5t-51.5 51.5t51.5 51.5z" />
    <glyph glyph-name="uni0928093C094D0930" horiz-adv-x="586" 
d="M378 -149q-51 0 -51 51.5t51 51.5t51 -51.5t-51 -51.5zM179 403q-34 0 -47 -14t-13 -42v-73q0 -28 13 -42t46.5 -14t46.5 14t13 42v67q0 42 -10 62h-49zM436 403h-125q10 -30 10 -60v-69q0 -135 -142.5 -135t-142.5 135v75q0 134 143 134h257v99h-465v74h644v-74h-92
v-582h-82v26q0 102 4 134l-1 1q-2 -9 -30 -45t-58 -68l-77 -84h-105l262 294v145z" />
    <glyph glyph-name="uni092B093C094D0930" horiz-adv-x="622" 
d="M426 420q-33 0 -62 -9v-411h-85v182h-2l-142 -195h-98l138 188q-118 15 -118 136v271h-86v74h680v-74h-287v-92q32 10 70 10q73 0 110 -36t37 -101v-166q0 -134 -139 -134l-17 1v80q39 -1 54 13.5t15 45.5v158q0 59 -68 59zM144 582v-278q0 -61 76 -61q31 0 59 7v332
h-135zM217 -37q51 0 51 -51.5t-51 -51.5t-51 51.5t51 51.5z" />
    <glyph glyph-name="uni092F093C094D0930" horiz-adv-x="507" 
d="M172 519q0 37 -8 63h-193v74h565v-74h-92v-582h-87v146l-7 -2l-180 -160h-116l176 152q-83 5 -133 47t-50 127v95h22q60 0 81.5 14t21.5 55v45zM132 314q0 -104 126 -104q53 0 99 11v361h-108q8 -23 8 -63v-57q0 -117 -125 -120v-28zM276 -22q51 0 51 -51.5t-51 -51.5
t-51 51.5t51 51.5z" />
    <glyph glyph-name="uni0915094D0930094D" horiz-adv-x="436" 
d="M234 427l-21 1q-39 0 -54.5 -15.5t-15.5 -44.5v-149q0 -29 15.5 -44.5t53.5 -15.5t63 9v414h-304v74h617v-74h-228v-86q29 8 77 8q78 0 111.5 -35t33.5 -100v-7h-80v5q0 31 -15.5 46t-57 15t-69.5 -8v-420h-85v105l-6 -1l-127 -149h-103l128 144q-108 15 -108 128v143
q0 134 146 134q21 0 29 -3v-74z" />
    <glyph glyph-name="uni0916094D0930094D" horiz-adv-x="542" 
d="M387 253v111q0 68 34 101.5t113 33.5t113 -33.5t34 -101.5v-111q0 -71 -33.5 -102.5t-113.5 -31.5t-113.5 31.5t-33.5 102.5zM600 253v111q0 30 -14 45t-52.5 15t-52.5 -15t-14 -45v-111q0 -30 14 -44.5t53 -14.5t52.5 14.5t13.5 44.5zM254 519q0 37 -12 63h-271v74h708
v-74h-353q10 -21 10 -63v-121q0 -149 -149 -149q-27 0 -61 6v-73q0 -107 144 -107q51 0 89 11v-80l-137 -110l-117 12v4l135 93q-197 10 -197 176v264h83v-114q34 -4 64 -4q64 0 64 72v120z" />
    <glyph glyph-name="uni0917094D0930094D" horiz-adv-x="268" 
d="M23 311l31 -2q64 0 64 61v212h-147v74h354v-74h-121v-217q0 -66 -35.5 -102.5t-103.5 -36.5q-27 0 -42 3v82zM350 325v-108q-18 -40 -97 -128l-81 -89h-106z" />
    <glyph glyph-name="uni0918094D0930094D" horiz-adv-x="285" 
d="M61 519q0 40 7 63h-97v74h385v-74h-200q-9 -21 -9 -63v-52q0 -29 14.5 -44t54.5 -15h37v-81h-40q-40 0 -56 -15t-16 -44v-25q0 -44 28 -62.5t78.5 -18.5t110.5 10v-81l-151 -139h-109l150 132h-7q-89 0 -137.5 38.5t-48.5 112.5v35q0 78 55 99q-49 22 -49 96v54z" />
    <glyph glyph-name="uni091A094D0930094D" horiz-adv-x="254" 
d="M77 332q0 42 8 74h-78v78h258v-75h-91q-10 -25 -10 -78v-115q0 -34 21 -50t70 -16t90 12v-86l-150 -136h-109l150 132q-159 1 -159 142v118zM322 656v-74h-356v74h356z" />
    <glyph glyph-name="uni091C094D0930094D" horiz-adv-x="369" 
d="M211 342q0 34 -9 63h-107v79h364v-75h-169q8 -21 8 -63v-94q0 -72 -43 -109.5t-125 -37.5q-49 0 -91 11v80q44 -11 89 -11q83 0 83 70v87zM459 656v-74h-488v74h488zM154 -54v4l314 308v-88q-33 -61 -92 -120l-116 -104h-106z" />
    <glyph glyph-name="uni091D094D0930094D" horiz-adv-x="468" 
d="M359 182v-40q0 -68 -37 -99.5t-114 -31.5q-46 0 -73 8v-87h-85v227h85v-64q27 -8 62 -8q76 0 76 60v38q0 57 -68 57h-3q-147 0 -147 127v9q0 127 153 127h122v77h-359v74h570v-74h-124v-154h-209q-37 0 -51.5 -13t-14.5 -39v-6q0 -26 14 -39.5t50 -13.5h336v-70h-206
q23 -22 23 -65zM542 226v-104q-10 -31 -76 -106l-89 -101h-99z" />
    <glyph glyph-name="uni091E094D0930094D" horiz-adv-x="366" 
d="M448 245v-83q-22 -57 -78 -118l-110 -120h-101zM448 656v-74h-477v74h477zM448 327v-75h-160v-37q0 -66 -40.5 -101.5t-108.5 -35.5t-92 10v81q27 -10 83 -10q72 0 72 68v127q0 69 -71 69q-56 0 -79 -10v81q22 9 79 9q157 0 157 -138v-38h160z" />
    <glyph glyph-name="uni091F094D0930094D" horiz-adv-x="400" 
d="M338 419h-121q-81 0 -81 -69v-198q0 -77 100 -77q54 0 118 15v-79q-18 -5 -51 -10l69 -134h-90l-62 129l-7 1l-62 -130h-90l75 146q-87 36 -87 138v204q0 143 160 143h42v84h-280v74h457v-74h-90v-163zM173 -159h79l113 -156h-93z" />
    <glyph glyph-name="uni0920094D0930094D" horiz-adv-x="412" 
d="M213 -5h-11l-60 -126h-90l72 140q-75 31 -75 126v237q0 115 113 133v77h-191v74h470v-74h-192v-77q114 -18 114 -133v-237q0 -92 -73 -125l73 -141h-90zM279 134v236q0 63 -72.5 63t-72.5 -63v-236q0 -63 72.5 -63t72.5 63zM174 -159h79l113 -156h-93z" />
    <glyph glyph-name="uni0921094D0930094D" horiz-adv-x="415" 
d="M343 428h-148q-37 0 -51.5 -13.5t-14.5 -40.5v-28q0 -27 14.5 -41t51.5 -14h20q158 0 158 -130v-27q0 -96 -83 -127l74 -142h-90l-61 128l-9 -1l-61 -127h-90l68 131q-35 4 -70 12v81q66 -17 138 -17q97 0 97 63v24q0 28 -15.5 42.5t-55.5 14.5h-20q-153 0 -153 127v35
q0 127 153 127h61v77h-289v74h474v-74h-98v-154zM172 -159h79l113 -156h-93z" />
    <glyph glyph-name="uni0922094D0930094D" horiz-adv-x="415" 
d="M218 -5h-10l-60 -127h-90l72 140q-81 30 -81 134v224q0 69 37.5 102.5t117.5 33.5h55v80h-288v74h473v-74h-99v-160h-141q-40 0 -55 -14.5t-15 -43.5v-220q0 -34 17 -51.5t61.5 -17.5t61 17.5t16.5 50.5v32q0 56 -54 56l-37 -5v77q19 6 46 6q61 0 95.5 -32.5t34.5 -99.5
v-37q0 -102 -78 -132l72 -140h-90zM182 -159h79l113 -156h-93z" />
    <glyph glyph-name="uni0923094D0930094D" horiz-adv-x="402" 
d="M149 310q14 -16 53.5 -16t53.5 16t14 46v226h-135v-226q0 -30 14 -46zM174 0l312 319v-97q-43 -67 -100 -125l-103 -97h-109zM486 656v-74h-130v-228q0 -140 -153.5 -140t-153.5 140v228h-78v74h515z" />
    <glyph glyph-name="uni0924094D0930094D" horiz-adv-x="248" 
d="M220 406q-100 0 -100 -78v-60h-84v64q0 154 175 154q78 0 179 -38v-143q-6 -8 -129 -151l-114 -120h-111l273 292v67q-44 13 -89 13zM424 656v-74h-454v74h454z" />
    <glyph glyph-name="uni0925094D0930094D" horiz-adv-x="362" 
d="M131 313v-31q0 -65 34 -92.5t108.5 -27.5t159.5 16v-81l-201 -161h-125l191 148h-22q-233 0 -233 196v110h102q57 0 81 17.5t24 66.5v46q0 33 -9.5 47.5t-42.5 14.5t-44 -14.5t-11 -46.5l3 -45h-84q-3 30 -3 42q0 71 32.5 107t104.5 36t103 -35t31 -106v-56
q0 -79 -42.5 -115t-133.5 -36h-23z" />
    <glyph glyph-name="uni0926094D0930094D" horiz-adv-x="414" 
d="M367 -63l113 -156h-93l-99 156h79zM362 -6h-85v114l-5 -1l-135 -174h-99l128 164q-124 12 -124 130v138q0 70 38.5 102.5t119.5 32.5h62v82h-292v74h473v-74h-95v-161h-148q-40 0 -55.5 -15t-15.5 -44v-133q0 -64 78 -64q42 0 70 23v62h85v-256z" />
    <glyph glyph-name="uni0927094D0930094D" horiz-adv-x="291" 
d="M61 519q0 40 7 63h-97v74h256v-74h-70q-10 -21 -10 -63v-49q0 -30 14.5 -44.5t54.5 -15.5h37v-80h-40q-40 0 -56 -15t-16 -44v-28q0 -44 28 -62.5t78.5 -18.5t110.5 10v-81l-151 -139h-109l150 132h-7q-89 0 -137.5 38.5t-48.5 112.5v38q0 79 55 98q-49 23 -49 96v52z
" />
    <glyph glyph-name="uni0928094D0930094D" horiz-adv-x="379" 
d="M184 403q-33 0 -46 -14t-13 -42v-73q0 -28 13 -42t46.5 -14t46.5 14t13 42v67q0 22 -10 62h-50zM476 656v-74h-505v74h505zM477 483v-80h-160q10 -30 10 -60v-69q0 -135 -143 -135t-143 135v75q0 134 143 134h293zM477 311v-92q-65 -102 -126 -171l-76 -84h-106z" />
    <glyph glyph-name="uni092A094D0930094D" horiz-adv-x="228" 
d="M139 582v-266q0 -62 86 -62q54 0 96 11v-67l-184 -212h-105l178 190q-157 1 -157 138v268h-82v74h328v-74h-160z" />
    <glyph glyph-name="uni092B094D0930094D" horiz-adv-x="452" 
d="M590 582h-227v-91q34 8 82 8q78 0 111.5 -35t33.5 -100v-7h-79v5q0 30 -16 45.5t-60 15.5t-72 -8v-415h-86v183l-143 -196h-99l140 189q-120 15 -120 135v271h-84v74h619v-74zM142 582v-268q0 -62 77 -62q32 0 58 7v323h-135z" />
    <glyph glyph-name="uni092C094D0930094D" horiz-adv-x="239" 
d="M-29 656h426v-74h-426v74zM44 222v140q0 71 39.5 107t127.5 36q165 0 165 -143v-140q0 -33 -12.5 -60t-25.5 -42t-196 -193h-111l159 154q-146 9 -146 141zM297 359q0 37 -19.5 54.5t-65.5 17.5q-69 0 -81 -45l166 -120v93zM128 225q0 -36 19 -54t65 -18q74 0 83 51
l-167 122v-101z" />
    <glyph glyph-name="uni092D094D0930094D" horiz-adv-x="429" 
d="M258 260v98h-63q-38 0 -50.5 -13.5t-12.5 -42.5v-42q0 -29 12.5 -43t50.5 -14t50.5 13.5t12.5 43.5zM502 291v-93q-45 -78 -111 -151l-88 -97h-107zM502 432v-74h-160v-101q0 -130 -147.5 -130t-147.5 130v46q0 129 148 129h63v89q0 30 -12 45t-47.5 15t-48 -15
t-12.5 -45l4 -38h-87q-4 21 -4 41q0 137 147 137t147 -137v-92h157z" />
    <glyph glyph-name="uni092E094D0930094D" horiz-adv-x="386" 
d="M467 656v-74h-147v-121h147v-74h-147v-120q0 -135 -146 -135t-146 134v66q0 129 147 129h60v121h-264v74h496zM467 282v-92q-51 -79 -111 -147l-85 -93h-105zM235 269v118h-60q-38 0 -50 -14t-12 -44v-61q0 -30 12 -45t49 -15t49 15t12 46z" />
    <glyph glyph-name="uni092F094D0930094D" horiz-adv-x="319" 
d="M132 307q0 -59 31.5 -85t99 -26t139.5 14v-75l-179 -166h-116l177 151q-6 -1 -19 -1q-218 0 -218 179v107h22q60 0 81.5 14t21.5 55v45q0 63 -52 63h-149v74h423v-74h-158q21 -13 21 -63v-57q0 -117 -125 -120v-35z" />
    <glyph glyph-name="uni0935094D0930094D" horiz-adv-x="231" 
d="M131 357v-128q0 -64 96 -64q63 0 101 11v-81l-143 -157h-101l143 152h-16q-165 0 -165 138v130q0 136 155 136q37 0 60 -5v-74q-18 3 -56 3q-74 0 -74 -61zM323 656v-74h-352v74h352z" />
    <glyph glyph-name="uni0938094D0930094D" horiz-adv-x="419" 
d="M138 465v-107q28 -7 63 -7t49.5 15.5t14.5 45.5v111q0 59 -19 59h-275v74h502v-74h-132q10 -12 10 -65v-116h152v-102q-15 -22 -154 -146l-99 13l188 160h-115q-30 -53 -113 -53q-42 0 -72 9v-120q0 -88 108 -88q62 0 131 13v-79q-63 -13 -131 -13q-96 0 -144.5 40
t-48.5 127v303h85z" />
    <glyph glyph-name="uni0915093C094D0930094D" horiz-adv-x="436" 
d="M234 427l-21 1q-39 0 -54.5 -15.5t-15.5 -44.5v-149q0 -29 15.5 -44.5t53.5 -15.5t63 9v414h-304v74h617v-74h-228v-86q29 8 77 8q78 0 111.5 -35t33.5 -100v-7h-80v5q0 31 -15.5 46t-57 15t-69.5 -8v-420h-85v105l-6 -1l-127 -149h-103l128 144q-108 15 -108 128v143
q0 134 146 134q21 0 29 -3v-74zM244.5 -45q51.5 0 51.5 -51.5t-51.5 -51.5t-51.5 51.5t51.5 51.5z" />
    <glyph glyph-name="uni0916093C094D0930094D" horiz-adv-x="541" 
d="M387 253v111q0 68 34 101.5t113 33.5t113 -33.5t34 -101.5v-111q0 -71 -33.5 -102.5t-113.5 -31.5t-113.5 31.5t-33.5 102.5zM600 253v111q0 30 -14 45t-52.5 15t-52.5 -15t-14 -45v-111q0 -30 14 -44.5t53 -14.5t52.5 14.5t13.5 44.5zM526 32q51 0 51 -51.5t-51 -51.5
t-51 51.5t51 51.5zM254 519q0 37 -12 63h-271v74h708v-74h-353q10 -21 10 -63v-121q0 -149 -149 -149q-27 0 -61 6v-73q0 -107 144 -107q51 0 89 11v-80l-137 -110l-117 12v4l135 93q-197 10 -197 176v264h83v-114q34 -4 64 -4q64 0 64 72v120z" />
    <glyph glyph-name="uni0917093C094D0930094D" horiz-adv-x="268" 
d="M318 -90q-51 0 -51 51.5t51 51.5t51 -51.5t-51 -51.5zM23 311l31 -2q64 0 64 61v212h-147v74h354v-74h-121v-217q0 -66 -35.5 -102.5t-103.5 -36.5q-27 0 -42 3v82zM350 325v-108q-18 -40 -97 -128l-81 -89h-106z" />
    <glyph glyph-name="uni091C093C094D0930094D" horiz-adv-x="388" 
d="M222 342q0 40 -9 63h-107v79h364v-75h-169q8 -21 8 -63v-94q0 -72 -43 -109.5t-125 -37.5q-49 0 -91 11v80q44 -11 89 -11q83 0 83 70v87zM470 656v-74h-488v74h488zM165 -54v4l314 308v-88q-33 -61 -92 -120l-116 -104h-106zM55 -48q-51 0 -51 51.5t51 51.5t51 -51.5
t-51 -51.5z" />
    <glyph glyph-name="uni0928093C094D0930094D" horiz-adv-x="379" 
d="M430 -106q-51 0 -51 51.5t51 51.5t51 -51.5t-51 -51.5zM184 403q-33 0 -46 -14t-13 -42v-73q0 -28 13 -42t46.5 -14t46.5 14t13 42v67q0 22 -10 62h-50zM476 656v-74h-505v74h505zM477 483v-80h-160q10 -30 10 -60v-69q0 -135 -143 -135t-143 135v75q0 134 143 134h293z
M477 311v-92q-65 -102 -126 -171l-76 -84h-106z" />
    <glyph glyph-name="uni092B093C094D0930094D" horiz-adv-x="464" 
d="M590 582h-227v-91q34 8 82 8q78 0 111.5 -35t33.5 -100v-7h-79v5q0 30 -16 45.5t-60 15.5t-72 -8v-415h-86v183l-143 -196h-99l140 189q-120 15 -120 135v271h-84v74h619v-74zM142 582v-268q0 -62 77 -62q32 0 58 7v323h-135zM213 -47q51 0 51 -51.5t-51 -51.5t-51 51.5
t51 51.5z" />
    <glyph glyph-name="uni092F093C094D0930094D" horiz-adv-x="314" 
d="M132 307q0 -59 31.5 -85t99 -26t139.5 14v-75l-179 -166h-116l177 151q-6 -1 -19 -1q-218 0 -218 179v107h22q60 0 81.5 14t21.5 55v45q0 63 -52 63h-149v74h423v-74h-158q21 -13 21 -63v-57q0 -117 -125 -120v-35zM323 -1q51 0 51 -51.5t-51 -51.5t-51 51.5t51 51.5z
" />
    <glyph glyph-name="uni0915094D0915" horiz-adv-x="1026" 
d="M216 427l-21 1q-39 0 -54.5 -15.5t-15.5 -44.5v-170q0 -61 70 -61q35 0 62 10v435h-286v74h1084v-74h-283v-85q24 8 67 8q146 0 146 -135v-167q0 -134 -132 -134q-13 0 -23 2v81q4 -1 26 -1q45 0 45 58v159q0 61 -70 61q-29 0 -59 -8v-421h-85v72q-54 -9 -70 -9
q-146 0 -146 132v172q0 31 -14.5 46t-52 15t-62.5 -7v-421h-85v72q-54 -9 -70 -9q-146 0 -146 132v175q0 134 146 134q21 0 29 -3v-74zM646 427l-21 1q-39 0 -54.5 -15.5t-15.5 -44.5v-170q0 -61 70 -61q35 0 62 10v435h-345v-86q24 8 67 8q68 0 103 -30q36 30 105 30
q21 0 29 -3v-74z" />
    <glyph glyph-name="uni0915094D0916" horiz-adv-x="1176" 
d="M216 427l-21 1q-39 0 -54.5 -15.5t-15.5 -44.5v-170q0 -61 70 -61q35 0 62 10v435h-286v74h1235v-74h-93v-582h-85v127q-30 -8 -71 -8q-76 0 -109 33.5t-33 100.5v111q0 68 32 102t107 34q37 0 74 -7v89h-274q10 -21 10 -63v-121q0 -149 -149 -149q-26 0 -60 6v-73
q0 -107 143 -107q70 0 133 19v-82q-64 -16 -138 -16q-106 0 -164 47t-58 138v186q0 31 -14 46t-52 15t-63 -8v-420h-85v72q-54 -9 -70 -9q-146 0 -146 132v175q0 134 146 134q21 0 29 -3v-74zM682 519q0 34 -11 63h-329v-86q24 8 68 8q78 0 111.5 -35t33.5 -100v-38
q34 -4 64 -4q63 0 63 72v120zM1028 416q-37 8 -70.5 8t-48 -15t-14.5 -45v-111q0 -29 14.5 -44t56 -15t62.5 7v215z" />
    <glyph glyph-name="uni0915094D091A" horiz-adv-x="910" 
d="M216 427l-21 1q-39 0 -54.5 -15.5t-15.5 -44.5v-170q0 -61 70 -61q35 0 62 10v435h-286v74h967v-74h-91v-582h-87v71q-39 -12 -84 -12q-153 0 -153 142v59q0 43 8 75h-60v32q0 31 -14 46t-52 15t-63 -8v-420h-85v72q-54 -9 -70 -9q-146 0 -146 132v175q0 134 146 134
q21 0 29 -3v-74zM760 582h-418v-86q24 8 68 8q118 0 136 -91h165v-75h-91q-11 -25 -11 -78v-57q0 -66 79 -66q39 0 72 11v434z" />
    <glyph glyph-name="uni0915094D091C" horiz-adv-x="1079" 
d="M216 427l-21 1q-39 0 -54.5 -15.5t-15.5 -44.5v-170q0 -61 70 -61q35 0 62 10v435h-286v74h1137v-74h-92v-582h-87v409h-124q9 -21 9 -63v-155q0 -72 -43.5 -109.5t-124.5 -37.5q-45 0 -87 10v80q42 -11 84 -11q84 0 84 70v149q0 34 -9 63h-80v79h291v98h-587v-86
q24 8 68 8q148 0 148 -135v-92h-87v90q0 31 -14 46t-52 15t-63 -8v-420h-85v72q-54 -9 -70 -9q-146 0 -146 132v175q0 134 146 134q21 0 29 -3v-74z" />
    <glyph glyph-name="uni0915094D091F" horiz-adv-x="821" 
d="M216 427l-21 1q-39 0 -54.5 -15.5t-15.5 -44.5v-170q0 -61 70 -61q35 0 62 10v435h-286v74h879v-74h-90v-163h-121q-81 0 -81 -69v-198q0 -77 100 -77q54 0 118 15v-79q-58 -15 -133.5 -15t-123.5 40t-48 115v216q0 31 -14 46t-52 15t-63 -8v-420h-85v72q-54 -9 -70 -9
q-146 0 -146 132v175q0 134 146 134q21 0 29 -3v-74zM342 582v-86q24 8 68 8q75 0 110 -35q40 29 111 29h42v84h-331z" />
    <glyph glyph-name="uni0915094D0923" horiz-adv-x="1059" 
d="M216 427l-21 1q-39 0 -54.5 -15.5t-15.5 -44.5v-170q0 -61 70 -61q35 0 62 10v435h-286v74h1117v-74h-92v-582h-86v582h-118v-328q0 -140 -154 -140t-154 140v89q0 31 -15.5 46t-58.5 15t-68 -8v-396h-85v72q-54 -9 -70 -9q-146 0 -146 132v175q0 134 146 134q21 0 29 -3
v-74zM342 582v-111q36 9 73 9t69 -10v112h-142zM705 255v327h-134v-327q0 -30 14 -46t53.5 -16t53 15.5t13.5 46.5z" />
    <glyph glyph-name="uni0915094D0924" horiz-adv-x="635" 
d="M209 46q-135 -2 -135 136v168q0 35 15 62h-73v74h199q45 0 73 -6v102h-317v74h693v-74h-291v-101q27 9 67 9q146 0 146 -135v-173q0 -134 -132 -134q-13 0 -23 2v81q4 -1 26 -1q45 0 45 58v165q0 29 -15.5 44.5t-51.5 15.5t-62 -7v-406h-85v406q-35 5 -69 5t-47.5 -15.5
t-13.5 -45.5v-164q0 -31 15.5 -45t56.5 -13v-80q-10 -2 -21 -2z" />
    <glyph glyph-name="uni0915094D0925" horiz-adv-x="990" 
d="M216 427l-21 1q-39 0 -54.5 -15.5t-15.5 -44.5v-170q0 -61 70 -61q35 0 62 10v435h-286v74h476v-74h-105v-136q29 8 68 8q101 0 128 -64h35q58 0 82 17.5t24 66.5v46q0 33 -10 47.5t-42.5 14.5t-43.5 -15t-11 -48l4 -43h-84q-4 23 -4 43q0 142 136 142q72 0 103 -35
t31 -106v-56q0 -79 -42.5 -115t-133.5 -36h-22v-31q0 -65 33 -92.5t111 -27.5t137 14v480h179v-74h-93v-582h-86v97q-60 -15 -137 -15q-233 0 -233 198v37q0 31 -14 46t-52 15t-63 -8v-370h-85v72q-54 -9 -70 -9q-146 0 -146 132v175q0 134 146 134q21 0 29 -3v-74z" />
    <glyph glyph-name="uni0915094D0926" horiz-adv-x="843" 
d="M216 427l-21 1q-39 0 -54.5 -15.5t-15.5 -44.5v-170q0 -61 70 -61q35 0 62 10v435h-286v74h900v-74h-94v-161h-148q-41 0 -56.5 -15t-15.5 -44v-151q0 -63 79 -63q34 0 69 8v94h86v-256h-86v84q-34 -8 -79 -8q-76 0 -115.5 36t-39.5 103v158q0 31 -14 46t-52 15t-63 -8
v-420h-85v72q-54 -9 -70 -9q-146 0 -146 132v175q0 134 146 134q21 0 29 -3v-74zM342 582v-86q24 8 68 8q72 0 106 -31q39 27 113 27h61v82h-348z" />
    <glyph glyph-name="uni0915094D092A" horiz-adv-x="867" 
d="M216 427l-21 1q-39 0 -54.5 -15.5t-15.5 -44.5v-170q0 -61 70 -61q35 0 62 10v435h-286v74h925v-74h-92v-582h-87v135q-29 -11 -80 -11q-153 0 -153 137v82q0 31 -15.5 46t-58.5 15t-68 -8v-396h-85v72q-54 -9 -70 -9q-146 0 -146 132v175q0 134 146 134q21 0 29 -3v-74z
M342 582v-111q36 9 73 9t69 -10v112h-142zM717 582h-146v-319q0 -61 76 -61q40 0 70 11v369z" />
    <glyph glyph-name="uni0915094D092B" horiz-adv-x="1049" 
d="M216 427l-21 1q-39 0 -54.5 -15.5t-15.5 -44.5v-170q0 -61 70 -61q35 0 62 10v435h-286v74h1107v-74h-287v-92q32 10 70 10q73 0 110 -36t37 -101v-166q0 -134 -139 -134q-3 0 -17 1v80q39 -1 54 13.5t15 45.5v158q0 59 -69 59q-32 0 -61 -9v-411h-85v122q-39 -9 -70 -9
q-152 0 -152 137v93q0 31 -15.5 46t-58.5 15t-68 -8v-396h-85v72q-54 -9 -70 -9q-146 0 -146 132v175q0 134 146 134q21 0 29 -3v-74zM342 582v-111q36 9 73 9t69 -10v112h-142zM706 582h-136v-329q0 -62 77 -62q31 0 59 7v384z" />
    <glyph glyph-name="uni0915094D092E" horiz-adv-x="1026" 
d="M216 427l-21 1q-39 0 -54.5 -15.5t-15.5 -44.5v-170q0 -61 70 -61q35 0 62 10v435h-286v74h1084v-74h-92v-582h-86v360h-112v-170q0 -131 -147 -131t-147 131v177q0 31 -14 46t-52 15t-63 -8v-420h-85v72q-54 -9 -70 -9q-146 0 -146 132v175q0 134 146 134q21 0 29 -3
v-74zM681 192v168h-63q-38 0 -50.5 -13.5t-12.5 -42.5v-112q0 -29 12.5 -43t50.5 -14t50.5 13.5t12.5 43.5zM681 435v147h-339v-86q24 8 68 8q113 0 137 -79q29 10 71 10h63zM877 435v147h-112v-147h112z" />
    <glyph glyph-name="uni0915094D092F" horiz-adv-x="931" 
d="M216 427l-21 1q-39 0 -54.5 -15.5t-15.5 -44.5v-170q0 -61 70 -61q35 0 62 10v435h-286v74h989v-74h-92v-582h-87v96q-51 -11 -103 -11q-93 0 -150 42t-57 133v103q0 31 -14 46t-52 15t-63 -8v-416h-85v72q-54 -9 -70 -9q-146 0 -146 132v175q0 134 146 134q21 0 29 -3
v-74zM596 519q0 37 -8 63h-246v-90q29 8 68 8q128 0 139 -108q26 5 36.5 20t10.5 45v62zM781 582h-108q8 -23 8 -63v-74q0 -117 -125 -120v-56q0 -52 30.5 -77.5t87.5 -25.5t107 10v406z" />
    <glyph glyph-name="uni0915094D0932" horiz-adv-x="1054" 
d="M216 427l-21 1q-39 0 -54.5 -15.5t-15.5 -44.5v-170q0 -61 70 -61q35 0 62 10v435h-286v74h1112v-74h-92v-582h-87v392q-24 12 -60 12q-70 0 -70 -61v-134h-86v134q0 29 -14.5 45t-51 16t-50.5 -16t-14 -46v-178q0 -41 20 -63t73 -22q28 0 58 4v-78q-27 -5 -62 -5
q-176 0 -176 162v205q0 31 -14 46t-52 15t-63 -8v-420h-85v72q-54 -9 -70 -9q-146 0 -146 132v175q0 134 146 134q21 0 29 -3v-74zM904 582h-562v-86q24 8 68 8q83 0 116 -43q37 23 95 23q77 0 108 -48q35 47 109 47q38 0 66 -11v110z" />
    <glyph glyph-name="uni0915094D0935" horiz-adv-x="863" 
d="M216 427l-21 1q-39 0 -54.5 -15.5t-15.5 -44.5v-170q0 -61 70 -61q35 0 62 10v435h-286v74h921v-74h-92v-582h-87v75q-44 -11 -85 -11q-154 0 -154 140v163q0 31 -15.5 46t-53.5 15t-63 -7v-421h-85v72q-54 -9 -70 -9q-146 0 -146 132v175q0 134 146 134q21 0 29 -3v-74z
M342 582v-86q24 8 67 8q73 0 108 -32q39 33 111 33q45 0 85 -10v87h-371zM639 430q-80 0 -80 -65v-159q0 -66 81 -66q48 0 76 11v269q-30 10 -77 10z" />
    <glyph glyph-name="uni0915094D0936" horiz-adv-x="1025" 
d="M875 656h179v-74h-92v-582h-87v656zM216 427l-21 1q-39 0 -54.5 -15.5t-15.5 -44.5v-170q0 -61 70 -61q35 0 62 10v435h-286v74h446v-74h-75v-118q27 9 68 9q148 0 148 -135v-11q33 -11 71.5 -11t53.5 16t15 46v141q0 30 -15 46t-55 16q-70 0 -70 -64l2 -24h-87l-2 28
q0 67 39 103.5t118 36.5t118 -36.5t39 -103.5v-146q0 -137 -150 -137q-41 0 -77 12v-89q0 -84 104 -84q52 0 116 20v-80q-57 -19 -134.5 -19t-125 44t-47.5 117v176q0 32 -13.5 46.5t-51 14.5t-64.5 -7v-389h-85v72q-54 -9 -70 -9q-146 0 -146 132v175q0 134 146 134
q21 0 29 -3v-74z" />
    <glyph glyph-name="uni0915094D0938" horiz-adv-x="1032" 
d="M216 427l-21 1q-39 0 -54.5 -15.5t-15.5 -44.5v-170q0 -61 70 -61q35 0 62 10v435h-286v74h1089v-74h-92v-582h-87v281h-146q-37 -37 -113 -37q-34 0 -64 8v-99q0 -79 106 -79q56 0 122 20v-80q-61 -19 -140.5 -19t-127 41t-47.5 115v216q0 31 -14 46t-52 15t-63 -8v-420
h-85v72q-54 -9 -70 -9q-146 0 -146 132v175q0 134 146 134q21 0 29 -3v-74zM683 519q0 34 -9 63h-332v-86q24 8 68 8q148 0 148 -135v-40q32 -8 55 -8q70 0 70 62v136zM881 356v226h-119q7 -21 7 -63v-136q0 -9 -2 -27h114z" />
    <glyph glyph-name="uni0916094D0916" horiz-adv-x="1306" 
d="M254 519q0 37 -12 63h-271v74h1364v-74h-92v-582h-86v127q-28 -8 -70 -8q-77 0 -110 33.5t-33 100.5v111q0 68 32 102t108 34q38 0 73 -7v89h-273q10 -21 10 -63v-121q0 -149 -149 -149q-27 0 -61 6v-73q0 -107 144 -107q71 0 132 19v-82q-62 -16 -137 -16
q-184 0 -217 132q-30 -9 -72 -9q-80 0 -113.5 31.5t-33.5 102.5v111q0 68 34 101.5t113 33.5t114.5 -34t35.5 -101v-33q34 -4 64 -4q64 0 64 72v120q0 37 -12 63h-474q10 -21 10 -63v-121q0 -149 -149 -149q-27 0 -61 6v-73q0 -107 144 -107q71 0 132 19v-82
q-62 -16 -137 -16q-106 0 -164 47t-58 138v264h83v-114q34 -4 64 -4q64 0 64 72v120zM467 364v-111q0 -30 14 -44.5t53 -14.5t52.5 14.5t13.5 44.5v111q0 30 -14 45t-52.5 15t-52.5 -15t-14 -45zM1157 416q-37 8 -70 8q-63 0 -63 -60v-111q0 -29 15 -44t57 -15t61 7v215z
" />
    <glyph glyph-name="uni0916094D0924" horiz-adv-x="992" 
d="M254 519q0 37 -12 63h-271v74h1049v-74h-92v-582h-87v411q-47 10 -78 10q-80 0 -80 -67v-216q0 -30 17 -44.5t58 -13.5v-81h-24q-71 0 -101.5 32t-32.5 95q-25 -7 -66 -7q-80 0 -113.5 31.5t-33.5 102.5v111q0 68 34 101.5t110.5 33.5t112.5 -31q39 33 110 33
q46 0 87 -11v92h-515q10 -21 10 -63v-121q0 -149 -149 -149q-27 0 -61 6v-73q0 -107 144 -107q71 0 132 19v-82q-62 -16 -137 -16q-106 0 -164 47t-58 138v264h83v-114q34 -4 64 -4q64 0 64 72v120zM467 364v-111q0 -30 14 -44.5t53 -14.5t52.5 14.5t13.5 44.5v111
q0 30 -14 45t-52.5 15t-52.5 -15t-14 -45z" />
    <glyph glyph-name="uni0916094D092E" horiz-adv-x="1152" 
d="M254 519q0 37 -12 63h-271v74h1210v-74h-92v-582h-86v360h-112v-170q0 -131 -147 -131q-108 0 -134 70q-29 -10 -76 -10q-80 0 -113.5 31.5t-33.5 102.5v111q0 68 34 101.5t113 33.5q113 0 138 -74q29 10 72 10h63v147h-481q10 -21 10 -63v-121q0 -149 -149 -149
q-27 0 -61 6v-73q0 -107 144 -107q71 0 132 19v-82q-62 -16 -137 -16q-106 0 -164 47t-58 138v264h83v-114q34 -4 64 -4q64 0 64 72v120zM467 364v-111q0 -30 14 -44.5t53 -14.5t52.5 14.5t13.5 44.5v111q0 30 -14 45t-52.5 15t-52.5 -15t-14 -45zM807 192v168h-63
q-38 0 -50.5 -13.5t-12.5 -42.5v-112q0 -29 12.5 -43t50 -14t50.5 13.5t13 43.5zM1003 435v147h-112v-147h112z" />
    <glyph glyph-name="uni0916094D092F" horiz-adv-x="1060" 
d="M254 519q0 37 -12 63h-271v74h1119v-74h-92v-582h-87v96q-51 -11 -103 -11q-121 0 -172 64q-33 -30 -107.5 -30t-108 31.5t-33.5 102.5v111q0 68 34 101.5t113 33.5q125 0 137 -108q31 4 43 19t12 47v62q0 37 -8 63h-392q10 -21 10 -63v-121q0 -149 -149 -149
q-27 0 -61 6v-73q0 -107 144 -107q71 0 132 19v-82q-62 -16 -137 -16q-106 0 -164 47t-58 138v264h83v-114q34 -4 64 -4q64 0 64 72v120zM600 253v111q0 30 -14 45t-52.5 15t-52.5 -15t-14 -45v-111q0 -30 14 -44.5t53 -14.5t52.5 14.5t13.5 44.5zM911 582h-108q8 -23 8 -63
v-74q0 -117 -125 -120v-56q0 -52 30.5 -77.5t87.5 -25.5t107 10v406z" />
    <glyph glyph-name="uni0916094D0935" horiz-adv-x="989" 
d="M254 519q0 37 -12 63h-271v74h1047v-74h-92v-582h-87v75q-44 -11 -85 -11q-108 0 -141 70q-30 -15 -79 -15q-80 0 -113.5 31.5t-33.5 102.5v111q0 68 34 101.5t108 33.5t108 -32q40 38 117 38q45 0 85 -10v87h-513q10 -21 10 -63v-121q0 -149 -149 -149q-27 0 -61 6v-73
q0 -107 144 -107q71 0 132 19v-82q-62 -16 -137 -16q-106 0 -164 47t-58 138v264h83v-114q34 -4 64 -4q64 0 64 72v120zM467 364v-111q0 -30 14 -44.5t53 -14.5t52.5 14.5t13.5 44.5v111q0 30 -14 45t-52.5 15t-52.5 -15t-14 -45zM765 430q-80 0 -80 -65v-159q0 -66 81 -66
q48 0 76 11v269q-30 10 -77 10z" />
    <glyph glyph-name="uni0916094D0936" horiz-adv-x="1150" 
d="M1000 656h179v-74h-92v-582h-87v656zM596 521q0 67 39.5 103.5t118.5 36.5t118 -36.5t39 -103.5v-137q0 -137 -150 -137q-40 0 -78 12v-98q0 -84 104 -84q52 0 117 20v-80q-57 -19 -129.5 -19t-117.5 34.5t-55 94.5q-29 -8 -68 -8q-80 0 -113.5 31.5t-33.5 102.5v74
q0 68 34 101.5t113 33.5t112.5 -32.5t34.5 -100.5q44 -4 78 -4q65 0 65 61v133q0 62 -70.5 62t-70.5 -64l2 -27h-86q-3 12 -3 31zM467 327v-74q0 -30 14 -44.5t53 -14.5t52.5 14.5t13.5 44.5v74q0 31 -13.5 45.5t-52.5 14.5t-53 -15t-14 -45zM254 519q0 37 -12 63h-271v74
h570v-74h-215q10 -21 10 -63v-121q0 -149 -149 -149q-27 0 -61 6v-73q0 -107 144 -107q71 0 132 19v-82q-62 -16 -137 -16q-106 0 -164 47t-58 138v264h83v-114q34 -4 64 -4q64 0 64 72v120z" />
    <glyph glyph-name="uni0917094D0917" horiz-adv-x="726" 
d="M23 270l31 -2q64 0 64 61v253h-147v74h783v-74h-91v-582h-87v582h-130v-258q0 -66 -35.5 -102.5t-103.5 -36.5q-27 0 -42 3v82l31 -2q64 0 64 61v253h-156v-258q0 -66 -35.5 -102.5t-103.5 -36.5q-27 0 -42 3v82z" />
    <glyph glyph-name="uni0917094D0918" horiz-adv-x="761" 
d="M23 270l31 -2q64 0 64 61v253h-147v74h818v-74h-91v-582h-87v74q-59 -13 -107 -13q-87 0 -135.5 39t-48.5 112v51q0 79 55 98q-49 22 -49 96v62q0 33 7 63h-129v-258q0 -66 -35.5 -102.5t-103.5 -36.5q-27 0 -42 3v82zM611 582h-190q-9 -21 -9 -63v-60q0 -29 14.5 -43.5
t54.5 -15.5h37v-80h-40q-40 0 -56 -15t-16 -44v-41q0 -44 27 -62.5t80 -18.5t98 13v430z" />
    <glyph glyph-name="uni0917094D091C" horiz-adv-x="810" 
d="M23 270l31 -2q64 0 64 61v253h-147v74h867v-74h-92v-582h-86v409h-124q8 -21 8 -63v-155q0 -72 -43 -109.5t-125 -37.5q-49 0 -91 11v80q48 -12 89 -12q83 0 83 70v149q0 34 -9 63h-107v79h319v98h-456v-258q0 -66 -35.5 -102.5t-103.5 -36.5q-27 0 -42 3v82z" />
    <glyph glyph-name="uni0917094D0923" horiz-adv-x="895" 
d="M23 270l31 -2q64 0 64 61v253h-147v74h952v-74h-92v-582h-86v582h-118v-328q0 -140 -154 -140t-154 140v328h-115v-258q0 -66 -35.5 -102.5t-103.5 -36.5q-27 0 -42 3v82zM540 255v327h-134v-327q0 -30 14 -46t53.5 -16t53 15.5t13.5 46.5z" />
    <glyph glyph-name="uni0917094D0926" horiz-adv-x="679" 
d="M23 270l31 -2q64 0 64 61v253h-147v74h736v-74h-94v-161h-148q-41 0 -56.5 -15t-15.5 -44v-151q0 -63 79 -63q34 0 69 8v94h86v-256h-86v84q-34 -8 -79 -8q-76 0 -115.5 36t-39.5 103v156q0 70 38.5 102.5t119.5 32.5h61v82h-322v-258q0 -66 -35.5 -102.5t-103.5 -36.5
q-27 0 -42 3v82z" />
    <glyph glyph-name="uni0917094D0927" horiz-adv-x="761" 
d="M23 270l31 -2q64 0 64 61v253h-147v74h539v-74h-86q-12 -21 -12 -63v-57q0 -29 14.5 -43.5t54.5 -15.5h37v-80h-40q-40 0 -56 -15t-16 -44v-45q0 -80 107 -80q50 0 98 13v504h179v-74h-92v-582h-87v74q-42 -13 -118 -13t-124.5 38t-48.5 112v55q0 79 55 98q-49 22 -49 96
v59q0 40 9 63h-131v-258q0 -66 -35.5 -102.5t-103.5 -36.5q-27 0 -42 3v82z" />
    <glyph glyph-name="uni0917094D092C" horiz-adv-x="698" 
d="M23 270l31 -2q64 0 64 61v253h-147v74h756v-74h-93v-582h-82v76q-33 -11 -81 -11q-167 0 -167 141v158q0 141 164 141q53 0 84 -12v89h-348v-258q0 -66 -35.5 -102.5t-103.5 -36.5q-27 0 -42 3v82zM475 431q-68 0 -83 -42l160 -135v165q-31 12 -77 12zM388 209
q0 -70 87 -70q45 0 77 10v37l-164 140v-117z" />
    <glyph glyph-name="uni0917094D092D" horiz-adv-x="868" 
d="M517 407v114q0 31 -12 45.5t-47.5 14.5t-48 -15t-12.5 -45l4 -45h-87q-4 27 -4 48q0 137 147 137t147 -137v-117h114v249h179v-74h-92v-582h-87v333h-117v-144q0 -130 -147 -130t-147 130v90q0 128 147 128h63zM517 191v142h-63q-38 0 -50.5 -13.5t-12.5 -43.5v-85
q0 -29 12.5 -42.5t50.5 -13.5t50.5 13.5t12.5 42.5zM23 270l31 -2q64 0 64 61v253h-147v74h289v-74h-56v-258q0 -66 -35.5 -102.5t-103.5 -36.5q-27 0 -42 3v82z" />
    <glyph glyph-name="uni0917094D092E" horiz-adv-x="845" 
d="M23 270l31 -2q64 0 64 61v253h-147v74h903v-74h-92v-582h-86v360h-112v-170q0 -131 -147 -131t-147 131v116q0 129 147 129h63v147h-296v-258q0 -66 -35.5 -102.5t-103.5 -36.5q-27 0 -42 3v82zM500 192v168h-63q-38 0 -50.5 -13.5t-12.5 -42.5v-112q0 -29 12.5 -43
t50.5 -14t50.5 13.5t12.5 43.5zM696 435v147h-112v-147h112z" />
    <glyph glyph-name="uni0917094D092F" horiz-adv-x="773" 
d="M23 270l31 -2q64 0 64 61v253h-147v74h831v-74h-92v-582h-87v96q-51 -11 -103 -11q-93 0 -150 42t-57 133v128h22q60 0 81.5 14t21.5 55v62q0 37 -8 63h-226v-258q0 -66 -35.5 -102.5t-103.5 -36.5q-27 0 -42 3v82zM623 582h-108q8 -23 8 -63v-74q0 -117 -125 -120v-56
q0 -52 30.5 -77.5t87.5 -25.5t107 10v406z" />
    <glyph glyph-name="uni0917094D0932" horiz-adv-x="890" 
d="M23 270l31 -2q64 0 64 61v253h-147v74h948v-74h-92v-582h-87v392q-24 12 -60 12q-70 0 -70 -61v-134h-86v134q0 29 -14.5 45t-51 16t-50.5 -16t-14 -46v-178q0 -41 20 -63t73 -22q28 0 58 4v-78q-27 -5 -62 -5q-176 0 -176 162v182q0 67 38 103.5t113.5 36.5t106.5 -48
q35 47 109 47q38 0 66 -11v110h-536v-258q0 -66 -35.5 -102.5t-103.5 -36.5q-27 0 -42 3v82z" />
    <glyph glyph-name="uni0917094D0935" horiz-adv-x="693" 
d="M23 270l31 -2q64 0 64 61v253h-147v74h751v-74h-92v-582h-87v75q-44 -11 -85 -11q-154 0 -154 140v162q0 66 38.5 102.5t115.5 36.5q45 0 85 -10v87h-339v-258q0 -66 -35.5 -102.5t-103.5 -36.5q-27 0 -42 3v82zM469 430q-80 0 -80 -65v-159q0 -66 81 -66q48 0 76 11v269
q-30 10 -77 10z" />
    <glyph glyph-name="uni0917094D0938" horiz-adv-x="876" 
d="M23 270l31 -2q64 0 64 61v253h-147v74h934v-74h-92v-582h-87v281h-147q-37 -37 -113 -37q-34 0 -64 8v-99q0 -79 106 -79q56 0 122 20v-80q-59 -19 -139 -19t-128 41t-48 115v299h87v-121q32 -8 55 -8q71 0 71 62v136q0 40 -9 63h-315v-258q0 -66 -35.5 -102.5
t-103.5 -36.5q-27 0 -42 3v82zM726 356v226h-120q7 -21 7 -63v-136q0 -9 -2 -27h115z" />
    <glyph glyph-name="uni0918094D092E" horiz-adv-x="899" 
d="M61 519q0 40 7 63h-97v74h957v-74h-92v-582h-86v360h-112v-170q0 -131 -147 -131q-65 0 -101 25q-78 -23 -142 -23q-93 0 -143 38.5t-50 112.5v51q0 79 55 98q-49 22 -49 96v62zM554 192v168h-63q-38 0 -50.5 -13.5t-12.5 -42.5v-112q0 -29 12.5 -43t50.5 -14t50.5 13.5
t12.5 43.5zM554 435v147h-398q-9 -21 -9 -63v-60q0 -29 14.5 -43.5t54.5 -15.5h37v-80h-40q-40 0 -56 -15t-16 -44v-41q0 -44 27.5 -62.5t78 -18.5t101.5 12q-4 16 -4 39v116q0 129 147 129h63zM750 435v147h-112v-147h112z" />
    <glyph glyph-name="uni0918094D092F" horiz-adv-x="804" 
d="M61 519q0 40 7 63h-97v74h862v-74h-92v-582h-87v96q-51 -11 -115 -11t-114 27q-82 -34 -176.5 -34t-144 38.5t-49.5 112.5v45q0 79 55 98q-49 23 -49 96v51zM469 519q0 37 -8 63h-305q-9 -21 -9 -63v-48q0 -30 14.5 -44.5t54.5 -15.5h37v-80h-40q-40 0 -56 -15t-16 -44
v-35q0 -44 27.5 -62.5t78.5 -18.5t117 16q-20 35 -20 88v128h22q60 0 81.5 14t21.5 55v62zM654 582h-108q8 -23 8 -63v-74q0 -117 -125 -120v-56q0 -52 30.5 -77.5t87.5 -25.5t107 10v406z" />
    <glyph glyph-name="uni091A094D091A" horiz-adv-x="717" 
d="M330 332q0 43 8 77h-43v75h223v-75h-91q-10 -25 -10 -78v-128q0 -34 18.5 -50t58.5 -16t73 11v434h-596v74h775v-74h-92v-582h-87v71q-39 -12 -93.5 -12t-90.5 24q-56 -24 -135 -24t-122 36.5t-43 105.5v131q0 42 8 74h-79v78h228v-75h-60q-11 -25 -11 -78v-128
q0 -66 87 -66q43 0 81 10q-7 22 -7 54v131z" />
    <glyph glyph-name="uni091A094D091B" horiz-adv-x="805" 
d="M342 519q0 34 11 63h-382v74h863v-74h-147v-98q68 -22 68 -121v-192q0 -85 -47 -121t-161 -36q-146 0 -188 62q-57 -17 -112 -17q-80 0 -122 36.5t-42 105.5v131q0 42 8 74h-79v78h259v-75h-91q-11 -25 -11 -78v-128q0 -66 85 -66q41 0 83 11v47q0 73 55 94
q-50 21 -50 95v135zM654.5 405.5q-15.5 16.5 -50 16.5t-60.5 -8v74q27 9 63 9v85h-167q-11 -21 -11 -63v-132q0 -29 14.5 -44t53.5 -15h60v-77h-58q-42 0 -58.5 -14.5t-16.5 -46.5v-23q0 -44 24 -59.5t98.5 -15.5t99 17.5t24.5 64.5v178q0 37 -15.5 53.5z" />
    <glyph glyph-name="uni091A094D092E" horiz-adv-x="880" 
d="M83 332q0 42 8 74h-79v78h259v-75h-91q-11 -25 -11 -78v-128q0 -66 85 -66q38 0 76 10q-5 22 -5 43v116q0 129 147 129h63v147h-564v74h938v-74h-92v-582h-86v360h-112v-170q0 -131 -147 -131q-61 0 -97 22q-59 -22 -133.5 -22t-116.5 36.5t-42 105.5v131zM535 192v168
h-63q-38 0 -50.5 -13.5t-12.5 -42.5v-112q0 -29 12.5 -43t50.5 -14t50.5 13.5t12.5 43.5zM731 435v147h-112v-147h112z" />
    <glyph glyph-name="uni091A094D092F" horiz-adv-x="793" 
d="M458 519q0 37 -8 63h-479v74h851v-74h-92v-582h-87v96q-51 -11 -113.5 -11t-113.5 25q-78 -40 -162 -40t-127.5 36.5t-43.5 105.5v120q0 42 8 74h-79v78h259v-75h-91q-11 -25 -11 -78v-117q0 -66 86 -66q44 0 101 17q-23 38 -23 95v128h22q60 0 81.5 14t21.5 55v62z
M643 582h-108q8 -23 8 -63v-74q0 -117 -125 -120v-56q0 -52 30.5 -77.5t87.5 -25.5t107 10v406z" />
    <glyph glyph-name="uni091B094D092F" horiz-adv-x="1014" 
d="M1042 656v-74h-92v-582h-86v70q-68 -11 -114 -11q-196 0 -196 175v65h46q45 0 61.5 11t16.5 44v5q0 29 -12 42.5t-47 13.5h-150q3 -16 3 -35v-209q0 -85 -47 -121t-160.5 -36t-162 35t-48.5 115v31q0 73 55 94q-49 21 -49 95v131q0 48 25 67h-114v74h1071zM371 422
q-16 17 -50 17t-60 -10v75q36 9 77.5 9t76.5 -19h202q75 0 110.5 -31t35.5 -97v-16q0 -115 -124 -115v-3q0 -48 26 -70t87.5 -22t111.5 11v431h-652q-36 0 -51 -16t-15 -52v-127q0 -29 14.5 -44t53.5 -15h61v-77h-58q-42 0 -59 -14.5t-17 -46.5v-22q0 -45 24 -60.5
t98.5 -15.5t99 17.5t24.5 64.5v195q0 36 -16 53z" />
    <glyph glyph-name="uni091B094D0935" horiz-adv-x="521" 
d="M549 582h-147v-98q68 -22 68 -121v-192q0 -84 -45 -119v-318h-87v71q-34 -26 -93 -26q-156 0 -156 135v35q0 54 39 85q-76 32 -76 130v31q0 73 55 94q-50 21 -50 95v131q0 47 25 67h-111v74h578v-74zM369.5 405.5q-15.5 16.5 -51 16.5t-59.5 -10v75q27 10 63 10v85h-112
q-36 0 -51 -16t-15 -52v-127q0 -29 14.5 -44t53.5 -15h60v-77h-58q-42 0 -58.5 -14.5t-16.5 -46.5v-22q0 -45 24 -60.5t98.5 -15.5t99 17.5t24.5 64.5v178q0 37 -15.5 53.5zM262 14h-8q-45 0 -63.5 -16.5t-18.5 -48.5v-33q0 -32 18.5 -48t63.5 -16q72 0 85 48v119
q-37 -5 -77 -5z" />
    <glyph glyph-name="uni091C094D0915" horiz-adv-x="962" 
d="M582 427l-21 1q-39 0 -54.5 -15.5t-15.5 -44.5v-170q0 -61 70 -61q35 0 62 10v435h-652v74h1020v-74h-283v-85q24 8 67 8q146 0 146 -135v-167q0 -134 -132 -134q-13 0 -23 2v81q4 -1 26 -1q45 0 45 58v159q0 61 -70 61q-29 0 -59 -8v-421h-85v72q-54 -9 -70 -9
q-146 0 -146 132v175q0 23 4 39h-121q8 -21 8 -63v-155q0 -72 -43 -109.5t-125 -37.5q-49 0 -91 11v80q48 -12 89 -12q83 0 83 70v149q0 34 -9 63h-107v79h367q35 20 91 20q21 0 29 -3v-74z" />
    <glyph glyph-name="uni091C094D091C" horiz-adv-x="916" 
d="M211 342q0 34 -9 63h-107v79h671v98h-795v74h974v-74h-92v-582h-87v409h-124q9 -21 9 -63v-155q0 -72 -43.5 -109.5t-124.5 -37.5q-50 0 -91 11v80q48 -12 88 -12q84 0 84 70v149q0 40 -9 67h-265q8 -21 8 -63v-155q0 -72 -43 -109.5t-125 -37.5q-49 0 -91 11v80
q48 -12 89 -12q83 0 83 70v149z" />
    <glyph glyph-name="uni091C094D091D" horiz-adv-x="960" 
d="M211 342q0 34 -9 63h-107v79h350q38 21 100 21h67v77h-641v74h1018v-74h-92v-582h-87v247h-126q24 -19 24 -65v-39q0 -68 -36.5 -99.5t-113.5 -31.5q-46 0 -80 8v-86h-84v227h84v-65q25 -7 69 -7q76 0 76 59v35q0 29 -15.5 44t-55.5 15h-7q-152 0 -152 127v9q0 11 2 31
h-105q8 -21 8 -63v-155q0 -72 -43 -109.5t-125 -37.5q-49 0 -91 11v80q48 -12 89 -12q83 0 83 70v149zM810 317v265h-111v-154h-154q-36 0 -50.5 -13t-14.5 -39v-5q0 -27 14 -40t50 -14h266z" />
    <glyph glyph-name="uni091C094D091F" horiz-adv-x="768" 
d="M211 342q0 34 -9 63h-107v79h395q34 14 83 14h42v84h-644v74h821v-74h-90v-163h-121q-81 0 -81 -69v-198q0 -77 100 -77q54 0 118 15v-79q-58 -15 -133.5 -15t-123.5 40t-48 115v204q0 32 7 54h-130q8 -21 8 -63v-155q0 -72 -43 -109.5t-125 -37.5q-49 0 -91 11v80
q48 -12 89 -12q83 0 83 70v149z" />
    <glyph glyph-name="uni091C094D0921" horiz-adv-x="764" 
d="M211 342q0 34 -9 63h-107v79h350q38 21 101 21h61v77h-636v74h821v-74h-98v-154h-148q-37 0 -51.5 -13.5t-14.5 -40.5v-28q0 -27 14.5 -41t51.5 -14h20q158 0 158 -130v-27q0 -142 -184 -142q-68 0 -138 16v81q66 -17 138 -17q97 0 97 63v24q0 28 -15.5 42.5t-55.5 14.5
h-20q-153 0 -153 127v35q0 11 2 31h-105q8 -21 8 -63v-155q0 -72 -43 -109.5t-125 -37.5q-49 0 -91 11v80q48 -12 89 -12q83 0 83 70v149z" />
    <glyph glyph-name="uni091C094D0924" horiz-adv-x="809" 
d="M211 342q0 34 -9 63h-107v79h391q36 17 84.5 17t89.5 -11v92h-689v74h868v-74h-92v-582h-87v411q-47 10 -78 10q-81 0 -81 -67v-216q0 -30 17 -44.5t58 -13.5v-81h-23q-73 0 -106 34t-33 99v225q0 30 7 52h-131q8 -21 8 -63v-155q0 -72 -43 -109.5t-125 -37.5
q-49 0 -91 11v80q48 -12 89 -12q83 0 83 70v149z" />
    <glyph glyph-name="uni091C094D0926" horiz-adv-x="778" 
d="M211 344q0 34 -9 63h-107v79h380q37 14 89 14h61v82h-654v74h835v-74h-94v-161h-148q-33 0 -49 -10h-1q-22 -13 -22 -49v-151q0 -63 79 -63q34 0 69 8v94h86v-256h-86v84q-34 -8 -79 -8q-76 0 -115.5 36t-39.5 103v156q0 23 5 46h-121q8 -22 8 -63v-157q0 -72 -43 -109.5
t-125 -37.5q-49 0 -91 11v80q48 -12 89 -12q83 0 83 70v151z" />
    <glyph glyph-name="uni091C094D092C" horiz-adv-x="802" 
d="M211 342q0 34 -9 63h-107v79h373q40 21 98.5 21t89.5 -12v89h-685v74h860v-74h-93v-582h-82v76q-33 -11 -81 -11q-167 0 -167 141v158q0 23 5 45h-123q8 -21 8 -63v-155q0 -72 -43 -109.5t-125 -37.5q-49 0 -91 11v80q48 -12 89 -12q83 0 83 70v149zM579 431
q-68 0 -83 -42l160 -135v165q-31 12 -77 12zM492 209q0 -70 87 -70q45 0 77 10v37l-164 140v-117z" />
    <glyph glyph-name="uni091C094D092E" horiz-adv-x="949" 
d="M211 342q0 34 -9 63h-107v79h259q110 0 137 -53q20 4 50 4h63v147h-633v74h1007v-74h-92v-582h-86v360h-112v-170q0 -131 -147 -131t-147 131v116q0 54 24 85q-17 18 -78 18h-50q8 -21 8 -63v-155q0 -72 -43 -109.5t-125 -37.5q-49 0 -91 11v80q48 -12 89 -12q83 0 83 70
v149zM604 192v168h-63q-38 0 -50.5 -13.5t-12.5 -42.5v-112q0 -29 12.5 -43t50.5 -14t50.5 13.5t12.5 43.5zM800 435v147h-112v-147h112z" />
    <glyph glyph-name="uni091C094D092F" horiz-adv-x="872" 
d="M536 519q0 33 -7 63h-558v74h929v-74h-92v-582h-86v96q-51 -11 -103 -11q-93 0 -150 42t-57 133v99q0 31 -18.5 40.5t-65.5 9.5h-38q8 -21 8 -63v-155q0 -72 -43 -109.5t-125 -37.5q-49 0 -91 11v80q48 -12 89 -12q83 0 83 70v149q0 34 -9 63h-107v79h248q134 0 141 -82
q29 5 40.5 20t11.5 47v50zM722 582h-108q7 -23 7 -63v-63q0 -117 -124 -119v-68q0 -52 30 -77.5t87.5 -25.5t107.5 10v406z" />
    <glyph glyph-name="uni091C094D0935" horiz-adv-x="796" 
d="M211 342q0 34 -9 63h-107v79h372q36 21 87.5 21t91.5 -10v87h-675v74h854v-74h-92v-582h-87v75q-44 -11 -85 -11q-154 0 -154 140v162q0 21 5 43h-122q8 -21 8 -63v-155q0 -72 -43 -109.5t-125 -37.5q-49 0 -91 11v80q48 -12 89 -12q83 0 83 70v149zM572 430
q-80 0 -80 -65v-159q0 -66 81 -66q49 0 76 11v269q-30 10 -77 10z" />
    <glyph glyph-name="uni091D094D092E" horiz-adv-x="1009" 
d="M1038 656v-74h-92v-582h-86v360h-112v-170q0 -131 -147 -131t-147 131v57h-114q24 -22 24 -65v-40q0 -68 -36 -99t-112 -31q-47 0 -81 8v-86h-84v227h84v-65q25 -7 67.5 -7t58.5 14.5t16 43.5v38q0 56 -67 57h-7q-156 0 -156 127v9q0 65 38.5 96t118.5 31h66v77h-299v74
h1067zM664 192v168h-63q-38 0 -50.5 -13.5t-12.5 -42.5v-112q0 -29 12.5 -43t50.5 -14t50.5 13.5t12.5 43.5zM664 435v147h-307v-154h-153q-39 0 -54.5 -12.5t-15.5 -37.5v-6q0 -28 14.5 -41.5t53.5 -13.5h252q6 118 147 118h63zM860 435v147h-112v-147h112z" />
    <glyph glyph-name="uni091D094D092F" horiz-adv-x="924" 
d="M953 656v-74h-92v-582h-87v96q-51 -11 -103 -11q-90 0 -146.5 39t-60.5 123h-124q24 -22 24 -65v-40q0 -68 -36 -99t-112 -31q-47 0 -81 8v-86h-84v227h84v-65q25 -7 67.5 -7t58.5 14.5t16 43.5v38q0 56 -67 57h-7q-156 0 -156 127v9q0 65 38.5 96t118.5 31h66v77h-299
v74h982zM589 519q0 37 -8 63h-224v-154h-153q-39 0 -54.5 -12.5t-15.5 -37.5v-6q0 -28 14.5 -41.5t53.5 -13.5h262v71h22q60 0 81.5 14t21.5 55v62zM774 582h-108q8 -23 8 -63v-74q0 -117 -125 -120v-56q0 -52 30.5 -77.5t87.5 -25.5t107 10v406z" />
    </font>
</defs>
</svg>
